
<svg width="20px" height="20px" viewBox="0 0 20 20" version="1.1" xmlns="http://www.w3.org/2000/svg" xmlns:xlink="http://www.w3.org/1999/xlink">
    <!-- Generator: Sketch 43.1 (39012) - http://www.bohemiancoding.com/sketch -->
    <desc>Created with Sketch.</desc>
    <defs></defs>
    <g id="Page-1" stroke="none" stroke-width="1" fill="none" fill-rule="evenodd">
        <g id="FABRIKA-05-EXTRAS-POPUP" transform="translate(-342.000000, -667.000000)">
            <g id="Group-7" transform="translate(297.000000, 370.000000)">
                <g id="Group-6" transform="translate(45.000000, 297.000000)">
                    <rect id="Rectangle-2-Copy-17" fill="#29A71F" x="0" y="0" width="20" height="20"></rect>
                    <path d="M15.5395263,5.15027451 C15.3392908,4.9499085 15.0108733,4.9499085 14.8105073,5.15027451 L8.34436325,11.6168101 C8.14399724,11.8171761 7.81571026,11.8171761 7.61534425,11.6168101 L6.02272816,10.0243246 C5.82236215,9.82395855 5.49407517,9.82395855 5.29370916,10.0243246 L4.31694117,11.0016147 C4.11657516,11.2019807 4.11657516,11.5302677 4.31694117,11.7306337 L7.61534425,15.0283841 C7.81571026,15.2287501 8.14399724,15.2287501 8.34436325,15.0283841 L16.5162943,6.8560615 C16.7167908,6.65556495 16.7167908,6.3274085 16.5162943,6.12691196 L15.5395263,5.15027451 Z" id="Shape-Copy-3" fill="#FFFFFF"></path>
                </g>
            </g>
        </g>
    </g>
</svg>