
<svg width="30px" height="32px" viewBox="0 0 30 32" version="1.1" xmlns="http://www.w3.org/2000/svg" xmlns:xlink="http://www.w3.org/1999/xlink">
    <!-- Generator: Sketch 42 (36781) - http://www.bohemiancoding.com/sketch -->
    <desc>Created with Sketch.</desc>
    <defs>
        <polygon id="path-1" points="0 0.722311111 0 30.1783111 29.8646677 30.1783111 29.8646677 0.722311111 2.44264698e-20 0.722311111"></polygon>
    </defs>
    <g id="Group-3" stroke="none" stroke-width="1" fill="none" fill-rule="evenodd" transform="translate(0.000000, 0.067653)">
        <mask id="mask-2" fill="white">
            <use xlink:href="#path-1"></use>
        </mask>
        <g id="Clip-2"></g>
        <path d="M12.7206636,15.4600889 C12.7639201,15.5134222 12.7404895,15.8903111 12.7404895,15.9596444 L12.7422919,23.8885333 L16.2262448,23.8885333 C16.247873,21.8014222 16.2280471,19.6592 16.2280471,17.5649778 C16.2280471,17.5329778 16.2208377,15.5329778 16.2298495,15.4920889 C16.2370589,15.4636444 16.2370589,15.4672 16.2442683,15.4547556 C16.2496754,15.4565333 18.4629677,15.4743111 18.5386667,15.4547556 L18.5783185,15.4423111 L18.8829165,12.5498667 L16.2388612,12.5480889 C16.2280471,12.1214222 16.2406636,11.6823111 16.2406636,11.2538667 C16.2424659,10.8627556 16.2316518,10.3809778 16.4677604,10.1640889 L18.8703001,9.92764444 L18.8666953,7.02453333 C18.4125018,6.99608889 17.8717952,7.02097778 17.4085899,7.02097778 C16.9255586,7.02097778 16.4371203,7.01208889 15.9631009,7.04231111 C15.0583185,7.10275556 14.3283646,7.36764444 13.8002744,7.81031111 C13.0342734,9.02275556 12.7386871,7.98275556 12.7314777,12.5498667 L10.9813907,12.5516444 L10.9849954,15.4583111 L12.7206636,15.4600889 Z M14.9321536,0.722311111 C23.1797317,0.722311111 29.8646677,7.31608889 29.8646677,15.4494222 C29.8646677,23.5845333 23.1797317,30.1783111 14.9321536,30.1783111 C6.68457552,30.1783111 -0.000360471071,23.5845333 -0.000360471071,15.4494222 C-0.000360471071,7.31608889 6.68457552,0.722311111 14.9321536,0.722311111 L14.9321536,0.722311111 Z" id="Fill-1" fill="#81807F" mask="url(#mask-2)"></path>
    </g>
</svg>