
<svg width="155px" height="149px" viewBox="0 0 155 149" version="1.1" xmlns="http://www.w3.org/2000/svg" xmlns:xlink="http://www.w3.org/1999/xlink">
    <!-- Generator: Sketch 43.1 (39012) - http://www.bohemiancoding.com/sketch -->
    <desc>Created with Sketch.</desc>
    <defs></defs>
    <g id="Page-1" stroke="none" stroke-width="1" fill="none" fill-rule="evenodd">
        <g id="FABRIKA-MAIN" transform="translate(-435.000000, -1043.000000)" fill-rule="nonzero">
            <g id="Bitmap-Copy-2" transform="translate(435.000000, 1043.000000)">
                <g id="Group-5">
                    <path d="M112.28996,148.653663 L42.3919608,148.653663 C33.5150495,148.659577 25.6449965,142.956638 22.9014651,134.53011 L1.31129065,68.1949702 C-1.45476853,59.7564083 1.56633173,50.5012434 8.7818866,45.3087395 L65.2906307,4.30487547 C72.5027021,-0.823385083 82.1792191,-0.823385083 89.3912905,4.30487547 L145.94568,45.3087395 C153.139292,50.5102845 156.145819,59.75234 153.385846,68.1797836 L153.385846,68.1797836 L131.795671,134.514924 C129.068065,142.961703 121.18124,148.678479 112.28996,148.653663 L112.28996,148.653663 Z" id="Shape" fill="#2AA720"></path>
                    <path d="M94.5491969,45.0809402 C89.0413441,45.0809402 83.1835448,72.5990889 83.1835448,79.9038514 C83.1835448,84.2472236 83.8682227,87.2086138 87.6263432,88.9247014 C89.5282261,89.7903386 89.5434412,90.6711623 89.5434412,90.6711623 C89.5434412,90.6711623 87.5198378,113.086608 87.5198378,114.969748 C87.4533099,116.48911 88.0401383,117.96449 89.1326345,119.024575 C90.1827196,119.954084 91.5487082,120.448397 92.9516153,120.406557 L92.9516153,120.406557 C94.354028,120.445329 95.7189211,119.951413 96.7705961,119.024575 C97.8823023,117.982935 98.4447378,116.484039 98.2921024,114.969748 C98.2921024,114.119298 97.0292522,103.686092 96.9531769,90.9445214 C96.8314564,70.8070682 96.3141442,45.0353804 96.3141442,45.0353804 L94.5491969,45.0809402 Z M78.0408535,67.3597063 C78.0408535,60.0549439 75.4847229,51.5959986 73.9632166,44.7468347 L73.9632166,44.7468347 L72.609076,44.7468347 L72.609076,64.4894358 C72.609076,65.5221257 72.122194,66.3725763 71.0875697,66.3725763 C70.0529454,66.3725763 69.718214,65.6436187 69.5660634,64.7020485 C69.5579468,64.6364891 69.5579468,64.5701818 69.5660634,64.5046224 L67.8163312,44.7620213 L66.4469755,44.7620213 L64.9254692,64.5046224 L64.9254692,64.6868618 C64.9336149,65.1218794 64.7682545,65.542302 64.4657806,65.8556032 C64.1633066,66.1689044 63.7485076,66.3494083 63.3126725,66.3573896 C62.2780482,66.3573896 61.7911662,65.5069391 61.7911662,64.4742492 L61.7911662,44.731648 L60.4218105,44.731648 C58.9003042,51.6719317 56.3746038,60.1005037 56.3746038,67.4204528 C56.3363722,71.6391745 58.7769455,75.4892591 62.6127796,77.2613801 C64.5146625,78.1270173 64.5298775,79.007841 64.5298775,79.007841 C64.5298775,79.007841 61.8063813,113.132168 61.8063813,115.060868 C61.7398534,116.58023 62.3266818,118.05561 63.4191779,119.115695 C64.4692631,120.045203 65.8352517,120.539516 67.2381588,120.497677 L67.2381588,120.497677 C68.6405714,120.536449 70.0054645,120.042533 71.0571396,119.115695 C72.1688458,118.074054 72.7312813,116.575159 72.5786459,115.060868 C72.5786459,112.843622 69.8551496,79.007841 69.8551496,79.007841 C69.8551496,79.007841 69.6877839,78.1573905 71.8026777,77.2158203 C75.6435727,75.4414315 78.0850947,71.5839066 78.0408535,67.3597063 L78.0408535,67.3597063 Z" id="Shape" fill="#FFFFFF"></path>
                </g>
            </g>
        </g>
    </g>
</svg>