
<svg width="25px" height="42px" viewBox="500 554 25 42" version="1.1" xmlns="http://www.w3.org/2000/svg" xmlns:xlink="http://www.w3.org/1999/xlink">
    <!-- Generator: Sketch 42 (36781) - http://www.bohemiancoding.com/sketch -->
    <desc>Created with Sketch.</desc>
    <defs></defs>
    <g id="Group-8" stroke="none" stroke-width="1" fill="none" fill-rule="evenodd" transform="translate(512.500000, 575.017241) scale(1, -1) translate(-512.500000, -575.017241) translate(500.000000, 554.517241)">
        <path d="M6.55951724,0.203531609 C3.63066207,0.203531609 0.518731034,14.9228602 0.518731034,18.830568 C0.518731034,21.1555374 0.883762069,22.7394914 2.88253448,23.6530651 C3.89613103,24.1143764 3.90523103,24.5848716 3.90523103,24.5848716 C3.90523103,24.5848716 2.8308931,36.5735632 2.8308931,37.604727 C2.8308931,38.6358908 3.19233793,39.2782241 3.69001379,39.7755508 C4.18768966,40.2734176 4.97495172,40.5172414 5.71666897,40.5172414 L5.73437586,40.5172414 L5.75262069,40.5172414 C6.49483103,40.5172414 7.27245517,40.2734176 7.77923103,39.7755508 C8.2769069,39.2782241 8.62068966,38.7900364 8.62068966,37.604727 C8.62068966,37.1479626 7.94953103,31.5729253 7.90743793,24.7565297 C7.84091379,13.9867768 7.56634483,0.203531609 7.56634483,0.203531609 L6.55951724,0.203531609 Z" id="Path" fill="#FFFFFF"></path>
        <path d="M24.5106724,12.1215431 C24.5106724,8.21388027 23.153831,3.69071552 22.3392241,0.0268314176 L22.3392241,0 L21.6157517,0 L21.5975069,10.5748199 C21.5975069,11.1263496 21.3352655,11.5791073 20.7834379,11.5791073 C20.2675172,11.5791073 20.0594276,11.1902768 20.0052759,10.6832711 C19.996131,10.6473008 20.0052759,10.6113305 20.0052759,10.5748199 L19.0737138,0 L18.3497483,0 L17.5356345,10.5839138 L17.5265345,10.6832711 C17.4723379,11.1902768 17.1918966,11.5791073 16.666831,11.5791073 C16.1155414,11.5791073 15.8441552,11.1263496 15.8441552,10.5748199 L15.8077103,0 L15.0837,0 C14.287831,3.70894828 12.9310345,8.22301916 12.9310345,12.130682 C12.9310345,14.4556513 14.2519241,16.4819636 16.2506966,17.3955374 C17.2642931,17.8568487 17.2733931,18.3273439 17.2733931,18.3273439 C17.2733931,18.3273439 15.8259552,36.5735632 15.8259552,37.604727 C15.8259552,38.6358908 16.1874,39.2782241 16.6850759,39.7755508 C17.1827517,40.2734176 17.9700138,40.5172414 18.711731,40.5172414 L18.7294379,40.5172414 L18.7476379,40.5172414 C19.4898931,40.5172414 20.2675172,40.2734176 20.7742931,39.7755508 C21.271969,39.2782241 21.6157517,38.7900364 21.6157517,37.604727 C21.6157517,36.4199579 20.1683138,18.3273439 20.1683138,18.3273439 C20.1683138,18.3273439 20.0776724,17.8751264 21.1995724,17.3686609 C23.153831,16.4819636 24.5106724,14.4556513 24.5106724,12.1215431 Z" id="Path" fill="#FFFFFF"></path>
    </g>
</svg>