
<svg width="32px" height="32px" viewBox="82 0 32 32" version="1.1" xmlns="http://www.w3.org/2000/svg" xmlns:xlink="http://www.w3.org/1999/xlink">
    <!-- Generator: Sketch 42 (36781) - http://www.bohemiancoding.com/sketch -->
    <desc>Created with Sketch.</desc>
    <defs>
        <polygon id="path-1" points="0.864589862 0.677333333 30.5782202 0.677333333 30.5782202 30.2220444 0.864589862 30.2220444"></polygon>
    </defs>
    <g id="Group-10" stroke="none" stroke-width="1" fill="none" fill-rule="evenodd" transform="translate(82.908346, 0.067653)">
        <mask id="mask-2" fill="white">
            <use xlink:href="#path-1"></use>
        </mask>
        <g id="Clip-9"></g>
        <path d="M23.6878157,21.3349333 C23.6878157,22.5189333 22.9398382,23.2940444 21.7376672,23.2976 C17.7238218,23.3082667 13.7117788,23.3082667 9.69793344,23.2940444 C8.51198361,23.2904889 7.76400614,22.5402667 7.76040143,21.3651556 C7.74778495,17.4202667 7.7495873,13.4753778 7.76040143,9.53048889 C7.76400614,8.32693333 8.54622837,7.59626667 9.77723707,7.59448889 L15.7087885,7.59448889 L21.6853989,7.59448889 C22.9128029,7.59626667 23.6860133,8.34293333 23.6878157,9.54471111 C23.6914204,13.4753778 23.6914204,17.4042667 23.6878157,21.3349333 M15.721405,0.677155556 C7.51528111,0.677155556 0.864589862,7.29226667 0.864589862,15.4487111 C0.864589862,23.6087111 7.51528111,30.2220444 15.721405,30.2220444 C23.9257266,30.2220444 30.5782202,23.6087111 30.5782202,15.4487111 C30.5782202,7.29226667 23.9257266,0.677155556 15.721405,0.677155556" id="Fill-8" fill="#81807F" mask="url(#mask-2)"></path>
        <path d="M19.4346175,12.4044444 C19.7157849,12.4097778 19.99515,12.4062222 20.2727127,12.4044444 C20.568299,12.4044444 20.8620829,12.408 21.1558669,12.4044444 C21.5631992,12.4008889 21.7939007,12.1928889 21.8029124,11.7928889 C21.8173313,11.2115556 21.8173313,10.632 21.8029124,10.0524444 C21.795703,9.67733333 21.5866298,9.45866667 21.1937163,9.45333333 C20.6061485,9.44622222 20.0167783,9.448 19.4292104,9.45333333 C19.0435064,9.45688889 18.8200143,9.64888889 18.8146073,10.0364444 C18.8055955,10.632 18.8037931,11.2275556 18.8164096,11.8231111 C18.823619,12.2088889 19.0543205,12.3955556 19.4346175,12.4044444" id="Fill-11" fill="#81807F" mask="url(#mask-2)"></path>
        <path d="M15.731318,18.4321778 C17.4147179,18.4286222 18.759275,17.0881778 18.7466585,15.4277333 C18.734042,13.7655111 17.369659,12.4339556 15.6952709,12.4481778 C14.0407087,12.4624 12.7015586,13.8028444 12.703361,15.4401778 C12.7051633,17.1095111 14.0479181,18.4357333 15.731318,18.4321778" id="Fill-4" fill="#81807F" mask="url(#mask-2)"></path>
        <path d="M16.0789923,20.2794667 C14.7055975,20.3719111 13.4781935,19.9665778 12.4580604,19.0492444 C11.0323973,17.7656889 10.5836109,16.1496889 10.9350701,14.2901333 L9.66080492,14.2901333 C9.64999078,14.3843556 9.63376959,14.4554667 9.63376959,14.5248 C9.63196723,16.5923556 9.62836252,18.6581333 9.63557194,20.7256889 C9.63557194,21.2483556 9.84824987,21.4403556 10.4123871,21.4421333 C13.9540154,21.4456889 17.4956436,21.4456889 21.0390742,21.4403556 C21.6392586,21.4403556 21.8068776,21.2554667 21.80868,20.6385778 L21.80868,14.7008 L21.80868,14.2812444 L20.5163912,14.2812444 C21.1724485,17.7265778 18.6978146,20.0999111 16.0789923,20.2794667" id="Fill-6" fill="#81807F" mask="url(#mask-2)"></path>
    </g>
</svg>