
<svg width="175px" height="144px" viewBox="0 0 175 144" version="1.1" xmlns="http://www.w3.org/2000/svg" xmlns:xlink="http://www.w3.org/1999/xlink">
    <!-- Generator: Sketch 43.1 (39012) - http://www.bohemiancoding.com/sketch -->
    <desc>Created with Sketch.</desc>
    <defs></defs>
    <g id="Page-1" stroke="none" stroke-width="1" fill="none" fill-rule="evenodd">
        <g id="FABRIKA-MAIN" transform="translate(-425.000000, -20.000000)" fill-rule="nonzero" fill="#FFFFFF">
            <g id="F_C_LOFO-WHITE" transform="translate(425.000000, 20.000000)">
                <path d="M16.5566914,84.5902703 C17.4605525,84.5677506 18.360083,84.7220071 19.204461,85.0443243 C19.8879068,85.312984 20.5016844,85.7320549 21,86.2702703 C21.4674787,86.7943568 21.8139163,87.4143432 22.0148699,88.0864865 C22.2317868,88.8058921 22.3392401,89.5536722 22.3336431,90.3048649 L22.3336431,108.875676 C22.3393384,109.626875 22.231883,110.37467 22.0148699,111.094054 C21.8141126,111.76628 21.4676524,112.386307 21,112.91027 C20.5021289,113.448998 19.8882252,113.868155 19.204461,114.136216 C18.3601727,114.458859 17.460577,114.613127 16.5566914,114.59027 L13.232342,114.59027 L13.232342,121.654054 L9.10780669,121.654054 L9.10780669,114.60973 L5.73141264,114.60973 C4.82536067,114.63327 3.92350451,114.478993 3.07713755,114.155676 C2.39837828,113.892275 1.79194595,113.47213 1.30762082,112.92973 C0.8546202,112.399679 0.51779548,111.781033 0.318773234,111.113514 C0.101760164,110.394129 -0.00569532053,109.646334 -2.20710332e-13,108.895135 L-2.20710332e-13,90.3048649 C-0.00559702554,89.5536722 0.101856368,88.8058921 0.318773234,88.0864865 C0.518150775,87.4191136 0.854937371,86.8005377 1.30762082,86.2702703 C1.79243962,85.7284255 2.39872826,85.3083802 3.07713755,85.0443243 C3.92354948,84.72117 4.82537289,84.5668994 5.73141264,84.5902703 L9.10780669,84.5902703 L9.10780669,80.1016216 L13.232342,80.1016216 L13.232342,84.5902703 L16.5566914,84.5902703 Z M9.10780669,88.7027027 L5.73141264,88.7027027 C5.25725686,88.6468963 4.78575834,88.8262185 4.46933086,89.1827027 C4.23605561,89.509905 4.1151111,89.9035277 4.12453532,90.3048649 L4.12453532,108.875676 C4.1151111,109.277013 4.23605561,109.670636 4.46933086,109.997838 C4.78575834,110.354322 5.25725686,110.533644 5.73141264,110.477838 L9.10780669,110.477838 L9.10780669,88.7027027 Z M16.5566914,110.490811 C17.0286653,110.544417 17.4972221,110.36529 17.8122677,110.010811 C18.045121,109.683401 18.1660216,109.289922 18.1570632,108.888649 L18.1570632,90.3048649 C18.1660216,89.9035919 18.045121,89.510112 17.8122677,89.1827027 C17.4972221,88.8282236 17.0286653,88.6490969 16.5566914,88.7027027 L13.232342,88.7027027 L13.232342,110.497297 L16.5566914,110.490811 Z" id="Shape"></path>
                <path d="M43.8215613,114.551351 L36.4832714,114.551351 L35.6245353,121.686486 L31.5,121.686486 L35.7286245,84.6227027 L44.5111524,84.6227027 L48.7983271,121.686486 L44.6022305,121.686486 L43.8215613,114.551351 Z M43.3921933,110.815135 L40.7899628,88.7027027 L39.3977695,88.7027027 L36.9061338,110.821622 L43.3921933,110.815135 Z" id="Shape"></path>
                <path d="M66.8513011,96.3372973 C67.7573165,96.3142634 68.6590746,96.4685228 69.5055762,96.7913514 C70.1836383,97.0560564 70.7897851,97.4760034 71.2750929,98.0172973 C71.7273037,98.5478879 72.0640337,99.1663598 72.2639405,99.8335135 C72.4808574,100.552919 72.5883108,101.300699 72.5827138,102.051892 L72.5827138,115.939459 C72.6063229,116.842853 72.4515926,117.742063 72.1273234,118.585946 C71.8627087,119.262481 71.4413941,119.867038 70.8977695,120.35027 C70.366488,120.802419 69.745915,121.138313 69.0762082,121.336216 C68.3547706,121.552881 67.6047311,121.660028 66.8513011,121.654054 L58.7648699,121.654054 L58.7648699,84.5902703 L71.5157993,84.5902703 L71.5157993,88.7027027 L62.8894052,88.7027027 L62.8894052,96.3372973 L66.8513011,96.3372973 Z M68.4581784,102.051892 C68.4657102,101.649824 68.3424626,101.256134 68.1068773,100.92973 C67.7918317,100.575251 67.323275,100.396124 66.8513011,100.44973 L62.8894052,100.44973 L62.8894052,117.541622 L66.8513011,117.541622 C67.2636526,117.556824 67.6691723,117.433469 68.0027881,117.191351 C68.3452682,116.867063 68.5140803,116.400585 68.4581784,115.932973 L68.4581784,102.051892 Z" id="Shape"></path>
                <path d="M96.7444238,104.192432 C96.7682027,105.095838 96.6134669,105.99508 96.2890335,106.838919 C96.0219719,107.520802 95.5907777,108.126712 95.0334572,108.603243 C94.4900079,109.051906 93.8617253,109.387184 93.1858736,109.589189 C92.464372,109.805565 91.7143766,109.912706 90.9609665,109.907027 L87.1552045,109.907027 L87.1552045,121.654054 L83.0306691,121.654054 L83.0306691,84.5902703 L90.9609665,84.5902703 C91.8669819,84.5672364 92.7687401,84.7214958 93.6152416,85.0443243 C94.2986875,85.312984 94.9124651,85.7320549 95.4107807,86.2702703 C95.8782594,86.7943568 96.224697,87.4143432 96.4256506,88.0864865 C96.6453498,88.805428 96.75501,89.553303 96.7509294,90.3048649 L96.7444238,104.192432 Z M92.5678439,90.3048649 C92.5753757,89.902797 92.4521281,89.5091069 92.2165428,89.1827027 C91.9014972,88.8282236 91.4329404,88.6490969 90.9609665,88.7027027 L87.1552045,88.7027027 L87.1552045,105.794595 L90.9609665,105.794595 C91.373318,105.809797 91.7788377,105.686442 92.1124535,105.444324 C92.4529834,105.121474 92.6216225,104.657876 92.5678439,104.192432 L92.5678439,90.3048649 Z" id="Shape"></path>
                <polygon id="Shape" points="117.464684 121.654054 117.464684 98.1016216 111.355948 104.244324 111.355948 121.654054 107.231413 121.654054 107.231413 84.5902703 111.355948 84.5902703 111.355948 99.2756757 117.464684 92.9189189 117.464684 84.5902703 121.589219 84.5902703 121.589219 121.654054"></polygon>
                <polygon id="Shape" points="132.791822 84.5902703 136.916357 84.5902703 136.916357 96.7135135 140.45539 96.7135135 144.527881 84.5902703 148.919145 84.5902703 144.254647 98.4972973 149.237918 121.68 145.002788 121.68 140.39684 100.20973 136.916357 100.20973 136.916357 121.68 132.791822 121.68"></polygon>
                <path d="M169.80855,114.551351 L162.47026,114.551351 L161.611524,121.686486 L157.486989,121.686486 L161.715613,84.6227027 L170.498141,84.6227027 L174.785316,121.686486 L170.608736,121.686486 L169.80855,114.551351 Z M169.379182,110.821622 L166.776952,88.7091892 L165.384758,88.7091892 L162.899628,110.821622 L169.379182,110.821622 Z" id="Shape"></path>
                <path d="M57.4507435,143.863784 L56.2342007,140.931892 C55.9528922,140.146013 55.216663,139.612847 54.3801115,139.589189 L54.3801115,143.863784 L52.5910781,143.863784 L52.5910781,134.704865 L54.3605948,134.704865 L54.3605948,138.83027 L54.3605948,138.83027 L57.2425651,134.704865 L59.3113383,134.704865 L56.1756506,138.869189 C57.0184118,139.20643 57.6844386,139.875195 58.0167286,140.717838 L59.4154275,143.87027 L57.4507435,143.863784 Z" id="Shape"></path>
                <polygon id="Shape" points="61.1068773 143.863784 61.1068773 134.704865 65.9925651 134.704865 65.9925651 136.196757 62.8568773 136.196757 62.8568773 138.486486 65.686803 138.486486 65.686803 139.952432 62.8568773 139.952432 62.8568773 142.365405 65.9925651 142.365405 65.9925651 143.857297"></polygon>
                <path d="M73.3503717,143.863784 L73.3503717,138.551351 L73.3503717,137.364324 L73.3503717,137.364324 C73.1900598,137.733856 73.0075734,138.093426 72.8039033,138.441081 L69.5185874,143.87027 L68.0223048,143.87027 L68.0223048,134.704865 L69.6096654,134.704865 L69.6096654,139.842162 L69.6096654,141.068108 L69.6096654,141.068108 C69.7726989,140.699855 69.9551086,140.340436 70.1561338,139.991351 L73.3633829,134.704865 L74.91171,134.704865 L74.91171,143.863784 L73.3503717,143.863784 Z M71.4832714,134.010811 C70.9610379,134.040657 70.4514234,133.843592 70.0859341,133.470469 C69.7204449,133.097346 69.5348847,132.584716 69.5771375,132.064865 L70.552974,131.915676 C70.6310409,132.596757 70.8977695,132.966486 71.4767658,132.966486 C72.0557621,132.966486 72.3159851,132.603243 72.394052,131.915676 L73.3698885,132.064865 C73.3113383,133.251892 72.6802974,134.010811 71.4832714,134.010811 Z" id="Shape"></path>
                <polygon id="Shape" points="80.545539 136.196757 80.545539 143.863784 78.7565056 143.863784 78.7565056 136.196757 76.8048327 136.196757 76.8048327 134.704865 82.464684 134.704865 82.464684 136.196757"></polygon>
                <polygon id="Shape" points="84.3578067 143.863784 84.3578067 134.704865 89.2434944 134.704865 89.2434944 136.196757 86.1078067 136.196757 86.1078067 138.486486 88.9377323 138.486486 88.9377323 139.952432 86.1078067 139.952432 86.1078067 142.365405 89.2434944 142.365405 89.2434944 143.857297"></polygon>
                <path d="M93.901487,140.374054 C93.6161233,140.375307 93.331123,140.353615 93.0492565,140.309189 L93.0492565,143.863784 L91.2992565,143.863784 L91.2992565,135.048649 C92.1394355,134.707845 93.0401137,134.540153 93.947026,134.555676 C96.2304833,134.555676 97.4860595,135.703784 97.4860595,137.487568 C97.4925651,139.141622 96.2695167,140.374054 93.901487,140.374054 Z M93.9795539,135.924324 C93.6664082,135.921781 93.3547652,135.967734 93.0557621,136.060541 L93.0557621,138.96 C93.3068807,139.005353 93.5617191,139.02707 93.8169145,139.024865 C95.0724907,139.024865 95.7685874,138.441081 95.7685874,137.481081 C95.7685874,136.521081 95.1310409,135.917838 93.9730483,135.917838 L93.9795539,135.924324 Z" id="Shape"></path>
                <path d="M104.713755,143.863784 L104.713755,138.551351 L104.713755,137.364324 L104.713755,137.364324 C104.553443,137.733856 104.370956,138.093426 104.167286,138.441081 L100.88197,143.87027 L99.41171,143.87027 L99.41171,134.704865 L100.999071,134.704865 L100.999071,139.842162 L100.999071,141.068108 L100.999071,141.068108 C101.162104,140.699855 101.344514,140.340436 101.545539,139.991351 L104.752788,134.704865 L106.301115,134.704865 L106.301115,143.863784 L104.713755,143.863784 Z" id="Shape"></path>
                <polygon id="Shape" points="113.242565 143.863784 113.242565 139.971892 110.425651 139.971892 110.425651 143.863784 108.636617 143.863784 108.636617 134.704865 110.425651 134.704865 110.425651 138.486486 113.242565 138.486486 113.242565 134.704865 115.031599 134.704865 115.031599 143.863784"></polygon>
                <polygon id="Shape" points="119.143123 136.196757 119.143123 143.863784 117.380112 143.863784 117.380112 134.704865 122.200743 134.704865 122.200743 136.196757"></polygon>
                <path d="M102.339219,63.3016216 L72.4526022,63.3016216 C68.6570594,63.3041474 65.2920238,60.8683159 64.1189591,57.2691892 L54.8875465,28.9362162 C53.7048495,25.3319494 54.9965956,21.3788961 58.0817844,19.1610811 L82.2434944,1.64756757 C85.3271938,-0.542807967 89.4646278,-0.542807967 92.5483271,1.64756757 L116.729554,19.1610811 C119.80536,21.3827578 121.090876,25.3302117 119.910781,28.9297297 L119.910781,28.9297297 L110.679368,57.2627027 C109.513113,60.8704795 106.140905,63.312221 102.339219,63.3016216 L102.339219,63.3016216 Z M87.3763941,3.53513514 C86.2747259,3.53636365 85.2018645,3.88612127 84.3122677,4.53405405 L60.1505576,22.0475676 C58.3295589,23.3669935 57.5657098,25.7041609 58.2574349,27.84 L67.4888476,56.172973 C68.1882801,58.3022672 70.1794011,59.7434903 72.4265799,59.747027 L102.306691,59.747027 C104.55387,59.7434903 106.544991,58.3022672 107.244424,56.172973 L116.475836,27.84 C117.167176,25.7089009 116.40912,23.3760231 114.595725,22.0540541 L90.4144981,4.54054054 C89.5400783,3.90063975 88.4869899,3.54912847 87.4024164,3.53513514 L87.3763941,3.53513514 Z" id="Shape"></path>
                <path d="M94.7537175,19.0637838 C92.3986989,19.0637838 89.894052,30.8172973 89.894052,33.9372973 C89.894052,35.7924324 90.186803,37.0572973 91.7936803,37.7902703 C92.6068773,38.16 92.6133829,38.5362162 92.6133829,38.5362162 C92.6133829,38.5362162 91.7481413,48.1102703 91.7481413,48.9145946 C91.7196956,49.5635423 91.9706086,50.1937044 92.4377323,50.6464865 C92.8867222,51.043497 93.4707844,51.2546273 94.070632,51.2367568 L94.070632,51.2367568 C94.6702682,51.2533172 95.2538619,51.0423562 95.7035316,50.6464865 C96.178869,50.2015825 96.4193522,49.5613765 96.3540892,48.9145946 C96.3540892,48.5513514 95.8141264,44.0951351 95.7815985,38.652973 C95.7295539,30.0518919 95.5083643,19.0443243 95.5083643,19.0443243 L94.7537175,19.0637838 Z M87.6951673,28.5794595 C87.6951673,25.4594595 86.6022305,21.8464865 85.9516729,18.9210811 L85.9516729,18.9210811 L85.3726766,18.9210811 L85.3726766,27.3535135 C85.3726766,27.7945946 85.1644981,28.1578378 84.722119,28.1578378 C84.2797398,28.1578378 84.1366171,27.8464865 84.0715613,27.4443243 C84.0680909,27.4163227 84.0680909,27.3880016 84.0715613,27.36 L83.3234201,18.9275676 L82.7379182,18.9275676 L82.0873606,27.36 L82.0873606,27.4378378 C82.0908435,27.6236419 82.0201396,27.8032123 81.8908094,27.937029 C81.7614792,28.0708458 81.5841216,28.1479424 81.3977695,28.1513514 C80.9553903,28.1513514 80.7472119,27.7881081 80.7472119,27.347027 L80.7472119,18.9145946 L80.16171,18.9145946 C79.5111524,21.8789189 78.4312268,25.4789189 78.4312268,28.6054054 C78.4148799,30.4073 79.4584073,32.0517428 81.098513,32.8086486 C81.91171,33.1783784 81.9182156,33.5545946 81.9182156,33.5545946 C81.9182156,33.5545946 80.7537175,48.1297297 80.7537175,48.9535135 C80.7252718,49.6024612 80.9761848,50.2326233 81.4433086,50.6854054 C81.8922984,51.0824159 82.4763606,51.2935462 83.0762082,51.2756757 L83.0762082,51.2756757 C83.6758444,51.2922361 84.2594382,51.0812752 84.7091078,50.6854054 C85.1844453,50.2405014 85.4249285,49.6002954 85.3596654,48.9535135 C85.3596654,48.0064865 84.1951673,33.5545946 84.1951673,33.5545946 C84.1951673,33.5545946 84.1236059,33.1913514 85.027881,32.7891892 C86.6701507,32.0313147 87.7140837,30.383694 87.6951673,28.5794595 L87.6951673,28.5794595 Z" id="Shape"></path>
            </g>
        </g>
    </g>
</svg>