
<svg width="93px" height="77px" viewBox="0 0 93 77" version="1.1" xmlns="http://www.w3.org/2000/svg" xmlns:xlink="http://www.w3.org/1999/xlink">
    <!-- Generator: Sketch 43.1 (39012) - http://www.bohemiancoding.com/sketch -->
    <desc>Created with Sketch.</desc>
    <defs></defs>
    <g id="Page-1" stroke="none" stroke-width="1" fill="none" fill-rule="evenodd" opacity="0.5">
        <g id="FABRIKA-MAIN" transform="translate(-871.000000, -1417.000000)" fill-rule="nonzero">
            <g id="F_C_LOFO" transform="translate(871.000000, 1417.000000)">
                <path d="M8.79869888,45.2322973 C9.27903647,45.2202555 9.75707269,45.3027399 10.2057993,45.4750901 C10.5690019,45.6187484 10.8951809,45.8428349 11.16,46.1306306 C11.4084315,46.4108713 11.5925384,46.7423918 11.6993309,47.1018018 C11.8146067,47.486484 11.8717105,47.8863386 11.8687361,48.288018 L11.8687361,58.2182432 C11.8717627,58.6199262 11.8146578,59.0197886 11.6993309,59.4044595 C11.5926427,59.7639135 11.4085238,60.0954557 11.16,60.3756306 C10.8954171,60.6637003 10.5691711,60.8878328 10.2057993,61.0311712 C9.75712034,61.2036954 9.27904951,61.2861857 8.79869888,61.273964 L7.03204461,61.273964 L7.03204461,65.0511261 L4.8401487,65.0511261 L4.8401487,61.2843694 L3.04583643,61.2843694 C2.56433453,61.2969566 2.0850624,61.2144617 1.63527881,61.0415766 C1.27456674,60.9007303 0.952291276,60.6760695 0.694907063,60.386036 C0.454169592,60.1026063 0.275171312,59.7718026 0.169405204,59.4148649 C0.0540782586,59.030194 -0.00302665606,58.6303316 -3.92738752e-13,58.2286486 L-3.92738752e-13,48.288018 C-0.00297441928,47.8863386 0.0541293841,47.486484 0.169405204,47.1018018 C0.275360126,46.7449427 0.454338146,46.4141764 0.694907063,46.1306306 C0.952553626,45.8408942 1.27475273,45.6162867 1.63527881,45.4750901 C2.08508629,45.3022923 2.56434102,45.2198004 3.04583643,45.2322973 L4.8401487,45.2322973 L4.8401487,42.8321171 L7.03204461,42.8321171 L7.03204461,45.2322973 L8.79869888,45.2322973 Z M4.8401487,47.4313063 L3.04583643,47.4313063 C2.7938565,47.4014654 2.54328872,47.497353 2.37513011,47.687973 C2.25116098,47.8629353 2.18688761,48.0734141 2.19189591,48.288018 L2.19189591,58.2182432 C2.18688761,58.4328471 2.25116098,58.6433259 2.37513011,58.8182883 C2.54328872,59.0089083 2.7938565,59.1047959 3.04583643,59.074955 L4.8401487,59.074955 L4.8401487,47.4313063 Z M8.79869888,59.0818919 C9.0495193,59.1105561 9.29852372,59.0147731 9.46594796,58.8252252 C9.58969287,58.6501522 9.65394291,58.4397498 9.64918216,58.2251802 L9.64918216,48.288018 C9.65394291,48.0734484 9.58969287,47.863046 9.46594796,47.687973 C9.29852372,47.4984251 9.0495193,47.4026421 8.79869888,47.4313063 L7.03204461,47.4313063 L7.03204461,59.0853604 L8.79869888,59.0818919 Z" id="Shape" fill="#010202"></path>
                <path d="M23.2880297,61.2531532 L19.3882528,61.2531532 L18.9318959,65.0684685 L16.74,65.0684685 L18.9872119,45.2496396 L23.6544981,45.2496396 L25.9328253,65.0684685 L23.7028996,65.0684685 L23.2880297,61.2531532 Z M23.0598513,59.2553153 L21.6769517,47.4313063 L20.9371004,47.4313063 L19.612974,59.2587838 L23.0598513,59.2553153 Z" id="Shape" fill="#010202"></path>
                <path d="M35.5266914,51.5136937 C36.0081739,51.501377 36.487394,51.5838629 36.9372491,51.7564865 C37.2975906,51.8980301 37.6197144,52.1225851 37.8776208,52.412027 C38.1179385,52.6957456 38.2968865,53.0264563 38.4031227,53.3831982 C38.5183985,53.7678804 38.5755023,54.167735 38.5725279,54.5694144 L38.5725279,61.9954054 C38.5850744,62.4784699 38.5028464,62.9592973 38.3305204,63.4105405 C38.1898966,63.7722986 37.965998,64.0955687 37.6771004,64.353964 C37.3947622,64.595738 37.064972,64.7753479 36.7090706,64.8811712 C36.3256781,64.9970268 35.9270857,65.0543204 35.5266914,65.0511261 L31.2293309,65.0511261 L31.2293309,45.2322973 L38.005539,45.2322973 L38.005539,47.4313063 L33.4212268,47.4313063 L33.4212268,51.5136937 L35.5266914,51.5136937 Z M36.380632,54.5694144 C36.3846346,54.3544198 36.3191373,54.143905 36.1939405,53.9693694 C36.0265163,53.7798215 35.7775119,53.6840385 35.5266914,53.7127027 L33.4212268,53.7127027 L33.4212268,62.8521171 L35.5266914,62.8521171 C35.7458268,62.8602463 35.9613316,62.7942857 36.1386245,62.6648198 C36.3206283,62.4914157 36.4103398,62.2419797 36.380632,61.9919369 L36.380632,54.5694144 Z" id="Shape" fill="#010202"></path>
                <path d="M51.4127509,55.714009 C51.4253877,56.19708 51.3431567,56.677925 51.1707435,57.1291441 C51.0288194,57.493762 50.7996704,57.8177557 50.5034944,58.0725676 C50.2146899,58.3124777 49.8808026,58.4917579 49.5216357,58.5997748 C49.1382091,58.715476 48.7396401,58.7727662 48.3392565,58.7697297 L46.3167658,58.7697297 L46.3167658,65.0511261 L44.1248699,65.0511261 L44.1248699,45.2322973 L48.3392565,45.2322973 C48.8207389,45.2199806 49.299959,45.3024665 49.7498141,45.4750901 C50.1130168,45.6187484 50.4391957,45.8428349 50.7040149,46.1306306 C50.9524464,46.4108713 51.1365532,46.7423918 51.2433457,47.1018018 C51.3601002,47.4862358 51.4183767,47.8861412 51.4162082,48.288018 L51.4127509,55.714009 Z M49.193197,48.288018 C49.1971996,48.0730234 49.1317023,47.8625086 49.0065056,47.687973 C48.8390813,47.4984251 48.5900769,47.4026421 48.3392565,47.4313063 L46.3167658,47.4313063 L46.3167658,56.5707207 L48.3392565,56.5707207 C48.5583919,56.5788499 48.7738966,56.5128893 48.9511896,56.3834234 C49.1321569,56.2107882 49.2217765,55.9628923 49.193197,55.714009 L49.193197,48.288018 Z" id="Shape" fill="#010202"></path>
                <polygon id="Shape" fill="#010202" points="62.4240892 65.0511261 62.4240892 52.4571171 59.1777323 55.7417568 59.1777323 65.0511261 56.9858364 65.0511261 56.9858364 45.2322973 59.1777323 45.2322973 59.1777323 53.0849099 62.4240892 49.6858108 62.4240892 45.2322973 64.6159851 45.2322973 64.6159851 65.0511261"></polygon>
                <polygon id="Shape" fill="#010202" points="70.569368 45.2322973 72.7612639 45.2322973 72.7612639 51.7148649 74.6420074 51.7148649 76.8062454 45.2322973 79.1398885 45.2322973 76.6610409 52.6686937 79.3092937 65.065 77.0586245 65.065 74.6108922 53.5843694 72.7612639 53.5843694 72.7612639 65.065 70.569368 65.065"></polygon>
                <path d="M90.2411152,61.2531532 L86.3413383,61.2531532 L85.8849814,65.0684685 L83.6930855,65.0684685 L85.9402974,45.2496396 L90.6075836,45.2496396 L92.8859108,65.0684685 L90.6663569,65.0684685 L90.2411152,61.2531532 Z M90.0129368,59.2587838 L88.6300372,47.4347748 L87.8901859,47.4347748 L86.5695167,59.2587838 L90.0129368,59.2587838 Z" id="Shape" fill="#010202"></path>
                <path d="M30.5309665,76.9271622 L29.884461,75.3594144 C29.7349656,74.9391873 29.3437123,74.6540917 28.899145,74.6414414 L28.899145,76.9271622 L27.9484015,76.9271622 L27.9484015,72.0296847 L28.8887732,72.0296847 L28.8887732,74.2356306 L28.8887732,74.2356306 L30.4203346,72.0296847 L31.5197398,72.0296847 L29.8533457,74.2564414 C30.3012131,74.4367716 30.6551588,74.7943754 30.8317472,75.244955 L31.5750558,76.9306306 L30.5309665,76.9271622 Z" id="Shape" fill="#010202"></path>
                <polygon id="Shape" fill="#010202" points="32.4739405 76.9271622 32.4739405 72.0296847 35.0703346 72.0296847 35.0703346 72.8274324 33.4039405 72.8274324 33.4039405 74.0518018 34.9078439 74.0518018 34.9078439 74.8356757 33.4039405 74.8356757 33.4039405 76.1259459 35.0703346 76.1259459 35.0703346 76.9236937"></polygon>
                <path d="M38.9804833,76.9271622 L38.9804833,74.0864865 L38.9804833,73.4517568 L38.9804833,73.4517568 C38.8952889,73.6493534 38.7983104,73.8416234 38.6900743,74.0275225 L36.9441636,76.9306306 L36.1489963,76.9306306 L36.1489963,72.0296847 L36.9925651,72.0296847 L36.9925651,74.7767117 L36.9925651,75.4322523 L36.9925651,75.4322523 C37.0792057,75.2353391 37.1761434,75.0431499 37.282974,74.8564865 L38.9873978,72.0296847 L39.810223,72.0296847 L39.810223,76.9271622 L38.9804833,76.9271622 Z M37.9882528,71.6585586 C37.710723,71.6745178 37.4398993,71.5691427 37.2456679,71.3696256 C37.0514364,71.1701084 36.9528244,70.8959941 36.9752788,70.618018 L37.4938662,70.5382432 C37.5353532,70.9024324 37.6771004,71.1001351 37.9847955,71.1001351 C38.2924907,71.1001351 38.4307807,70.9059009 38.4722677,70.5382432 L38.990855,70.618018 C38.9597398,71.2527477 38.6243866,71.6585586 37.9882528,71.6585586 Z" id="Shape" fill="#010202"></path>
                <polygon id="Shape" fill="#010202" points="42.8042007 72.8274324 42.8042007 76.9271622 41.8534572 76.9271622 41.8534572 72.8274324 40.8162825 72.8274324 40.8162825 72.0296847 43.8240892 72.0296847 43.8240892 72.8274324"></polygon>
                <polygon id="Shape" fill="#010202" points="44.8301487 76.9271622 44.8301487 72.0296847 47.4265428 72.0296847 47.4265428 72.8274324 45.7601487 72.8274324 45.7601487 74.0518018 47.264052 74.0518018 47.264052 74.8356757 45.7601487 74.8356757 45.7601487 76.1259459 47.4265428 76.1259459 47.4265428 76.9236937"></polygon>
                <path d="M49.9019331,75.0611261 C49.7502827,75.0617959 49.5988254,75.0501967 49.4490335,75.0264414 L49.4490335,76.9271622 L48.5190335,76.9271622 L48.5190335,72.2135135 C48.9655286,72.0312784 49.4441747,71.9416097 49.9261338,71.9499099 C51.1396283,71.9499099 51.8068773,72.5638288 51.8068773,73.5176577 C51.8103346,74.4021171 51.1603717,75.0611261 49.9019331,75.0611261 Z M49.9434201,72.6817568 C49.7770055,72.6803968 49.6113895,72.7049688 49.4524907,72.7545946 L49.4524907,74.305 C49.5859423,74.3292512 49.7213707,74.3408638 49.8569888,74.3396847 C50.5242379,74.3396847 50.8941636,74.0275225 50.8941636,73.5141892 C50.8941636,73.0008559 50.5553532,72.6782883 49.9399628,72.6782883 L49.9434201,72.6817568 Z" id="Shape" fill="#010202"></path>
                <path d="M55.647881,76.9271622 L55.647881,74.0864865 L55.647881,73.4517568 L55.647881,73.4517568 C55.5626867,73.6493534 55.4657082,73.8416234 55.3574721,74.0275225 L53.6115613,76.9306306 L52.830223,76.9306306 L52.830223,72.0296847 L53.6737918,72.0296847 L53.6737918,74.7767117 L53.6737918,75.4322523 L53.6737918,75.4322523 C53.7604324,75.2353391 53.8573702,75.0431499 53.9642007,74.8564865 L55.6686245,72.0296847 L56.4914498,72.0296847 L56.4914498,76.9271622 L55.647881,76.9271622 Z" id="Shape" fill="#010202"></path>
                <polygon id="Shape" fill="#010202" points="60.1803346 76.9271622 60.1803346 74.8460811 58.6833457 74.8460811 58.6833457 76.9271622 57.7326022 76.9271622 57.7326022 72.0296847 58.6833457 72.0296847 58.6833457 74.0518018 60.1803346 74.0518018 60.1803346 72.0296847 61.1310781 72.0296847 61.1310781 76.9271622"></polygon>
                <polygon id="Shape" fill="#010202" points="63.3160595 72.8274324 63.3160595 76.9271622 62.379145 76.9271622 62.379145 72.0296847 64.9409665 72.0296847 64.9409665 72.8274324"></polygon>
                <path d="M54.3859851,33.8487838 L38.5033829,33.8487838 C36.486323,33.8501344 34.6980469,32.5476411 34.0746468,30.6231081 L29.1688104,15.4728378 C28.5402915,13.5455563 29.2267622,11.4317709 30.8663197,10.2458559 L43.7065428,0.880990991 C45.3453087,-0.290251482 47.5440593,-0.290251482 49.1828253,0.880990991 L62.0334201,10.2458559 C63.6679916,11.4338358 64.351151,13.5446271 63.7240149,15.4693694 L63.7240149,15.4693694 L58.8181784,30.6196396 C58.1983971,32.5487981 56.4063098,33.8544515 54.3859851,33.8487838 L54.3859851,33.8487838 Z M46.4343123,1.89031532 C45.8488544,1.89097223 45.2787052,2.0779954 44.805948,2.42445946 L31.9657249,11.7893243 C30.9979942,12.4948507 30.5920629,13.744586 30.9596654,14.8866667 L35.8655019,30.0369369 C36.2372003,31.1755179 37.2953389,31.9461719 38.4895539,31.9480631 L54.3686989,31.9480631 C55.5629139,31.9461719 56.6210525,31.1755179 56.9927509,30.0369369 L61.8985874,14.8866667 C62.2659847,13.7471206 61.8631322,12.499679 60.8994424,11.7927928 L48.0488476,2.42792793 C47.5841559,2.08575875 47.0245146,1.89779786 46.4481413,1.89031532 L46.4343123,1.89031532 Z" id="Shape" fill="#010202"></path>
                <path d="M50.3548327,10.1938288 C49.1033086,10.1938288 47.7722677,16.4786937 47.7722677,18.147027 C47.7722677,19.139009 47.9278439,19.8153604 48.7817844,20.2072973 C49.2139405,20.405 49.2173978,20.6061712 49.2173978,20.6061712 C49.2173978,20.6061712 48.7575836,25.7256306 48.7575836,26.1557207 C48.7424668,26.5027275 48.8758092,26.8396892 49.124052,27.0818018 C49.3626581,27.2940922 49.6730454,27.4069882 49.9918216,27.3974324 L49.9918216,27.3974324 C50.3104854,27.4062877 50.6206238,27.2934822 50.8595911,27.0818018 C51.112199,26.8439018 51.2399986,26.5015694 51.205316,26.1557207 C51.205316,25.9614865 50.9183643,23.5786486 50.9010781,20.6686036 C50.8734201,16.0694144 50.7558736,10.1834234 50.7558736,10.1834234 L50.3548327,10.1938288 Z M46.6037175,15.2820721 C46.6037175,13.6137387 46.0228996,11.6818018 45.6771747,10.1175225 L45.6771747,10.1175225 L45.3694796,10.1175225 L45.3694796,14.6265315 C45.3694796,14.8623874 45.2588476,15.0566216 45.0237546,15.0566216 C44.7886617,15.0566216 44.7126022,14.8901351 44.6780297,14.6750901 C44.6761854,14.660117 44.6761854,14.6449731 44.6780297,14.63 L44.2804461,10.120991 L43.9692937,10.120991 L43.6235688,14.63 L43.6235688,14.6716216 C43.6254197,14.7709752 43.5878456,14.8669954 43.5191158,14.9385502 C43.4503861,15.010105 43.3561332,15.0513303 43.2571004,15.0531532 C43.0220074,15.0531532 42.9113755,14.8589189 42.9113755,14.6230631 L42.9113755,10.1140541 L42.600223,10.1140541 C42.2544981,11.6991441 41.6805948,13.6241441 41.6805948,15.2959459 C41.6719076,16.259459 42.2264679,17.1387791 43.0980669,17.5435135 C43.530223,17.7412162 43.5336803,17.9423874 43.5336803,17.9423874 C43.5336803,17.9423874 42.9148327,25.736036 42.9148327,26.1765315 C42.8997159,26.5235383 43.0330582,26.8605 43.2813011,27.1026126 C43.5199072,27.314903 43.8302945,27.427799 44.1490706,27.4182432 L44.1490706,27.4182432 C44.4677344,27.4270985 44.7778728,27.314293 45.0168401,27.1026126 C45.2694481,26.8647126 45.3972477,26.5223802 45.3625651,26.1765315 C45.3625651,25.6701351 44.7437175,17.9423874 44.7437175,17.9423874 C44.7437175,17.9423874 44.7056877,17.7481532 45.1862454,17.5331081 C46.0589943,17.1278558 46.6137702,16.2468364 46.6037175,15.2820721 L46.6037175,15.2820721 Z" id="Shape" fill="#010202"></path>
            </g>
        </g>
    </g>
</svg>