
<svg width="137px" height="36px" viewBox="0 0 137 36" version="1.1" xmlns="http://www.w3.org/2000/svg" xmlns:xlink="http://www.w3.org/1999/xlink">
    <!-- Generator: Sketch 43.1 (39012) - http://www.bohemiancoding.com/sketch -->
    <desc>Created with Sketch.</desc>
    <defs>
        <polygon id="path-1" points="0 0.209058714 0 17.9711985 15.3351842 17.9711985 15.3351842 0.209058714 3.04674262e-20 0.209058714"></polygon>
    </defs>
    <g id="Page-1" stroke="none" stroke-width="1" fill="none" fill-rule="evenodd" opacity="0.7">
        <g id="FABRIKA-MAIN" transform="translate(-652.000000, -1437.000000)">
            <g id="Bitmap" transform="translate(652.000000, 1436.000000)">
                <g id="Page-1" transform="translate(0.361069, 0.508697)">
                    <polygon id="Fill-1" fill="#000000" points="56.0734404 1.3617977 53.9827081 3.94026328 53.3734732 3.94026328 53.3734732 1.3617977 52.5832663 1.3617977 52.5832663 7.19054307 53.3734732 7.19054307 53.3734732 4.56048575 54.0546473 4.56048575 56.1689846 7.19054307 57.1109382 7.19054307 57.1244268 7.170355 54.6919834 4.18027704 56.9591915 1.38198577 56.947951 1.3617977"></polygon>
                    <path d="M61.1266055,1.3617977 L58.8672658,7.19054307 L59.6743334,7.19054307 L60.2273658,5.68877473 L62.6744219,5.68877473 L63.22071,7.19054307 L64.0266536,7.19054307 L61.8044074,1.3617977 L61.1266055,1.3617977 Z M61.4514559,2.37456604 L61.4750609,2.37456604 L62.4383714,5.02929767 L60.4735327,5.02929767 L61.4514559,2.37456604 Z" id="Fill-2" fill="#000000"></path>
                    <g id="Group-20" transform="translate(0.000000, 0.461858)">
                        <path d="M69.3609435,2.10068118 L69.3609435,5.56293574 L69.4733484,5.56293574 C69.9701784,5.56293574 70.3579755,5.40703896 70.6344917,5.09524538 C70.9110079,4.7834518 71.049266,4.35950227 71.049266,3.82451832 C71.049266,3.29626374 70.9110079,2.87680044 70.6344917,2.56724998 C70.3579755,2.25657797 69.9701784,2.10068118 69.4733484,2.10068118 L69.3609435,2.10068118 Z M68.4538354,2.10068118 C67.9491371,2.10068118 67.5590919,2.25657797 67.2848238,2.56837154 C67.0105557,2.88016512 66.8734216,3.30187154 66.8734216,3.83236924 C66.8734216,4.36735318 67.0105557,4.79018116 67.2848238,5.09973162 C67.5590919,5.40928208 67.9491371,5.56293574 68.4538354,5.56293574 L68.5696125,5.56293574 L68.5696125,2.10068118 L68.4538354,2.10068118 Z M69.3609435,1.48045871 L69.464356,1.48045871 C70.1387858,1.48045871 70.7019347,1.70028439 71.1560507,2.13881421 C71.6090427,2.57734402 71.8361007,3.14036695 71.8361007,3.82563988 C71.8361007,4.51764217 71.6090427,5.08290822 71.1560507,5.52368116 C70.7019347,5.96333253 70.1387858,6.18427978 69.464356,6.18427978 L69.3609435,6.18427978 L69.3609435,6.96824996 L68.5696125,6.96824996 L68.5696125,6.18427978 L68.4538354,6.18427978 C67.7771575,6.18427978 67.2140087,5.96445409 66.7643888,5.52704584 C66.315893,5.08963758 66.0910831,4.52549309 66.0910831,3.8334908 C66.0910831,3.14821787 66.3170171,2.58407338 66.7666369,2.14330045 C67.2173808,1.70140595 67.7805297,1.48045871 68.4538354,1.48045871 L68.5696125,1.48045871 L68.5696125,0.65947706 L69.3609435,0.65947706 L69.3609435,1.48045871 Z" id="Fill-3" fill="#000000"></path>
                        <polygon id="Fill-5" fill="#000000" points="77.9647565 4.02617475 75.2883944 4.02617475 75.2883944 6.10778941 78.3739106 6.10778941 78.3739106 6.72801188 74.4993115 6.72801188 74.4993115 0.899266508 78.3300726 0.899266508 78.3300726 1.52061054 75.2883944 1.52061054 75.2883944 3.40595227 77.9647565 3.40595227"></polygon>
                        <g id="Group-9" transform="translate(0.000000, 17.496330)">
                            <mask id="mask-2" fill="white">
                                <use xlink:href="#path-1"></use>
                            </mask>
                            <g id="Clip-8"></g>
                            <path d="M6.51139468,3.63093713 C6.51139468,2.74602659 6.62717179,1.59306329 5.08609975,1.59306329 C3.15947869,1.59306329 1.65662434,3.55467108 0.96308572,5.01494171 L-0.000224809925,5.01494171 L1.15529821,0.209058714 L14.2167549,0.209058714 L15.3351842,5.01494171 L14.3718737,5.01494171 C13.3310038,3.09258851 11.9057088,1.59306329 10.2488597,1.59306329 C8.70778765,1.59306329 8.82356476,2.74602659 8.82356476,3.63093713 L8.82356476,15.3175884 C8.82356476,17.124421 10.5186316,17.162554 10.6344087,17.162554 L10.98174,17.162554 L10.98174,17.9711985 L4.39256113,17.9711985 L4.39256113,17.162554 L4.73876842,17.162554 C4.89388726,17.162554 6.51139468,17.124421 6.51139468,15.3175884 L6.51139468,3.63093713 Z" id="Fill-7" fill="#000000" mask="url(#mask-2)"></path>
                        </g>
                        <path d="M36.87501,25.6249457 C33.7928659,26.8934296 29.0538727,28.8539159 29.0538727,31.7767003 C29.0538727,32.6986223 29.785629,34.0444938 31.7122501,34.0444938 C33.2915398,34.0444938 35.5261505,32.8522759 36.87501,31.9303539 L36.87501,25.6249457 Z M39.1871801,32.3139273 C39.1871801,33.6216658 39.5333874,34.6591085 41.0362417,34.6591085 L41.3453554,34.6591085 L41.3453554,35.4666314 L36.87501,35.4666314 L36.87501,33.6609204 L36.7210152,33.6609204 C33.3308815,35.5821521 32.0977991,35.8894594 30.4791676,35.8894594 C26.703485,35.8894594 26.2415006,32.8141429 26.2415006,31.7385672 C26.2415006,27.6246865 32.1742345,25.9715076 36.87501,24.0110214 L36.87501,23.5108058 C36.87501,21.3955444 36.9143518,18.6667898 33.8693013,18.6667898 C30.941152,18.6667898 30.555603,20.665409 30.4016082,21.4347989 C30.171178,22.3959755 29.8631885,23.1642439 28.7458831,23.1642439 C28.1287799,23.1642439 27.3970236,22.7414159 27.3970236,21.6277072 C27.3970236,19.6279664 30.0160592,17.2827852 34.1008555,17.2827852 C39.0320613,17.2827852 39.1871801,20.8190627 39.1871801,21.8183723 L39.1871801,32.3139273 Z" id="Fill-10" fill="#000000"></path>
                        <path d="M66.5458736,27.1627161 L73.5194775,19.9735189 C73.7116899,19.7435992 74.0196795,19.4351703 74.0196795,19.1671175 C74.0196795,18.8205556 73.5194775,18.5132483 72.7495035,18.5132483 L72.7495035,17.7057253 L78.3742478,17.7057253 L78.3742478,18.5132483 C76.7949581,18.7824226 76.1002954,19.4351703 75.5225339,20.0127735 L71.3624262,24.2410533 L76.3711914,32.3914271 C77.179383,33.7372986 77.7964863,34.505567 79.261123,34.6592207 L79.261123,35.4667436 L72.7495035,35.4667436 L72.7495035,34.6592207 L73.0181513,34.6592207 C73.4037004,34.6592207 74.2905755,34.7366083 74.2905755,33.7372986 C74.2905755,33.3526037 74.0196795,33.0060418 73.8285911,32.6987344 L69.6280177,25.9716198 L66.5458736,29.20059 L66.5458736,32.8142551 C66.5458736,34.4293009 67.8947331,34.6592207 68.4724946,34.6592207 L68.8580437,34.6592207 L68.8580437,35.4667436 L61.9215334,35.4667436 L61.9215334,34.6592207 L62.3070824,34.6592207 C62.7308491,34.6592207 64.2337035,34.4293009 64.2337035,32.8142551 L64.2337035,29.20059 L61.1133417,25.9716198 L56.9127683,32.6987344 C56.7205558,33.0060418 56.4507839,33.3526037 56.4507839,33.7372986 C56.4507839,34.7366083 57.337659,34.6592207 57.722084,34.6592207 L57.9918559,34.6592207 L57.9918559,35.4667436 L51.4802364,35.4667436 L51.4802364,34.6592207 C52.9437491,34.505567 53.5608523,33.7372986 54.370168,32.3914271 L59.3789332,24.2410533 L55.2177014,20.0127735 C54.6399399,19.4351703 53.9464013,18.7824226 52.3659875,18.5132483 L52.3659875,17.7057253 L57.9918559,17.7057253 L57.9918559,18.5132483 C57.2218819,18.5132483 56.7205558,18.8205556 56.7205558,19.1671175 C56.7205558,19.4351703 57.0285454,19.7435992 57.2218819,19.9735189 L64.2337035,27.1627161 L66.5458736,27.1627161 Z" id="Fill-12" fill="#000000"></path>
                        <path d="M105.002309,32.3143759 C105.002309,33.9294218 105.541853,34.6595571 106.967148,34.6595571 L107.352697,34.6595571 L107.352697,35.4670801 L100.377969,35.4670801 L100.377969,34.6595571 L100.763518,34.6595571 C101.341279,34.6595571 102.690139,34.4285158 102.690139,32.8145915 L102.690139,23.6256535 L94.2518984,31.6223737 L94.2518984,32.3143759 C94.2518984,33.8901672 94.7914422,34.6595571 96.1785195,34.6595571 L96.5640685,34.6595571 L96.5640685,35.4670801 L89.6286823,35.4670801 L89.6286823,34.6595571 L89.9748896,34.6595571 C90.2840032,34.6595571 91.9397283,34.5440365 91.9397283,32.8145915 L91.9397283,20.3585503 C91.9397283,18.6279838 90.2840032,18.5124632 89.9748896,18.5124632 L89.6286823,18.5124632 L89.6286823,17.7060618 L96.5640685,17.7060618 L96.5640685,18.5124632 L96.1785195,18.5124632 C94.7914422,18.5124632 94.2518984,19.2818531 94.2518984,20.8576444 L94.2518984,29.6618874 L102.690139,21.6270343 L102.690139,20.3585503 C102.690139,18.7435045 101.341279,18.5124632 100.763518,18.5124632 L100.377969,18.5124632 L100.377969,17.7060618 L107.352697,17.7060618 L107.352697,18.5124632 L106.967148,18.5124632 C105.541853,18.5124632 105.002309,19.2437201 105.002309,20.8576444 L105.002309,32.3143759 Z" id="Fill-14" fill="#000000"></path>
                        <path d="M125.463609,17.7056132 L125.463609,18.5131361 L125.07806,18.5131361 C124.808288,18.5131361 123.151439,18.6286568 123.151439,20.3581017 L123.151439,25.6630787 L131.58968,25.6630787 L131.58968,20.8583173 C131.58968,19.2432714 131.050136,18.5131361 129.624841,18.5131361 L129.278634,18.5131361 L129.278634,17.7056132 L136.212896,17.7056132 L136.212896,18.5131361 L135.828471,18.5131361 C135.558699,18.5131361 133.90185,18.6286568 133.90185,20.3581017 L133.90185,32.8141429 C133.90185,34.5447094 135.558699,34.6591085 135.828471,34.6591085 L136.212896,34.6591085 L136.212896,35.4666314 L129.278634,35.4666314 L129.278634,34.6591085 L129.624841,34.6591085 C131.050136,34.6591085 131.58968,33.9289732 131.58968,32.3139273 L131.58968,27.0470833 L123.151439,27.0470833 L123.151439,32.8141429 C123.151439,34.5447094 124.808288,34.6591085 125.07806,34.6591085 L125.463609,34.6591085 L125.463609,35.4666314 L118.528223,35.4666314 L118.528223,34.6591085 L118.875554,34.6591085 C120.300849,34.6591085 120.840393,33.9289732 120.840393,32.3139273 L120.840393,20.8583173 C120.840393,19.2432714 120.300849,18.5131361 118.875554,18.5131361 L118.528223,18.5131361 L118.528223,17.7056132 L125.463609,17.7056132 Z" id="Fill-16" fill="#000000"></path>
                        <path d="M67.0316878,20.7914723 C67.0316878,21.706665 66.287567,22.4491375 65.3703425,22.4491375 C64.453118,22.4491375 63.7089971,21.706665 63.7089971,20.7914723 C63.7089971,19.8762797 64.453118,19.1338072 65.3703425,19.1338072 C66.287567,19.1338072 67.0316878,19.8762797 67.0316878,20.7914723" id="Fill-18" fill="#333333"></path>
                    </g>
                </g>
            </g>
        </g>
    </g>
</svg>