
<svg width="116px" height="60px" viewBox="0 0 116 60" version="1.1" xmlns="http://www.w3.org/2000/svg" xmlns:xlink="http://www.w3.org/1999/xlink">
    <!-- Generator: Sketch 43.1 (39012) - http://www.bohemiancoding.com/sketch -->
    <desc>Created with Sketch.</desc>
    <defs>
        <polygon id="path-1" points="0.179515277 4.6316212 4.31648377 4.6316212 4.31648377 0.107087758 0.179515277 0.107087758"></polygon>
        <polygon id="path-3" points="0.0302635009 0.699374802 10.6086413 0.699374802 10.6086413 11.1153825 0.0302635009 11.1153825 0.0302635009 0.699374802"></polygon>
        <polygon id="path-5" points="0 60.2837921 114.848548 60.2837921 114.848548 0.772091255 0 0.772091255"></polygon>
    </defs>
    <g id="Page-1" stroke="none" stroke-width="1" fill="none" fill-rule="evenodd" opacity="0.7">
        <g id="FABRIKA-MAIN" transform="translate(-60.000000, -1425.000000)">
            <g id="Bitmap" transform="translate(60.000000, 1424.000000)">
                <g id="Page-1" transform="translate(0.891429, 0.316827)">
                    <path d="M25.2338014,48.5136075 L25.4513382,48.1299549 C25.5414606,48.190166 25.6541136,48.3028688 25.7916279,48.4665194 C25.9291422,48.6309419 26.016157,48.7235744 26.0518951,48.7436447 C26.0845257,48.7621712 26.1412406,48.7544518 26.2212631,48.7220305 C26.3020624,48.6896091 26.3766465,48.6919249 26.4450152,48.7305218 C26.5491221,48.7884171 26.5654373,48.8833653 26.4916302,49.0122787 L25.8965117,50.060569 C25.7799742,50.2651323 25.6642135,50.3346066 25.5484529,50.2697639 C25.4653227,50.2234477 25.4420152,50.0767797 25.4761996,49.8313038 C25.5352453,49.4607741 25.5632143,49.2276491 25.5608835,49.131157 C25.5492298,48.850172 25.4404614,48.6432929 25.2338014,48.5136075 Z M23.1710865,52.1417108 L23.3878464,51.7596021 C23.662875,51.8715329 23.9091578,51.8939191 24.1274715,51.8275325 C24.2432321,51.7927953 24.3877387,51.7086542 24.5640989,51.5758811 C24.694621,51.478617 24.7909587,51.4477396 24.8523351,51.4824767 C24.9712034,51.5488633 24.9921802,51.649987 24.9144885,51.7866199 C24.7622127,52.0552539 24.4980609,52.2196764 24.1212561,52.2775717 C23.7794126,52.3269757 23.4632073,52.2814314 23.1710865,52.1417108 Z M23.2254707,51.6685135 L23.0087108,52.0506223 C22.4671996,51.7047945 22.1587635,51.2570712 22.0802949,50.7074521 C22.0064878,50.2018335 22.1307945,49.6637935 22.4547689,49.0941041 C22.7810741,48.520555 23.1804095,48.1353585 23.6551059,47.9377426 C24.1608789,47.72546 24.7054978,47.7586533 25.2889625,48.0396383 L25.0722027,48.4209751 C24.8375737,48.3129039 24.6347983,48.4117119 24.4615458,48.7166269 L23.1656481,50.9969284 C22.9916187,51.3010716 23.0125954,51.5249333 23.2254707,51.6685135 Z" id="Fill-1" fill="#010202"></path>
                    <path d="M27.4613782,54.1930558 L29.3151024,50.1457908 L30.7399683,50.7903581 C30.902344,50.8636921 30.958282,50.9570965 30.9070055,51.0690273 C30.8728212,51.1439052 30.790468,51.1840459 30.6607228,51.1879056 C30.5309776,51.1933092 30.4377476,51.2573799 30.3810326,51.3808898 L29.0991194,54.1799329 C29.0307507,54.3304606 29.0323045,54.4308124 29.1061117,54.4817602 C29.1791419,54.5327081 29.2521721,54.5797962 29.3252023,54.6222527 C29.3920172,54.6971306 29.3819172,54.8299038 29.2941256,55.0213441 L28.9647128,55.7407893 C28.9095516,55.8604395 28.8202062,55.8928608 28.6958994,55.8365094 C28.597231,55.7917371 28.559162,55.6527885 28.5793619,55.4181197 C28.6011155,55.1332749 28.5801388,54.9341152 28.5187623,54.8198686 C28.437963,54.6701128 28.2460644,54.5273045 27.9438437,54.3906717 C27.8801365,54.36211 27.7923448,54.325057 27.6796919,54.2810566 C27.5685927,54.2378282 27.4955625,54.2084946 27.4613782,54.1930558 L27.4613782,54.1930558 Z M27.4450629,53.7646309 L27.2857949,54.1127744 L26.403994,53.714455 C26.2416183,53.641121 26.0877887,53.6218226 25.9456129,53.6565597 C25.8368445,53.6843494 25.6767996,53.799368 25.4654781,54.0023874 C25.2922256,54.1729855 25.1578189,54.2370562 25.063812,54.1938278 C24.9395052,54.1382483 24.904544,54.0494756 24.9589282,53.9298254 L25.2836795,53.2211873 C25.3714711,53.0305189 25.4926702,52.9456059 25.6472767,52.9649043 C25.9044363,52.9996414 26.0497198,53.0112205 26.0823503,52.9988695 C26.2734719,52.9409742 26.4537167,52.72406 26.6261923,52.3488987 L27.4466167,50.5564613 C27.5724773,50.2831956 27.6276384,50.0886675 27.6121001,49.972877 C27.5996694,49.8810165 27.5336314,49.7906999 27.41554,49.7011552 C27.3199792,49.630909 27.2912333,49.5537153 27.3293022,49.47189 C27.3860172,49.3483801 27.4839088,49.3182745 27.6237538,49.3808014 L29.1395191,50.0662813 L28.9802511,50.4144249 C28.9118824,50.3835474 28.8256446,50.3449506 28.7199839,50.2970905 C28.6135462,50.2500023 28.5451775,50.2183529 28.5109932,50.2029142 C28.3447329,50.1272644 28.2204262,50.1118256 28.1357422,50.155826 C28.0370737,50.2013703 27.9321899,50.3464944 27.8210908,50.5896545 L26.9175362,52.5627252 C26.7629297,52.8992897 26.5842387,53.1409059 26.3814634,53.2837142 L27.4450629,53.7646309 Z" id="Fill-3" fill="#010202"></path>
                    <path d="M33.3641612,52.2141957 L33.5055602,51.831315 L34.7835888,52.2952491 L34.3741535,53.409154 C34.331423,53.5249445 34.2545082,53.5627694 34.1410784,53.5210848 C34.0664943,53.4948389 34.0198793,53.3898555 33.9981256,53.2069065 C33.9693797,52.9506235 33.9313107,52.7707622 33.8862495,52.6665507 C33.7914657,52.4565839 33.6174362,52.3060562 33.3641612,52.2141957 L33.3641612,52.2141957 Z M32.6905741,54.0475457 L32.8311961,53.6646651 C32.981918,53.6754722 33.1085555,53.6361034 33.2126624,53.5465587 C33.281808,53.4662773 33.3509537,53.3875397 33.4216531,53.310346 C33.4915757,53.2323804 33.5661597,53.2076784 33.6438514,53.2362401 C33.7526198,53.2756089 33.769712,53.396031 33.6966818,53.5967346 L33.2973464,54.6813059 C33.2289777,54.8681146 33.141186,54.9399048 33.0316407,54.900536 C32.9694874,54.8781498 32.9275338,54.7577277 32.9065571,54.5400415 C32.8832496,54.3030568 32.8109963,54.1394062 32.6905741,54.0475457 L32.6905741,54.0475457 Z M33.2888003,56.4868662 L31.969595,56.0074934 L32.110994,55.6253847 C32.3945687,55.7280523 32.6408514,55.7234207 32.850619,55.6107179 C32.9586105,55.5574543 33.0969018,55.437804 33.2678235,55.2494514 C33.3952379,55.1074151 33.497791,55.0502917 33.5747058,55.0780815 C33.7114432,55.1274854 33.7293123,55.2895922 33.6283131,55.5644017 L33.2888003,56.4868662 Z M31.7652658,55.9333875 L30.2836849,55.3961194 C30.1228631,55.3374522 30.0645943,55.2509953 30.1073247,55.1344329 C30.1360707,55.0572392 30.2137624,55.0116949 30.3427306,54.9962562 C30.4716989,54.9823613 30.5602674,54.9105712 30.6068824,54.7832016 L31.6689281,51.8946138 C31.717097,51.7633846 31.6968971,51.6506818 31.6075517,51.5565055 C31.5189831,51.4631011 31.4886834,51.3781881 31.5166524,51.3002224 C31.5586059,51.1882916 31.6588282,51.1612738 31.8188731,51.2191691 L33.301231,51.7572091 L31.7652658,55.9333875 Z" id="Fill-5" fill="#010202"></path>
                    <path d="M37.8610351,53.2168645 L39.3775773,53.6476053 C39.5415068,53.6939215 39.6075448,53.7749748 39.5741374,53.8892215 C39.5508298,53.9725907 39.474692,54.0250824 39.3480545,54.0466966 C39.221417,54.0690828 39.1413945,54.1346974 39.1095409,54.2458563 L38.2347323,57.2857437 C38.2028787,57.3969026 38.2378399,57.4933947 38.3396161,57.57522 C38.4406153,57.6578173 38.4802381,57.7380987 38.4577075,57.8176082 C38.4235231,57.9364865 38.3163086,57.9704517 38.1368407,57.9195039 L36.5480452,57.4679208 C36.3802311,57.4200607 36.3134163,57.3374635 36.3476006,57.2185852 C36.3693543,57.1437073 36.4439383,57.0927595 36.5721297,57.0665136 C36.700321,57.0410397 36.7826742,56.963846 36.8207431,56.8326168 L37.8610351,53.2168645 Z M37.6761289,53.1643728 L37.5696912,53.5318147 L37.3304008,53.4638843 L37.1392792,53.4098487 C36.9644728,53.3604447 36.8393891,53.3612167 36.7640282,53.4121645 C36.6739058,53.4723756 36.5907757,53.6306226 36.5177455,53.8884496 L35.82862,56.2814538 C35.7408284,56.585597 35.6235139,56.7994235 35.4774535,56.9198456 C35.3065317,57.0634259 35.0734566,57.0935314 34.7782281,57.0101622 C34.5591374,56.9484073 34.3936541,56.8434239 34.2810011,56.6959839 C34.1551405,56.5315614 34.1232869,56.3432088 34.1854403,56.1286103 C34.2297246,55.974223 34.3136316,55.8568886 34.4356076,55.7758352 C34.5575836,55.6955538 34.6950979,55.6770273 34.8458199,55.7194838 C34.9693497,55.754221 35.0680181,55.8221514 35.1433791,55.9232751 C35.2179631,56.0243989 35.2366092,56.1363297 35.200871,56.2598396 C35.1868865,56.3123313 35.1488175,56.3748582 35.0889949,56.4481922 C35.0283954,56.5215262 34.994211,56.5771057 34.9833342,56.6118428 C34.9732343,56.6481239 34.9996494,56.6743697 35.0633566,56.6936681 C35.1907711,56.7299492 35.2925472,56.6743697 35.369462,56.5292456 C35.3982079,56.4736661 35.4417153,56.3462965 35.4984302,56.1479088 L36.1386099,53.9239586 C36.2256246,53.6221313 36.2535937,53.4121645 36.2232939,53.2917424 C36.2007633,53.2037416 36.109864,53.1311795 35.9498191,53.0725123 C35.8130817,53.0254241 35.7602513,52.9474585 35.7905511,52.8409312 C35.82862,52.7104739 35.9327269,52.6687893 36.1036487,52.7181933 L37.6761289,53.1643728 Z" id="Fill-7" fill="#010202"></path>
                    <path d="M41.5756312,57.5492058 L40.6697459,57.3593093 L40.8795135,56.9424634 L41.5663082,57.0860436 L41.4800704,54.4992832 L41.6657536,54.159631 L42.9678667,54.4321247 L43.1007195,58.2979845 C43.1077117,58.4415648 43.1589883,58.5581272 43.255326,58.6453561 C43.34001,58.7225498 43.3757481,58.7927961 43.3625405,58.8568668 C43.3353484,58.9857803 43.208711,59.0266929 42.9810742,58.9796048 L41.5461084,58.6785494 C41.3231331,58.6314612 41.2260185,58.5396008 41.2547644,58.4029679 C41.2703028,58.3311778 41.3262408,58.2779142 41.4218016,58.2454928 C41.5181393,58.2130715 41.5725235,58.1628956 41.587285,58.0941932 C41.6020464,58.0254908 41.6067079,57.9336303 41.6012695,57.8193837 C41.5911695,57.7282951 41.5826235,57.6387504 41.5756312,57.5492058 L41.5756312,57.5492058 Z M41.315364,54.8250406 L41.3402253,55.6062407 L40.3729635,57.4990299 C40.3364484,57.57082 40.3131409,57.6310311 40.303041,57.6796631 C40.2797335,57.7892781 40.3294562,57.8973493 40.4498783,58.0077363 C40.5703005,58.1165794 40.6231308,58.2076679 40.6075925,58.28023 C40.5804004,58.4091434 40.4654167,58.4523719 40.2626413,58.4099154 L39.5020395,58.2501244 C39.3078102,58.2092118 39.2239031,58.1273865 39.2503183,58.0023327 C39.2697412,57.9097003 39.3163563,57.8618402 39.3886096,57.8602963 C39.5595313,57.8502611 39.6985995,57.7931378 39.805814,57.6896983 C39.8749597,57.6240836 39.956536,57.4959421 40.0520968,57.3060456 L41.315364,54.8250406 Z" id="Fill-9" fill="#010202"></path>
                    <path d="M46.4382,57.3788393 L46.4918073,56.9998183 L46.990588,57.0700645 L47.1778251,55.7546841 C47.1848173,55.7060521 47.1568483,55.6149636 47.0946949,55.4814185 C47.0317647,55.3478734 47.0037956,55.2591007 47.010011,55.2135564 C47.0201109,55.1440821 47.0923642,55.1193801 47.2283247,55.1386785 L48.8163432,55.3617683 C48.9833804,55.3849264 49.0595183,55.4559446 49.043203,55.5740509 C49.0315493,55.6558762 48.9655113,55.719947 48.846643,55.7647193 C48.7262209,55.8102636 48.6578522,55.8944047 48.64076,56.0163707 L48.1971403,59.1349957 C48.1831558,59.2330316 48.2274401,59.3171728 48.3307701,59.388191 C48.4333231,59.4584372 48.4791612,59.534859 48.4675075,59.6159123 C48.4504153,59.7386503 48.3571852,59.7872823 48.1893711,59.7641242 L46.6013526,59.5410345 C46.4700536,59.522508 46.4117848,59.4599811 46.4265462,59.3542257 C46.4366462,59.2886111 46.4855919,59.2260842 46.5733836,59.1643293 C46.6611752,59.1041182 46.7124517,59.0269245 46.7256593,58.9327482 L46.9369808,57.4490855 L46.4382,57.3788393 Z M44.3817004,59.2284 C44.2123325,59.2052419 44.1361946,59.1319079 44.1540637,59.0099419 C44.1649405,58.9288885 44.2325323,58.8663616 44.3552852,58.8231332 C44.479592,58.7799047 44.5495145,58.6973075 44.5673836,58.5753414 L45.0032341,55.5053485 C45.0218801,55.3795228 44.9775958,55.2783991 44.8703813,55.2035212 C44.7647205,55.1278714 44.7173286,55.0491338 44.7289824,54.9680805 C44.7452976,54.8499741 44.8385277,54.802886 45.0078956,54.8260441 L46.6052372,55.0506777 C46.7411977,55.0699761 46.8025741,55.1309591 46.7878127,55.2328548 C46.7777128,55.3054169 46.7272131,55.3710315 46.6370908,55.4296987 C46.5477453,55.487594 46.4956919,55.5632438 46.4824843,55.6574201 L46.0310954,58.8308525 C46.0147802,58.9404676 46.0419723,59.0369597 46.1118948,59.1195569 C46.1818173,59.2021542 46.212894,59.2700846 46.2051249,59.3233483 C46.1903634,59.4291036 46.1150025,59.4723321 45.9782651,59.4538056 L44.3817004,59.2284 Z" id="Fill-11" fill="#010202"></path>
                    <path d="M51.4100033,60.1265486 L51.4387492,59.7452118 C51.6415246,59.7645102 51.7572853,59.5777015 51.787585,59.1847856 L51.9926911,56.5208315 C52.0229909,56.1279156 51.9367531,55.9264401 51.7339777,55.914861 L51.7627237,55.5335242 C52.387365,55.6307883 52.8480769,55.9086855 53.1448592,56.3695318 C53.4198879,56.7948691 53.5317639,57.3298213 53.4820412,57.9743886 C53.4330955,58.6189559 53.2396431,59.13075 52.903238,59.5089991 C52.5396408,59.9188976 52.04086,60.1250047 51.4100033,60.1265486 M51.2530661,59.730545 L51.2243201,60.1126537 C50.5996788,60.0153897 50.1389669,59.7374924 49.8414077,59.2766461 C49.5671559,58.8520808 49.454503,58.3163566 49.5042256,57.6717893 C49.5531714,57.0272221 49.7466238,56.5154279 50.0838058,56.1364069 C50.447403,55.7265084 50.9454069,55.5204013 51.5770405,55.5188574 L51.5482946,55.9009662 C51.3416346,55.8808958 51.2235432,56.0677045 51.1932434,56.4606204 L50.9881373,59.1238026 C50.9578376,59.5174904 51.0464061,59.7197378 51.2530661,59.730545" id="Fill-13" fill="#010202"></path>
                    <g id="Group-17" transform="translate(58.268783, 55.652171)">
                        <mask id="mask-2" fill="white">
                            <use xlink:href="#path-1"></use>
                        </mask>
                        <g id="Clip-16"></g>
                        <path d="M2.61067455,4.55504507 L2.37293791,4.56430831 L2.35895341,4.18219956 C2.54541351,4.17448019 2.67282792,4.11890074 2.74197354,4.01391732 C2.79791157,3.9297762 2.821996,3.79391532 2.81578066,3.60633466 L2.79091932,2.96253931 C2.78392706,2.77418671 2.74896579,2.64141357 2.68681243,2.56190408 C2.60989763,2.4661839 2.47859864,2.4221835 2.29213854,2.42913093 L2.27660019,2.04625025 C2.59591312,2.03389926 2.74818888,1.82470437 2.73187362,1.41789364 C2.73031978,1.37698098 2.72565828,1.31291022 2.71866603,1.22645329 C2.71089686,1.13999637 2.70701227,1.07824142 2.70545844,1.04118845 C2.69768926,0.852063914 2.66350491,0.717746899 2.60290538,0.637465465 C2.52909825,0.537885609 2.40013001,0.49079746 2.21833141,0.497744892 L2.2043469,0.121039701 L2.47082947,0.111004522 C2.96805642,0.0924780367 3.34253046,0.139566186 3.59658236,0.254584779 C3.95396422,0.413603774 4.14197816,0.713115278 4.15907034,1.15389123 C4.18082402,1.74982649 3.82732674,2.10105777 3.09780157,2.20681312 L3.09857849,2.2253396 C3.45596036,2.24155028 3.7395351,2.33572657 3.95241039,2.50941237 C4.18082402,2.69390528 4.30202309,2.95713575 4.31523068,3.29833185 C4.33309977,3.76380978 4.15984726,4.09728651 3.79625005,4.30107784 C3.52665982,4.45083359 3.13120901,4.53574665 2.61067455,4.55504507 L2.61067455,4.55504507 Z M2.17404714,4.57125574 L0.597682329,4.63146682 C0.426760566,4.63687038 0.33974585,4.57897511 0.335084348,4.45546521 C0.331976679,4.3736399 0.387137794,4.30107784 0.500567691,4.23932289 C0.614774505,4.17756794 0.669158703,4.07876002 0.663720283,3.94289913 L0.547182717,0.869818462 C0.541744298,0.729325952 0.479590929,0.632833844 0.361499529,0.580342137 C0.243408129,0.526306556 0.182808595,0.458376112 0.179700926,0.376550804 C0.175039424,0.257672526 0.258169554,0.194373703 0.4283144,0.188198208 L2.00545612,0.128759069 L2.17404714,4.57125574 Z" id="Fill-15" fill="#010202" mask="url(#mask-2)"></path>
                    </g>
                    <path d="M65.325521,58.1936959 L65.2882289,57.813131 C65.5523808,57.7876571 65.6658107,57.593129 65.6308494,57.2295467 L65.5461654,56.3649774 C65.5096503,55.9929038 65.3597053,55.81999 65.0955535,55.8454639 L65.0574846,55.4641271 L65.1880066,55.4517761 C66.3261902,55.3421611 66.9399547,55.7412524 67.0285233,56.651366 C67.0805767,57.1716514 66.9306317,57.5583918 66.581019,57.8115871 C66.3052134,58.0122907 65.8864551,58.1396603 65.325521,58.1936959 L65.325521,58.1936959 Z M64.8601476,55.4834255 L65.2268525,59.2265474 C65.2385062,59.340794 65.315421,59.4318826 65.4599276,59.4959533 C65.6028804,59.560796 65.6782413,59.6256387 65.6844567,59.6904814 C65.6968873,59.8101317 65.6005496,59.879606 65.3977743,59.8989044 L63.7235179,60.0610111 C63.55415,60.0772218 63.4632507,60.0239582 63.45082,59.9012202 C63.4430508,59.818623 63.4943273,59.744517 63.6038727,59.6758146 C63.713418,59.6071123 63.7615868,59.5044447 63.7491562,59.3693557 L63.4484892,56.309398 C63.4345047,56.1696774 63.3669129,56.077045 63.2464908,56.0307287 C63.1252917,55.9844125 63.0608076,55.9203418 63.0522615,55.8385165 C63.0413847,55.7196382 63.1198533,55.6517077 63.2899981,55.6354971 L64.8601476,55.4834255 Z" id="Fill-18" fill="#010202"></path>
                    <path d="M70.464983,56.727479 L70.1992773,56.4001777 C70.2474462,56.2465623 70.2940612,56.0960346 70.343007,55.9462789 C70.4043835,55.724733 70.4269141,55.5603104 70.4105988,55.455327 C70.3919528,55.3410804 70.3119303,55.2607989 70.1682007,55.2144827 C70.024471,55.1673946 69.9467793,55.1056396 69.9343486,55.0284459 C69.9141488,54.8987605 70.005825,54.8169352 70.2109311,54.7852858 L71.0220326,54.660232 C71.1813006,54.6355301 71.270646,54.684934 71.290069,54.8069 C71.2970612,54.8509004 71.2512231,54.9358135 71.1533316,55.0593234 C71.0826321,55.1403768 71.0134865,55.2222021 70.9458947,55.3032554 C70.8526646,55.4298531 70.7547731,55.6730132 70.6514431,56.03042 C70.5916205,56.2643168 70.5294671,56.4966698 70.464983,56.727479 L70.464983,56.727479 Z M69.565313,58.4913547 L69.8302417,58.8194279 C69.6709737,59.2486248 69.4068219,59.491013 69.0385632,59.5481363 C68.8132572,59.5828734 68.6174741,59.5473643 68.4519908,59.4423809 C68.2865074,59.3366256 68.1862851,59.1714311 68.1513239,58.9475694 C68.1295702,58.8047611 68.1668622,58.6750757 68.2639768,58.5585132 C68.3610915,58.4419507 68.4807367,58.3717045 68.6244664,58.3500903 C68.7511039,58.3300199 68.862203,58.3500903 68.9577638,58.4079855 C69.0525477,58.4658808 69.1100396,58.5577413 69.1294625,58.6843389 C69.1364547,58.7291113 69.1325702,58.7823749 69.1170318,58.8449018 C69.1014935,58.9082006 69.0960551,58.9560607 69.1014935,58.988482 C69.1123703,59.0540967 69.1481085,59.0811145 69.209485,59.0718512 C69.2786306,59.0610441 69.3524377,58.9722714 69.4316832,58.805533 C69.4775214,58.6990057 69.5218056,58.5940223 69.565313,58.4913547 L69.565313,58.4913547 Z M69.050217,54.9651471 C69.2871767,54.9288661 69.4176987,54.9813578 69.4402293,55.1241661 C69.4503293,55.1890088 69.4239141,55.2499918 69.3617607,55.3078871 C69.2996073,55.3650104 69.2724152,55.4167302 69.2794075,55.4607306 C69.2871767,55.5139942 69.3151457,55.5703456 69.3617607,55.6297847 L70.3973912,56.9382177 L69.8986104,58.6148646 L67.6206895,55.7170136 C67.5841744,55.6730132 67.5041519,55.6336444 67.381399,55.5981353 C67.2772921,55.5726614 67.2190233,55.5232575 67.2081465,55.4499234 C67.1871697,55.3202381 67.2982689,55.2360969 67.5391132,55.199044 L69.050217,54.9651471 Z" id="Fill-20" fill="#010202"></path>
                    <path d="M74.7684045,58.4153189 C74.5702907,58.4593193 74.4584146,58.4230383 74.4319994,58.3057039 C74.4164611,58.2339138 74.4661838,58.145913 74.5834983,58.0424734 C74.7000358,57.9382619 74.7466509,57.8317347 74.7217895,57.7236635 L74.033441,54.6552144 C74.0225641,54.6065824 73.9658492,54.5317045 73.8617423,54.4274931 C73.7576354,54.3240535 73.7009204,54.2522634 73.6923743,54.2121227 C73.6760591,54.1395606 73.7389894,54.0886128 73.8796114,54.0569634 L75.4272302,53.7142234 C75.5934905,53.6771704 75.6890513,53.7173112 75.7154665,53.8331017 C75.7333356,53.9141551 75.6937128,53.9944365 75.5965982,54.0747179 C75.5002605,54.1549994 75.4676299,54.2638425 75.4979297,54.4004753 L76.1722937,57.4025378 C76.2010397,57.5306793 76.2764006,57.6140485 76.3999305,57.6526453 C76.5226834,57.6912421 76.5926059,57.7460497 76.6089212,57.8186117 C76.6353363,57.9390339 76.5661907,58.0169995 76.4007074,58.0540525 L74.7684045,58.4153189 Z M74.2222318,56.4044234 L74.304585,56.7718653 L74.1771706,56.7996551 C73.0607407,57.0474468 72.4197841,56.7988831 72.252747,56.0555079 L72.0523023,55.1631489 C72.0220026,55.0265161 71.9458647,54.942375 71.8238887,54.9107255 C71.7019127,54.8783042 71.6319902,54.8227247 71.6141211,54.7416714 C71.5877059,54.6258808 71.661513,54.5479152 71.8363194,54.5093184 L72.9947028,54.2522634 C73.2254472,54.2013156 73.3885998,54.3888962 73.4841606,54.8150054 C73.5059142,54.9153572 73.5346602,55.07592 73.5688445,55.295922 C73.6038058,55.5159241 73.6325517,55.6780308 73.6558592,55.7830142 C73.7622969,56.2569834 73.9510877,56.4646345 74.2222318,56.4044234 L74.2222318,56.4044234 Z" id="Fill-22" fill="#010202"></path>
                    <path d="M78.8281849,55.1783561 L78.7170857,54.811686 L79.2003282,54.6688777 L78.8165311,53.3959538 C78.8025466,53.3488657 78.7388394,53.2778475 78.6254095,53.1821273 C78.5127565,53.0871791 78.4498262,53.0177048 78.4366187,52.9752482 C78.4164188,52.9080897 78.4715799,52.8540542 78.6028789,52.8154573 L80.138844,52.3584707 C80.3012197,52.3098387 80.3998882,52.3430319 80.4348494,52.4580505 C80.4589339,52.5360162 80.4263034,52.6209292 80.336181,52.7127897 C80.2468355,52.8031063 80.2204203,52.9080897 80.2561585,53.0261961 L81.1651515,56.0436973 C81.1938975,56.1378736 81.2700353,56.1957689 81.3927882,56.218155 C81.5163181,56.2389973 81.5893483,56.2884013 81.6134327,56.3679108 C81.6491709,56.4860171 81.5854637,56.5701582 81.4223111,56.6180183 L79.886346,57.0750049 C79.7589316,57.1128298 79.6804629,57.0804085 79.6493863,56.9777409 C79.6299633,56.9144421 79.6486093,56.8364765 79.7022166,56.744616 C79.7566008,56.6535274 79.7705853,56.5624389 79.7433932,56.4713503 L79.3106504,55.0347758 L78.8281849,55.1783561 Z M77.7389471,57.7141687 C77.5750176,57.7628007 77.4747953,57.7280635 77.4390571,57.6091853 C77.4157496,57.5312196 77.4507108,57.4463066 77.5447178,57.35599 C77.6387248,57.2656733 77.6674707,57.1614619 77.6317325,57.0433555 L76.7375009,54.0729425 C76.7002089,53.9509764 76.6170788,53.8776424 76.4888875,53.8537124 C76.3606961,53.8297824 76.2853352,53.7780626 76.2604738,53.699325 C76.2262895,53.5850784 76.2907736,53.5032531 76.4547031,53.454621 L78.0007682,52.9945467 C78.1320671,52.9551779 78.2128665,52.9852834 78.2423894,53.0840913 C78.2633661,53.1551095 78.246274,53.235391 78.1887821,53.3257076 C78.1320671,53.4160242 78.1165288,53.5055689 78.1437209,53.5966574 L79.0698061,56.6674223 C79.1016597,56.7731776 79.1669207,56.8495994 79.2648123,56.8959156 C79.3627038,56.9414599 79.4201957,56.9908638 79.4349571,57.0418117 C79.4660338,57.1444793 79.4155342,57.2154975 79.2834583,57.2540943 L77.7389471,57.7141687 Z" id="Fill-24" fill="#010202"></path>
                    <path d="M84.440401,52.8489594 L84.1109881,52.584185 C84.1249726,52.425166 84.1389571,52.266919 84.1544955,52.1117597 C84.1669261,51.8817225 84.1544955,51.716528 84.1156496,51.6161762 C84.0736961,51.5096489 83.9773584,51.447894 83.8274134,51.4324552 C83.6774684,51.4177884 83.5881229,51.3730161 83.559377,51.2996821 C83.5127619,51.1769441 83.5850152,51.0789081 83.7776907,51.0040303 L84.5437309,50.7114662 C84.6944529,50.6535709 84.7923444,50.6821326 84.8374056,50.7979231 C84.8537209,50.8396077 84.8265288,50.9322401 84.7573831,51.0727326 C84.7053297,51.1676809 84.6548301,51.2618572 84.6074381,51.3552615 C84.542954,51.4996137 84.4986697,51.7566687 84.4738084,52.1279703 C84.4652623,52.3695866 84.4543855,52.6096589 84.440401,52.8489594 L84.440401,52.8489594 Z M83.9369587,54.7625909 L84.2655946,55.0265933 C84.2011105,55.4797202 83.9960044,55.7722843 83.6471686,55.9058294 C83.4350702,55.9868827 83.2361795,55.9938302 83.052827,55.9251278 C82.8686977,55.8564254 82.7350679,55.7167048 82.6527147,55.5051941 C82.6014382,55.3716491 82.6099843,55.2365601 82.6791299,55.1014711 C82.7490524,54.9671541 82.8516055,54.8737498 82.987566,54.82203 C83.1072112,54.7757138 83.2198642,54.7710822 83.324748,54.8081351 C83.4304087,54.8451881 83.5065466,54.9231537 83.5523847,55.042032 C83.5687,55.0844885 83.5764691,55.1377522 83.5749153,55.2025949 C83.5733615,55.2674376 83.5787999,55.3145257 83.5896767,55.3454032 C83.6145381,55.4063862 83.6549378,55.4264566 83.7124296,55.4048423 C83.7784676,55.3785965 83.8320749,55.2774728 83.8740284,55.0976115 C83.896559,54.9833648 83.9167588,54.871434 83.9369587,54.7625909 L83.9369587,54.7625909 Z M82.6822376,51.4239639 C82.9059897,51.3382789 83.0442809,51.3629809 83.0971113,51.4972979 C83.1211957,51.5582809 83.1079881,51.6238956 83.0598193,51.6933699 C83.0108735,51.7628442 82.9953351,51.8184237 83.0116504,51.8608802 C83.0310733,51.9110561 83.0691423,51.96046 83.1289649,52.0075482 L84.4194242,53.0689614 L84.289679,54.8127668 L81.4461624,52.4606751 C81.4003243,52.4243941 81.3148635,52.4027799 81.1866721,52.3942886 C81.0794576,52.3912008 81.0118658,52.3549198 80.9846737,52.2862174 C80.9372817,52.1627075 81.0266272,52.058496 81.2550408,51.9704952 L82.6822376,51.4239639 Z" id="Fill-26" fill="#010202"></path>
                    <path d="M91.2429318,52.5225073 L91.0673485,52.1820831 C91.249924,52.0933104 91.2514778,51.8740803 91.0704562,51.522849 L89.8475886,49.1437396 C89.6681208,48.7932803 89.487876,48.6659107 89.3091851,48.7608589 L89.1336018,48.4204348 C89.7170666,48.1795905 90.2554701,48.1795905 90.7457048,48.4204348 C91.2002013,48.6427526 91.5754523,49.0418439 91.8714577,49.6169369 C92.1666862,50.1928018 92.2723469,50.7292979 92.187663,51.2248814 C92.0959867,51.7621495 91.7805584,52.1936622 91.2429318,52.5225073 L91.2429318,52.5225073 Z M90.9018651,52.2662242 L91.0766715,52.6066484 C90.4932067,52.8474927 89.9540263,52.8482646 89.4583532,52.6097361 C89.0046336,52.3866464 88.6301595,51.988327 88.3341541,51.4124621 C88.0381487,50.8365971 87.932488,50.300873 88.0171719,49.8045176 C88.1127327,49.2664776 88.4297149,48.832649 88.9673416,48.5038039 L89.1429248,48.845 C89.019395,48.9036672 88.9696723,49.0063348 88.9953106,49.1553187 C89.0069643,49.2317404 89.0535794,49.3498467 89.1336018,49.5065499 L90.3564693,51.8856594 C90.4380456,52.0431345 90.5064143,52.1488898 90.5615755,52.2029254 C90.66879,52.3109966 90.781443,52.3318389 90.9018651,52.2662242 L90.9018651,52.2662242 Z M86.9287111,49.628516 C87.0802099,49.5520942 87.182763,49.566761 87.2379241,49.6732883 C87.2775469,49.74971 87.2596778,49.8400267 87.1843168,49.9426943 C87.1097328,50.0461338 87.1027405,50.1580646 87.1648939,50.2784868 L87.7390356,51.3947075 L88.0435871,51.2410921 L88.2183935,51.5815162 L87.9146189,51.7359036 L88.5773292,53.026582 C88.6363749,53.1408287 88.7296049,53.197952 88.8577962,53.197952 C88.9852106,53.197952 89.0683408,53.235005 89.1056328,53.308339 C89.1623477,53.417954 89.1157327,53.5121303 88.963457,53.5885521 L87.5471371,54.3079972 C87.3956383,54.384419 87.2915314,54.3682083 87.2355933,54.2578213 C87.1975244,54.1844873 87.2153935,54.0972585 87.2884237,53.9945909 C87.3622308,53.8926952 87.3676692,53.7815363 87.3055159,53.6611141 L85.8977421,50.9222821 C85.833258,50.7972284 85.7384741,50.7347015 85.6126135,50.7339295 C85.4867529,50.7331576 85.4043997,50.6961046 85.3671077,50.6227706 C85.3119466,50.5162433 85.3608924,50.4243829 85.5116143,50.3479611 L86.9287111,49.628516 Z" id="Fill-28" fill="#010202"></path>
                    <path d="M10.9109461,32.7159967 L10.1278137,32.3500987 C10.3818656,31.8136025 10.1348059,31.3705108 9.38585786,31.0208234 L7.60671769,30.1886754 C6.84145434,29.8304967 6.3310198,29.9200414 6.07696791,30.4557656 L5.29305855,30.0890956 L5.4181422,29.8250932 C6.51359532,27.5115984 7.99750699,26.7929252 9.87065413,27.6690735 C10.9420228,28.1692886 11.5223799,28.9018567 11.6117254,29.8652339 C11.6839787,30.6263636 11.4501266,31.575846 10.9109461,32.7159967 L10.9109461,32.7159967 Z M2.57229484,28.8169436 L1.80003924,28.4556772 L3.2653049,25.3632981 L5.20138233,26.2680081 C5.47174948,26.3953777 5.65277117,26.5003611 5.74755505,26.5852741 C5.92158448,26.7388896 5.96120726,26.9156631 5.86642337,27.1171386 C5.76697798,27.3271055 5.46631106,27.405843 4.96519953,27.3556671 C4.30792766,27.2846489 3.93811512,27.259947 3.8557619,27.2823331 C3.43700358,27.3834569 3.00892226,27.895251 2.57229484,28.8169436 L2.57229484,28.8169436 Z M1.60969455,28.8586282 L10.7206014,33.1181758 L9.20872076,36.3101348 C9.04556817,36.6551906 8.83657746,36.7678934 8.5840794,36.649787 C8.41548839,36.5710495 8.32769676,36.3865565 8.32070451,36.0963083 C8.31293533,35.806832 8.1707595,35.5960932 7.89262318,35.4664078 L1.59104854,32.5199248 C1.30436613,32.3856078 1.04642965,32.4087659 0.817239103,32.5878552 C0.588048557,32.7669446 0.389157778,32.8178924 0.219789849,32.7383829 C-0.024162122,32.6241362 -0.0653387286,32.394871 0.0978138636,32.0498152 L1.60969455,28.8586282 Z" id="Fill-30" fill="#221F20"></path>
                    <path d="M18.194544,23.2484998 L16.0339375,25.5396085 L15.3603504,24.9127957 C15.8257237,24.4195281 16.0331606,23.9077339 15.982661,23.3789572 C15.9678996,23.1103231 15.8389313,22.7181792 15.598087,22.2017534 C15.4139577,21.8150131 15.3859887,21.5533265 15.5134031,21.4182375 C15.7363783,21.1812529 16.0890986,21.2877802 16.5723411,21.7378194 L18.194544,23.2484998 Z M12.5844256,22.329123 L11.9108384,21.7015383 C12.0662219,21.4012549 12.0957447,21.106375 12.0001839,20.813811 C11.8953001,20.6007564 11.792747,20.3884737 11.6933017,20.1754192 C11.5938563,19.9615926 11.6070639,19.7879069 11.7352552,19.6528179 C11.9139461,19.4636934 12.1804287,19.5339396 12.533926,19.8627847 L14.4420344,21.6390115 C14.7683396,21.9439265 14.8429236,22.1901744 14.6642327,22.3792989 C14.5616796,22.4873701 14.2742203,22.4672997 13.8010778,22.3190878 C13.2883125,22.158525 12.8827617,22.1616127 12.5844256,22.329123 L12.5844256,22.329123 Z M9.36021959,19.3262886 L8.68663246,18.6987039 L10.7804241,16.4786135 L12.739809,18.3027003 C12.9441382,18.4925968 12.9534612,18.6863529 12.7693319,18.8824249 C12.6473559,19.0105664 12.3870886,19.01597 11.9877532,18.8970917 C11.4283729,18.7318972 11.0197145,18.6500719 10.762555,18.6516158 C10.2420205,18.6624229 9.77431641,18.8870565 9.36021959,19.3262886 L9.36021959,19.3262886 Z M15.6990863,25.8946994 L13.2719972,28.4691089 C13.0093992,28.7470061 12.7763241,28.7910065 12.5727718,28.6011101 C12.4360344,28.4745124 12.4096192,28.272265 12.4927494,27.9935958 C12.5766564,27.7156985 12.505957,27.4725384 12.2814279,27.2633435 L7.19961312,22.5313705 C6.96809183,22.316772 6.71559377,22.2596487 6.44134203,22.3600005 C6.16864412,22.4603523 5.96353801,22.4472294 5.8268006,22.3206317 C5.62946365,22.1376827 5.66209417,21.9061016 5.92469215,21.6274324 L8.35178119,19.0537949 L15.6990863,25.8946994 Z" id="Fill-32" fill="#221F20"></path>
                    <path d="M20.3113323,17.1212509 L19.8319745,16.4056655 C20.3284245,16.0768204 20.3478474,15.5704298 19.8886894,14.8857218 L18.7986747,13.2600227 C18.3294168,12.5606479 17.8461744,12.3753831 17.3497243,12.7034563 L16.8688126,11.9863269 L17.1143185,11.8249921 C19.255502,10.407716 20.9002355,10.554384 22.0469652,12.265768 C22.7034601,13.2453559 22.8199977,14.1701363 22.3958009,15.0408811 C22.0609497,15.7294488 21.3663858,16.4226481 20.3113323,17.1212509 L20.3113323,17.1212509 Z M16.4966694,12.2325748 L21.2187715,19.2757267 C21.3632781,19.4910971 21.6126685,19.5875892 21.9669427,19.5652031 C22.3212169,19.542045 22.5395306,19.5922209 22.6226607,19.7149588 C22.7726057,19.9388205 22.6560682,20.177349 22.273048,20.4305443 L19.1257568,22.5140019 C18.805667,22.7262845 18.5679304,22.7162494 18.4133239,22.4846683 C18.3099939,22.3302809 18.3301937,22.1272615 18.4754772,21.8756101 C18.6199838,21.6239587 18.6075531,21.3715353 18.4366314,21.1167962 L14.5753534,15.3581471 C14.400547,15.0956886 14.1674719,14.9822139 13.8776818,15.017723 C13.5886686,15.054004 13.3921086,14.9953368 13.2880017,14.8409494 C13.1388336,14.6178597 13.2227407,14.4001735 13.5420536,14.1886628 L16.4966694,12.2325748 Z" id="Fill-34" fill="#221F20"></path>
                    <path d="M33.4719196,14.7632154 L30.5747958,16.0168409 L30.2057601,15.1762016 C30.8304015,14.9067957 31.2235215,14.5185114 31.3890049,14.0128928 C31.481458,13.7604694 31.519527,13.349799 31.5047655,12.7808815 C31.4900041,12.3524566 31.5676958,12.1015771 31.7393945,12.0274711 C32.0377307,11.8977857 32.3205285,12.1347704 32.5839034,12.7376531 L33.4719196,14.7632154 Z M28.6868872,11.710977 L28.3186285,10.8711097 C28.5804496,10.6565113 28.7257331,10.3963685 28.754479,10.0906815 C28.7420483,9.85369692 28.7319484,9.61748424 28.72651,9.38281543 C28.7202946,9.14891856 28.8018709,8.99375925 28.9735696,8.92042525 C29.2128601,8.81621377 29.4296199,8.98603988 29.6230723,9.42681583 L30.6672489,11.809013 C30.8459398,12.2165957 30.8156401,12.4728787 30.5755727,12.5763183 C30.4396122,12.6357574 30.1832295,12.5037562 29.8079786,12.1810866 C29.400874,11.8321711 29.0271769,11.6754679 28.6868872,11.710977 L28.6868872,11.710977 Z M26.9217315,7.6860982 L26.5542497,6.84545895 L29.3612512,5.62965838 L30.4341738,8.07592631 C30.5452729,8.33066548 30.4776811,8.51129871 30.2290677,8.61936987 C30.066692,8.68884419 29.8258477,8.59158014 29.5065347,8.32603386 C29.0582536,7.95396029 28.7156331,7.71851954 28.4786734,7.61816775 C27.9969848,7.42286772 27.4780042,7.44525389 26.9217315,7.6860982 L26.9217315,7.6860982 Z M30.1257377,16.211369 L26.8712319,17.6193818 C26.5192885,17.7714534 26.2877672,17.7205055 26.1758911,17.4657664 C26.102084,17.2959403 26.158022,17.0998683 26.345259,16.8775505 C26.5317191,16.6552327 26.5643497,16.4035812 26.4415968,16.1233682 L23.6602335,9.77959098 C23.534373,9.49088659 23.3246053,9.33881503 23.0332614,9.32337629 C22.7419175,9.30793755 22.559342,9.21530513 22.4847579,9.04547902 C22.3767665,8.79923116 22.4987425,8.60007145 22.849909,8.44799988 L26.1051917,7.0392151 L30.1257377,16.211369 Z" id="Fill-36" fill="#221F20"></path>
                    <path d="M47.9381938,11.1255401 L44.4063287,11.9229509 C43.9790243,12.0202149 43.7296339,11.909828 43.6566037,11.5933338 C43.6239732,11.4489816 43.6822419,11.3077172 43.8321869,11.1695405 C43.9821319,11.0313638 44.0481699,10.9209768 44.0295239,10.8399235 C43.9658167,10.5604823 43.6457268,10.0170388 43.0684774,9.21190861 C42.4920049,8.40600652 42.1641459,7.82705387 42.0833465,7.47505066 C42.0243008,7.21336406 42.247276,6.54023511 42.7546029,5.45643575 C43.2619298,4.37263639 43.4817973,3.68175289 43.4142055,3.3845572 C43.3621521,3.15837969 43.1632613,3.01093975 42.8175332,2.94146543 C42.4718051,2.87276305 42.2814604,2.76160414 42.2464991,2.60721677 C42.1804612,2.31851238 42.3700289,2.12321235 42.8152024,2.02286056 L45.1886842,1.48713638 C45.5794735,1.39913557 45.8086641,1.50411899 45.8770328,1.80208662 C45.922094,2.00047439 45.8754789,2.14945821 45.7348569,2.24749419 C45.284245,2.57711123 44.9136555,2.96462354 44.6238655,3.41003111 C44.4039979,3.74427978 44.1662613,4.22596838 43.9083248,4.85432499 L47.458836,9.78082608 C47.5575045,9.91977472 47.7509568,10.0564075 48.03997,10.1907246 C48.2769297,10.308059 48.4097825,10.430025 48.4393054,10.5566226 C48.5045664,10.846099 48.3383061,11.0352235 47.9381938,11.1255401 L47.9381938,11.1255401 Z M39.5653582,13.0167854 C39.2654682,13.0847159 39.0883311,13.0013467 39.0347238,12.7659059 C39.0083086,12.6485715 39.0626928,12.4918684 39.1994302,12.2942525 C39.3361677,12.0974086 39.3757904,11.8766347 39.3206293,11.6327026 L37.739603,4.72309572 C37.6774496,4.45137395 37.5080817,4.27614428 37.2322761,4.19586284 C36.9549167,4.11558141 36.7964256,3.98589602 36.755249,3.80526279 C36.6954264,3.54280425 36.8477022,3.37143427 37.2105224,3.28883702 L40.6608113,2.50995272 C41.0244085,2.42735548 41.2365069,2.51767209 41.2963295,2.77935869 C41.3375061,2.95999192 41.2512683,3.1460287 41.0360623,3.33669711 C40.8224101,3.52736552 40.7454953,3.75894658 40.8076486,4.02989642 L42.388675,10.9395033 C42.444613,11.1834354 42.5774658,11.3656125 42.7856796,11.4844907 C42.9946703,11.603369 43.1127617,11.7214754 43.1391769,11.8388098 C43.1935611,12.0742505 43.0700313,12.2247782 42.7701413,12.2927086 L39.5653582,13.0167854 Z M37.9283939,13.3865432 L34.3965287,14.183954 C33.9971933,14.2742706 33.7641182,14.1746907 33.6980802,13.8859863 C33.6693343,13.7593887 33.7361492,13.5918784 33.8985248,13.3842274 C34.1005233,13.1395234 34.2162839,12.9326443 34.2442529,12.765134 L35.302414,6.79806202 C34.7974179,6.34184733 34.3724443,6.01068642 34.0290469,5.8030354 C33.5729966,5.52591007 33.0703312,5.33524166 32.5210508,5.23180212 C32.3516829,5.20324045 32.2452452,5.08976574 32.1994071,4.89060602 C32.1310384,4.59263839 32.2918603,4.39965418 32.6834265,4.31165337 L35.0561313,3.77592919 C35.5013048,3.67480546 35.7569105,3.76898176 35.8237254,4.05845808 C35.8586867,4.21207352 35.7359338,4.39425062 35.4539129,4.60498938 C35.171892,4.81572815 35.0576852,5.03418628 35.1089617,5.25959185 C35.1773304,5.55833141 35.6761112,6.08865204 36.6060809,6.8520976 C37.5360507,7.6163151 38.03017,8.12424956 38.0876619,8.37744485 C38.1669074,8.72095676 38.1218462,9.38173472 37.9532552,10.3597787 C37.7854411,11.3378227 37.7333877,11.9677232 37.7970949,12.2471644 C37.8165178,12.3289897 37.9229554,12.3992359 38.1179616,12.4602189 C38.3137447,12.52043 38.4287285,12.6223257 38.461359,12.7666779 C38.5343892,13.0839439 38.3564752,13.2900511 37.9283939,13.3865432 L37.9283939,13.3865432 Z" id="Fill-38" fill="#221F20"></path>
                    <g id="Group-42" transform="translate(48.168861, 0.072716)">
                        <mask id="mask-4" fill="white">
                            <use xlink:href="#path-3"></use>
                        </mask>
                        <g id="Clip-41"></g>
                        <path d="M7.02861367,3.95687119 L9.77656947,9.25853359 C9.83872284,9.38590318 10.0010985,9.54415024 10.2629196,9.73481864 C10.4858948,9.90078507 10.6008785,10.0520847 10.6078708,10.1910333 C10.6226322,10.4866852 10.4252953,10.6457041 10.0158599,10.6657745 L6.3985339,10.8471797 C5.96112957,10.8695658 5.73426977,10.7190381 5.71795451,10.3948247 C5.71018534,10.2466128 5.79176164,10.1176993 5.96346032,10.0065404 C6.13593591,9.89615345 6.21906604,9.7988894 6.21518146,9.71552022 C6.19731237,9.36428895 5.97045257,8.7498272 5.53304824,7.87213498 C5.09719774,6.99444276 4.87033795,6.39387588 4.85324577,6.0696624 C4.8408151,5.81029161 5.18188171,5.1904263 5.87955327,4.20929454 C6.575671,3.22816279 6.91596069,2.58050775 6.90042235,2.26632945 C6.88799167,2.03474839 6.71862374,1.85334323 6.38998781,1.72134202 C6.06057496,1.58934082 5.89276086,1.44962024 5.88499169,1.30140836 C5.87023026,1.00575654 6.09087472,0.845965613 6.54692506,0.822807507 L8.97712177,0.700841482 C9.37723408,0.680771123 9.58544786,0.823579444 9.6009862,1.12849451 C9.61108613,1.33228584 9.53883284,1.47046254 9.38344941,1.5430246 C8.56457879,1.94597565 7.77911559,2.7511058 7.02861367,3.95687119 M4.69164702,10.9336366 L1.09452082,11.1134979 C0.710723768,11.1327963 0.511832989,11.0038829 0.497848481,10.7267575 C0.488525476,10.5414927 0.610501461,10.3778421 0.864553355,10.2350337 C1.11938217,10.0922254 1.23825048,9.86836372 1.22193522,9.56344866 L0.869214857,2.62450816 C0.85523035,2.33811958 0.713831436,2.13432824 0.446571952,2.01236222 C0.179312468,1.89194007 0.0402443061,1.73832463 0.0309213008,1.55383172 C0.01771371,1.28519769 0.203396898,1.14161743 0.587970865,1.12231901 L4.34980349,0.933194479 C4.72505445,0.914667994 4.91928373,1.03894983 4.93326824,1.30758386 C4.94259124,1.50134001 4.82061525,1.67271 4.56734028,1.819378 C4.31328839,1.96681794 4.19442007,2.18836383 4.20918149,2.48478758 L4.56734028,9.53411506 C4.58054787,9.7842226 4.68154709,9.98569812 4.87189178,10.1377697 C5.06145956,10.2913851 5.15935111,10.427246 5.16556645,10.5476682 C5.17722021,10.7885125 5.01950603,10.916654 4.69164702,10.9336366" id="Fill-40" fill="#221F20" mask="url(#mask-4)"></path>
                    </g>
                    <path d="M63.2815298,11.2620185 L63.3436831,10.4028528 C63.7981796,10.4445374 64.0584469,10.0238318 64.1221541,9.13919215 L64.5580046,3.14355851 C64.6217118,2.25969079 64.4259286,1.80579191 63.9691014,1.78263381 L64.0320317,0.923468075 C65.4366978,1.13575071 66.475436,1.75793183 67.1490231,2.79078336 C67.7713337,3.74566926 68.0292702,4.9483469 67.9251633,6.39881628 C67.8195026,7.84928565 67.3898674,9.00255933 66.6354809,9.85863732 C65.8212718,10.7849616 64.7025111,11.2527553 63.2815298,11.2620185 M62.9249248,10.3727473 L62.8627714,11.231913 C61.4573284,11.0204023 60.4178133,10.3974492 59.7450031,9.36459772 C59.1226925,8.41048375 58.8639791,7.20780611 58.9696398,5.75733674 C59.0753005,4.30686736 59.5049357,3.15359368 60.2577684,2.29674376 C61.0735313,1.37119146 62.1915151,0.903397716 63.6132734,0.893362537 L63.55112,1.75252827 C63.0865236,1.71007174 62.8223717,2.13077734 62.7578876,3.01464505 L62.323591,9.0102787 C62.2591068,9.89491835 62.4587745,10.3488172 62.9249248,10.3727473" id="Fill-43" fill="#221F20"></path>
                    <path d="M73.1371117,12.4805981 L72.6134696,12.3725269 L72.7898297,11.5295719 C73.2015958,11.613713 73.5108088,11.5604493 73.7174688,11.3682371 C73.8868367,11.2146216 74.0142511,10.9313208 74.1004889,10.5175626 L74.3972712,9.09874266 C74.483509,8.68421257 74.4804014,8.37389394 74.3863944,8.16624293 C74.2721876,7.91690732 74.0088127,7.75016896 73.5970466,7.6652559 L73.7726299,6.8215289 C74.4757399,6.96665303 74.9209134,6.58994784 75.1081504,5.69218527 C75.1275733,5.60186865 75.1524347,5.45983227 75.1827344,5.26761999 C75.2138111,5.07540771 75.2371186,4.93800295 75.2549877,4.85694958 C75.3412255,4.43933173 75.3396717,4.12746924 75.2503262,3.91904628 C75.1423347,3.66044743 74.8875059,3.48984938 74.4858398,3.40725214 L74.6590923,2.57664807 L75.2479955,2.69861409 C76.3434486,2.92401966 77.135904,3.22970666 77.6269156,3.61490316 C78.3238103,4.15525896 78.5708699,4.91098516 78.3680946,5.88208174 C78.0930659,7.19669022 77.1304656,7.774099 75.4787398,7.61353613 L75.4701938,7.65444878 C76.2408955,7.87985435 76.8111527,8.23803306 77.1794114,8.73052878 C77.5795237,9.25776166 77.7007228,9.89769732 77.5437855,10.6503358 C77.3293564,11.6754679 76.7699761,12.3123158 75.8656446,12.5608795 C75.1943882,12.7438286 74.2853952,12.7175827 73.1371117,12.4805981 L73.1371117,12.4805981 Z M72.1752883,12.2822103 L68.6993612,11.565081 C68.3241102,11.4878873 68.1648422,11.3134295 68.2215572,11.0409358 C68.2596261,10.8595307 68.4188941,10.7321611 68.700915,10.6580551 C68.9829359,10.5831773 69.1554115,10.3963685 69.2183418,10.097629 L70.6331079,3.32233908 C70.6968151,3.01356434 70.6152388,2.76963229 70.3860482,2.589771 C70.1568577,2.41068164 70.0612969,2.23004842 70.0993658,2.04864325 C70.15375,1.78541278 70.368956,1.69200842 70.7449839,1.76997404 L74.221688,2.48633146 L72.1752883,12.2822103 Z" id="Fill-45" fill="#221F20"></path>
                    <path d="M85.3705261,6.46111158 L85.7100389,5.52938378 C85.9306834,5.62973557 86.2251349,5.83661465 86.5910629,6.15002102 C86.9585447,6.46342739 87.1854045,6.63634125 87.2731961,6.66799066 C87.3524417,6.69578039 87.4744176,6.65872742 87.6414548,6.55605982 C87.8077151,6.45339221 87.9739753,6.43177798 88.1402356,6.49198906 C88.3950644,6.58307761 88.46421,6.78532506 88.3507801,7.09873143 L87.423918,9.64689503 C87.2428963,10.1440224 87.012152,10.3416382 86.7316849,10.2405145 C86.5296864,10.1687244 86.421695,9.85300218 86.4069335,9.29411988 C86.3960567,8.45039289 86.3704184,7.92238807 86.3292418,7.7093335 C86.1979428,7.08869625 85.877853,6.67262228 85.3705261,6.46111158 M82.1634123,15.2781745 L82.5005943,14.3503064 C83.1516509,14.4954305 83.7071466,14.4537459 84.1670815,14.2252526 C84.4094797,14.1048304 84.7000467,13.8647581 85.0387825,13.5042636 C85.2928344,13.2402612 85.4948329,13.1352777 85.6447779,13.1893133 C85.933791,13.2935248 86.0176981,13.5104391 85.8980528,13.8416 C85.6603162,14.4954305 85.1351202,14.9570487 84.3232419,15.2264547 C83.5828399,15.4626674 82.8626377,15.4804219 82.1634123,15.2781745 M82.1059204,14.2090419 L81.7687384,15.1361381 C80.4378794,14.5703084 79.5832706,13.6918442 79.2033581,12.5015176 C78.8475301,11.408455 78.9213372,10.1694963 79.4255564,8.78386961 C79.9321064,7.39052357 80.6740622,6.3862337 81.6514239,5.77177196 C82.6940467,5.11176594 83.9153604,4.98439635 85.315365,5.38811933 L84.9774061,6.31598745 C84.4172488,6.16468782 84.003152,6.45879577 83.7343387,7.19908323 L81.7190157,12.7400461 C81.4494255,13.4803335 81.5783937,13.9705134 82.1059204,14.2090419" id="Fill-47" fill="#221F20"></path>
                    <path d="M95.2792492,13.8205261 L94.6988921,19.7559487 C94.6817999,19.8964412 94.7322996,20.1172151 94.8480602,20.4182705 C94.9451748,20.6768694 94.9599363,20.8667658 94.8900137,20.987188 C94.7416226,21.2442429 94.4883476,21.2712607 94.1332965,21.0674694 L90.9929975,19.2734881 C90.6130851,19.0565739 90.5043167,18.8072383 90.6674693,18.5262532 C90.7420533,18.3981117 90.8818984,18.333269 91.0870045,18.3324971 C91.2905568,18.3324971 91.4140866,18.2954441 91.4560401,18.223654 C91.6331772,17.9187389 91.77613,17.2795752 91.888006,16.3061628 C91.9991052,15.3335224 92.1366195,14.7067096 92.2989952,14.4257246 C92.4295173,14.201091 93.0549355,13.8637546 94.17525,13.4144873 C95.2955645,12.9644481 95.9357441,12.6031817 96.0934583,12.329916 C96.209219,12.1299844 96.1657116,11.8852804 95.9606055,11.5973479 C95.7562763,11.3094155 95.6910153,11.1017644 95.7655993,10.972851 C95.9139905,10.715796 96.1866884,10.7003573 96.5829161,10.9265348 L98.692246,12.1323002 C99.039528,12.3306879 99.1366426,12.562269 98.98359,12.8270433 C98.8810369,13.0038169 98.7450764,13.0810106 98.5749316,13.0593963 C97.6667155,12.9567287 96.5673778,13.209924 95.2792492,13.8205261 M89.5121935,18.4274453 L86.3905406,16.6434992 C86.0564662,16.4528308 85.9593516,16.2366885 86.0991967,15.9966161 C86.1924267,15.8360533 86.3843253,15.7634912 86.6756692,15.7812457 C86.9670131,15.7974564 87.1892114,15.6731746 87.342264,15.4084002 L90.8282911,9.38574879 C90.9720208,9.13718512 90.9650285,8.88939338 90.8057605,8.64391746 C90.6472694,8.39844154 90.613862,8.1946502 90.707092,8.03408734 C90.8422756,7.80173434 91.0769046,7.78012011 91.4109789,7.97156045 L94.6755846,9.83655992 C95.0018898,10.0233686 95.0974506,10.2333355 94.962267,10.4656885 C94.8651524,10.6347426 94.6693693,10.7127083 94.3756946,10.6995853 C94.081243,10.6864624 93.8605986,10.8084284 93.7114305,11.0654834 L90.1702423,17.184627 C90.0451587,17.4007693 90.0195204,17.624631 90.0964352,17.8554401 C90.1725731,18.0862492 90.1811191,18.2537595 90.1197427,18.357971 C89.9993205,18.5671659 89.7965452,18.5895521 89.5121935,18.4274453" id="Fill-49" fill="#221F20"></path>
                    <path d="M99.981773,22.9341671 L98.4745539,21.5045401 L99.3718931,20.9533771 L100.515515,22.0371765 L103.432062,16.9871655 L104.194218,16.5564247 L106.358709,18.6090049 L102.005642,26.1600913 C101.847928,26.444936 101.809082,26.7274649 101.887551,27.007678 C101.959804,27.2554697 101.943489,27.4322433 101.840936,27.5395425 C101.635053,27.7541409 101.342932,27.6815789 100.966127,27.3241721 L98.5778838,25.0600813 C98.2072944,24.7080781 98.1303796,24.4186017 98.3494702,24.1908804 C98.4660078,24.0704582 98.6345988,24.0349491 98.8567971,24.085125 C99.0789954,24.1360728 99.2444787,24.1044234 99.354024,23.9901768 C99.4635693,23.8767021 99.5808838,23.7068759 99.7075213,23.4806984 C99.7960899,23.2954336 99.8869892,23.1124846 99.981773,22.9341671 L99.981773,22.9341671 Z M102.730506,17.4163624 L101.846374,18.9401658 L97.7403672,21.4234867 C97.5842069,21.5184349 97.4684462,21.6064357 97.3907545,21.6874891 C97.2167251,21.8681223 97.1809869,22.1344405 97.2804323,22.4856718 C97.3814315,22.8369031 97.3744392,23.0731158 97.2579017,23.1935379 C97.0520186,23.4081364 96.7808746,23.3556447 96.4429156,23.0360628 L95.1780946,21.8364729 C94.8548971,21.530014 94.7927437,21.272959 94.9924114,21.064536 C95.1408026,20.9109206 95.2845322,20.8746396 95.4251542,20.9556929 C95.7654439,21.138642 96.0995183,21.1926776 96.4281542,21.1193436 C96.6371449,21.0753432 96.9479118,20.9271313 97.3573471,20.6754799 L102.730506,17.4163624 Z" id="Fill-51" fill="#221F20"></path>
                    <path d="M113.108953,28.0768877 L114.737371,31.2117234 C114.912954,31.5498317 114.880324,31.7806408 114.641033,31.9041507 C114.466227,31.9929235 114.261121,31.9527828 114.026492,31.7814128 C113.790309,31.6100428 113.536257,31.595376 113.262006,31.7350966 L107.073084,34.908529 C106.79184,35.0528812 106.654326,35.2682516 106.662872,35.5561841 C106.670641,35.8448884 106.591395,36.0309252 106.425912,36.1158383 C106.177299,36.2432079 105.9652,36.1366806 105.788063,35.7962564 L104.060976,32.4707524 C103.888501,32.1388195 103.92657,31.9095543 104.175183,31.7821847 C104.340666,31.6964997 104.539557,31.7405001 104.771079,31.9141859 C105.001823,32.0870998 105.226352,32.1187492 105.441558,32.0083622 L113.108953,28.0768877 Z M108.741125,29.8160615 L107.970423,30.2112932 C107.605272,29.7103062 107.062207,29.6446915 106.341228,30.0144493 C106.266644,30.0530461 106.146999,30.1148011 105.980738,30.1989422 C105.823801,30.2799956 105.708041,30.3394347 105.633457,30.3772596 C104.175183,31.1252664 103.106145,30.8442814 102.426343,29.5358484 C102.199483,29.0989322 102.106253,28.6156997 102.145099,28.085379 C102.187052,27.4801805 102.414689,27.0702821 102.83034,26.8587714 C102.936777,26.8031919 103.053315,26.7931567 103.176845,26.8294378 C103.299598,26.8649469 103.388943,26.9359651 103.445658,27.0432643 C103.509365,27.1667742 103.501596,27.2980034 103.421574,27.438496 C103.342328,27.5782165 103.317467,27.6762525 103.347766,27.7341478 C103.381174,27.8005343 103.509365,27.792043 103.729233,27.7102177 C103.882285,27.6430592 104.085061,27.5388477 104.337559,27.3983552 C104.710479,27.2076868 104.864309,27.1281773 104.797494,27.1621426 C105.742225,26.6781381 106.675302,27.0810892 107.595949,28.3702238 L107.621587,28.3571008 C107.155437,26.8348413 107.519034,25.7672526 108.712379,25.1558786 C109.672649,24.662611 110.535027,24.7367169 111.297959,25.3774245 C111.782755,25.7857791 112.318051,26.5530844 112.903847,27.6808841 L112.146353,28.0699403 C111.830147,27.5442513 111.311944,27.4655137 110.591741,27.8352715 L109.435689,28.4273471 C108.723256,28.7932452 108.491735,29.2556353 108.741125,29.8160615 L108.741125,29.8160615 Z" id="Fill-53" fill="#221F20"></path>
                    <path d="M27.0858164,34.5667154 L26.499244,33.9862189 C26.8395337,33.5493026 27.0034632,33.1177899 26.9910325,32.6916807 C26.9848172,32.467819 26.9047947,32.1652198 26.7494113,31.783883 C26.639866,31.4998102 26.630543,31.3114576 26.7237731,31.2188252 C26.9055717,31.038192 27.1005779,31.0513149 27.3087916,31.258194 C27.7221115,31.6665486 27.8875949,32.223115 27.8075724,32.9278934 C27.7259961,33.5662852 27.4859287,34.1128165 27.0858164,34.5667154 M21.51299,29.0535423 L20.9248638,28.4715019 C21.0794703,28.3410445 21.3397375,28.1928327 21.7072193,28.0276382 C22.0747011,27.8632156 22.2860225,27.7536006 22.3411837,27.699565 C22.3901294,27.650161 22.4048909,27.5444057 22.3854679,27.3838428 C22.366045,27.222508 22.4079985,27.0897349 22.5121054,26.9862953 C22.6705965,26.8280483 22.8500644,26.8465748 23.0481782,27.0426467 L24.6587274,28.6351525 C24.971825,28.946243 25.0409706,29.1886312 24.8661643,29.3638609 C24.7395268,29.4896866 24.4621674,29.460353 24.0317553,29.2743162 C23.3869141,28.9848399 22.9767019,28.8181015 22.7995648,28.7741011 C22.282138,28.6544509 21.8532797,28.7478553 21.51299,29.0535423 M26.2529613,34.2324667 L26.8395337,34.8121913 C25.9390868,35.6119179 24.9702711,35.9438507 23.931533,35.8095337 C22.9759249,35.6914274 22.0599397,35.1989317 21.1843541,34.3335904 C20.304107,33.4620737 19.8022186,32.5519602 19.6794657,31.6017059 C19.545059,30.5873808 19.8783564,29.6263194 20.6785811,28.7177497 L21.2651535,29.2982463 C20.9520559,29.6641443 21.0305245,30.0794464 21.4982286,30.5418365 L24.9990171,34.0055173 C25.4674981,34.4694513 25.8847026,34.5451011 26.2529613,34.2324667" id="Fill-55" fill="#010202"></path>
                    <path d="M34.5537767,19.7476117 C34.8357976,19.597856 35.0308038,19.6210141 35.1372415,19.8186299 C35.2141563,19.9606663 35.1830796,20.1312644 35.0424576,20.3288802 C34.9018356,20.526496 34.8925126,20.7364629 35.0129347,20.9610965 L37.7647751,26.0651431 C37.878205,26.2758818 38.0568959,26.3777775 38.300071,26.3708301 C38.5432461,26.3638826 38.7017371,26.4287253 38.7747673,26.5645862 C38.8843127,26.7691495 38.7988518,26.945923 38.5168309,27.0972227 L35.7579982,28.5646746 C35.4759773,28.7152023 35.2794173,28.6881845 35.1690951,28.4836213 C35.0952879,28.3485323 35.1294723,28.181794 35.2700943,27.9841781 C35.4099394,27.7865623 35.4192624,27.5758235 35.2988402,27.3511899 L32.5586536,22.2687576 C32.4335699,22.0371765 32.2494406,21.9244737 32.0062655,21.9314211 C31.7630905,21.9383686 31.6045994,21.8735259 31.5315692,21.737665 C31.4251315,21.5400492 31.5129232,21.3663634 31.7949441,21.2158357 L34.5537767,19.7476117 Z M30.2434406,26.5090068 L29.902374,25.8752466 L30.11758,25.7609999 C32.0085963,24.7543943 33.3565475,25.0006421 34.1637643,26.4966558 C34.6299146,27.3612251 34.6516683,28.1377936 34.2298023,28.8263612 C33.8972818,29.3713487 33.2664251,29.8916341 32.3349015,30.3872176 L32.0000502,29.7665804 C32.4413391,29.5396309 32.4949464,29.1142937 32.1577644,28.4897968 L31.3839549,27.0547661 C31.0584267,26.4503396 30.6785142,26.2681625 30.2434406,26.5090068 L30.2434406,26.5090068 Z M32.0062655,30.5624473 L29.3981548,31.9503897 C29.1161339,32.1001455 28.9226815,32.0769874 28.815467,31.8793716 C28.7432137,31.7427387 28.7758442,31.5760004 28.9164662,31.3783845 C29.0570882,31.1823126 29.0648574,30.9669422 28.9397737,30.7353611 L26.1995871,25.6529288 C26.0822726,25.4352426 25.8989202,25.3248556 25.6503067,25.3217679 C25.4016932,25.3179082 25.244756,25.2553813 25.178718,25.1326433 C25.0683958,24.9280801 25.1608489,24.7482188 25.4576312,24.5891998 L28.215687,23.1217478 C28.552869,22.9426584 28.7750673,22.9503778 28.880728,23.1479937 C28.9397737,23.2576087 28.8908279,23.4359261 28.7346676,23.6860336 C28.5785073,23.9361412 28.5513152,24.1561432 28.6546451,24.3460397 L32.0062655,30.5624473 Z" id="Fill-57" fill="#010202"></path>
                    <path d="M42.0430245,22.9280688 L41.8480183,22.2387292 C42.3265993,22.1059561 42.4734366,21.7091805 42.2861996,21.0484026 L41.8433568,19.4813707 C41.6530121,18.8066979 41.3181609,18.53652 40.8395799,18.6692931 L40.6445737,17.9784096 L40.8807565,17.912795 C42.9450253,17.3369301 44.2098463,17.8741982 44.6767735,19.5245992 C44.9424792,20.467906 44.7948649,21.2313516 44.2331539,21.8126201 C43.7903111,22.2726944 43.060009,22.644768 42.0430245,22.9280688 L42.0430245,22.9280688 Z M40.285638,18.0787614 L42.2030695,24.8679462 C42.2621152,25.0755972 42.4345908,25.2160897 42.7212732,25.2886518 C43.0079556,25.3604419 43.1680005,25.4561621 43.2014079,25.5758123 C43.2627844,25.7911827 43.1089548,25.9502017 42.7399192,26.0528693 L39.705281,26.899684 C39.3968449,26.985369 39.2111617,26.9166666 39.1482314,26.6935769 C39.1062779,26.545365 39.1754235,26.3894338 39.3556683,26.2265551 C39.5351361,26.0644483 39.5910742,25.860657 39.5219285,25.6151811 L37.9533329,20.0634111 C37.8826334,19.8109878 37.7264731,19.662004 37.4887365,19.6164597 C37.249446,19.5701435 37.108824,19.4728794 37.0668705,19.3246675 C37.0062709,19.1092972 37.1298008,18.9579975 37.436683,18.8723125 L40.285638,18.0787614 Z" id="Fill-59" fill="#010202"></path>
                    <path d="M50.6816435,24.6400704 L50.5922981,23.9275727 C50.9706567,23.8882039 51.1151633,23.5022355 51.0227101,22.7688955 L50.4019534,17.798394 C50.3095002,17.0650539 50.0756482,16.7261737 49.6988434,16.7802092 L49.6094979,16.0684834 C50.7935196,16.0152198 51.7436892,16.3571878 52.4623375,17.0928437 C53.1266017,17.77292 53.5337062,18.714683 53.6836512,19.9173607 C53.8343731,21.1192664 53.6719975,22.1320475 53.1949704,22.9526164 C52.6790974,23.8411158 51.8415808,24.4030858 50.6816435,24.6400704 M50.2450161,23.9708012 L50.3343616,24.6832989 C49.1511168,24.7357906 48.2001703,24.3945945 47.4822989,23.6581667 C46.8172578,22.9780903 46.4101533,22.0363274 46.2602083,20.8328778 C46.1094864,19.6309721 46.2726389,18.6189629 46.7488891,17.797622 C47.2647621,16.9091227 48.1022787,16.3471527 49.2629929,16.110168 L49.3515614,16.8234377 C48.9654336,16.8635784 48.8185963,17.2495469 48.9102725,17.9828869 L49.5318062,22.9533884 C49.6227055,23.6867284 49.8604421,24.0256087 50.2450161,23.9708012" id="Fill-61" fill="#010202"></path>
                    <path d="M58.9075641,24.0957777 L58.4623906,24.0888303 L58.4732675,23.371701 C58.8252109,23.3763326 59.0691629,23.2844721 59.2082311,23.0953476 C59.321661,22.9440479 59.3822605,22.6923965 59.3876989,22.3396214 L59.4078988,21.1323121 C59.4133372,20.779537 59.3612837,20.5255697 59.2525153,20.3711824 C59.1196625,20.1851456 58.8780413,20.0894254 58.5276517,20.0832499 L58.5385285,19.3653486 C59.1367547,19.3753838 59.4420831,18.9979067 59.4545138,18.2336892 C59.4560676,18.1564955 59.4537369,18.0360733 59.4490754,17.8739666 C59.4436369,17.7118598 59.4413062,17.5960693 59.44286,17.526595 C59.4482984,17.171504 59.3985758,16.9159929 59.2921381,16.7600617 C59.1631699,16.5647617 58.927764,16.4644099 58.5859205,16.4590063 L58.5983511,15.7526841 L59.0986857,15.7611754 C60.0309863,15.7766141 60.7286578,15.9032118 61.1901466,16.1417403 C61.8450877,16.4767609 62.1659545,17.0572574 62.1527469,17.8832298 C62.1341009,19.0017663 61.4372062,19.6239475 60.0589553,19.7482293 L60.0581784,19.7837384 C60.7255502,19.8485811 61.2484154,20.0539163 61.6275509,20.3989721 C62.0369862,20.7687298 62.2374309,21.2743485 62.226554,21.9142841 C62.2133464,22.7865728 61.8551876,23.3948591 61.1536315,23.738371 C60.6338739,23.9923382 59.8849259,24.1119884 58.9075641,24.0957777 L58.9075641,24.0957777 Z M58.0886935,24.0826548 L55.131747,24.0355667 C54.8116572,24.0301631 54.6531661,23.9120568 54.6570507,23.6804757 C54.6593814,23.5260883 54.7704806,23.3971749 54.9903481,23.2921915 C55.2086618,23.187208 55.3213148,23.0081187 55.3251994,22.7533795 L55.4192063,16.9877831 C55.4238678,16.7253245 55.3174302,16.5385158 55.1022242,16.425813 C54.8854643,16.315426 54.7798036,16.181881 54.7813574,16.0274936 C54.785242,15.8036319 54.9468407,15.6940169 55.2661537,15.6994204 L58.224654,15.7472805 L58.0886935,24.0826548 Z" id="Fill-63" fill="#010202"></path>
                    <path d="M66.6259248,22.6899263 L64.9097149,22.4282397 L65.2577738,21.6261973 L66.5591099,21.8245851 L66.127144,16.9907164 L66.4410185,16.336114 L68.9061765,16.7120472 L69.55801,23.9335166 C69.5883097,24.2036945 69.6963012,24.4152052 69.8843152,24.5695926 C70.0529062,24.7039096 70.1274902,24.8328231 70.1080673,24.9547891 C70.0707753,25.1994931 69.8369232,25.2882658 69.4065111,25.2226512 L66.6880782,24.8081211 C66.2654353,24.7432784 66.0743137,24.5819436 66.1147134,24.3225728 C66.1356901,24.185168 66.2343586,24.0817285 66.4107188,24.0099384 C66.586302,23.9396921 66.6841936,23.8393403 66.7051704,23.7096549 C66.7245933,23.5799695 66.7238164,23.4078276 66.7020627,23.1932292 C66.6733168,23.0257189 66.6476785,22.8574366 66.6259248,22.6899263 L66.6259248,22.6899263 Z M65.8536692,17.6175292 L65.9818605,19.0772618 L64.3697575,22.7208038 C64.309158,22.8605244 64.271866,22.975543 64.2571046,23.0666315 C64.225251,23.2727386 64.327804,23.4726703 64.5663176,23.6648826 C64.8032773,23.8570949 64.9112688,24.0222893 64.890292,24.1589222 C64.853,24.4036262 64.6416785,24.4962586 64.2578815,24.4375914 L62.8182541,24.2175894 C62.4492185,24.1620099 62.2829582,24.0153419 62.3194733,23.7791292 C62.3466654,23.6038996 62.4282417,23.5097233 62.5634253,23.4996881 C62.8835151,23.4626351 63.1383439,23.341441 63.3271348,23.1361058 C63.4491108,23.0064204 63.5897328,22.7586287 63.7482239,22.3919587 L65.8536692,17.6175292 Z" id="Fill-65" fill="#010202"></path>
                    <path d="M74.9822898,23.5033162 L75.1998266,22.8201521 C75.674523,22.9706798 76.0155896,22.7182564 76.2245803,22.0659697 L76.7202534,20.5136047 C76.9339056,19.8458793 76.8041604,19.4367528 76.3294641,19.287769 L76.5485547,18.603061 L76.7816298,18.6771669 C78.8249218,19.3217342 79.5863006,20.461113 79.0642123,22.0945314 C78.7650992,23.029347 78.2204803,23.5851415 77.4288018,23.7657747 C76.8049373,23.9078111 75.9891744,23.8205822 74.9822898,23.5033162 L74.9822898,23.5033162 Z M76.1935036,18.4911301 L74.0445509,25.2116125 C73.9785129,25.4177196 74.0453278,25.6292303 74.2457724,25.8461446 C74.4454401,26.0630588 74.5254626,26.2305691 74.4881705,26.3486755 C74.4198018,26.5617301 74.2038189,26.6103621 73.8386678,26.4953435 L70.8343294,25.5466331 C70.529001,25.450141 70.4116865,25.2918939 70.4823859,25.07112 C70.5297779,24.924452 70.6727306,24.8325915 70.9135749,24.7947666 C71.1528654,24.7569417 71.3121334,24.6164492 71.3898251,24.374061 L73.1472116,18.8786424 C73.2264572,18.6285349 73.1798421,18.418568 73.0050358,18.2502858 C72.8302294,18.0820036 72.7672991,17.9237565 72.8146911,17.7770885 C72.8822829,17.5640339 73.068743,17.5045948 73.3740714,17.6010869 L76.1935036,18.4911301 Z" id="Fill-67" fill="#010202"></path>
                    <path d="M82.9063004,25.9608544 L83.2496978,25.330182 L84.0802222,25.7755896 L85.272013,23.5856047 C85.3162973,23.5037794 85.3271741,23.3262339 85.3046436,23.0498805 C85.282113,22.7750709 85.290659,22.5998413 85.3318357,22.5257353 C85.3947659,22.4099448 85.5392725,22.4130326 85.7645785,22.5342266 L88.4092043,23.9545905 C88.6888945,24.1058901 88.7759092,24.278804 88.6686946,24.4756479 C88.5948875,24.6122807 88.4379502,24.6809831 88.1986598,24.6840708 C87.9578155,24.6871586 87.7822322,24.7890542 87.67191,24.9936175 L84.8454855,30.1887526 C84.756917,30.3508594 84.7794476,30.5284048 84.9146312,30.7190733 C85.0490378,30.9097417 85.0793376,31.0726203 85.0055305,31.2092532 C84.8952082,31.4122726 84.6994251,31.4392903 84.4189581,31.2879907 L81.7743322,29.8683988 C81.5552416,29.7502925 81.4946421,29.6036245 81.5909798,29.426079 C81.6500255,29.3172359 81.776663,29.2377264 81.9716692,29.1890944 C82.1658984,29.1389185 82.3065204,29.0354789 82.3912044,28.8787758 L83.7360479,26.4070339 L82.9063004,25.9608544 Z M78.0754299,27.8814333 C77.7941859,27.7301337 77.708725,27.5525882 77.8190472,27.3487969 C77.8928544,27.212936 78.0521224,27.1473214 78.2968513,27.1511811 C78.5423571,27.1558127 78.7202711,27.0562328 78.8313702,26.8524415 L81.6135104,21.7391317 C81.7277172,21.5283929 81.7160634,21.3222858 81.5785491,21.1208102 C81.4402579,20.9201067 81.4084043,20.7518244 81.4822114,20.6159635 C81.5902029,20.4183477 81.7844321,20.3959615 82.0664531,20.5472612 L84.7273941,21.9768882 C84.9542539,22.0988543 85.0210688,22.2447503 84.9293926,22.4138045 C84.8625777,22.5357705 84.7312787,22.6199116 84.5347187,22.663912 C84.3389356,22.7071405 84.1983136,22.8074923 84.1136296,22.9634235 L81.2374825,28.2496472 C81.1372602,28.4333682 81.1217219,28.6201769 81.1900906,28.8100734 C81.2584593,29.0007418 81.2693361,29.1404624 81.2211672,29.2284632 C81.1248295,29.4052367 80.9632308,29.4322545 80.736371,29.3102885 L78.0754299,27.8814333 Z" id="Fill-69" fill="#010202"></path>
                    <path d="M94.0463594,28.5706186 L96.2030813,30.582286 C96.4361565,30.8007442 96.4757792,30.9906406 96.3211727,31.1542913 C96.2092967,31.2716257 96.037598,31.2963276 95.8045228,31.2268533 C95.5714477,31.1581509 95.3671185,31.2168181 95.1915353,31.402083 L91.2183812,35.6052792 C91.0381364,35.7967196 90.9907445,36.0043706 91.0777592,36.2290042 C91.1647739,36.452094 91.154674,36.6211482 91.0490132,36.733079 C90.8889683,36.9021332 90.6924083,36.8774312 90.4577793,36.6589731 L88.1705354,34.5245676 C87.9413448,34.311513 87.9071605,34.1200727 88.0664285,33.9517905 C88.1720892,33.8383157 88.3406802,33.8182454 88.5714246,33.8908075 C88.802169,33.9618256 88.9862983,33.9255446 89.1245896,33.7788766 L94.0463594,28.5706186 Z M91.1026205,31.145028 L90.6077243,31.6684012 C90.1804199,31.3758371 89.7360233,31.4746451 89.2729807,31.964053 C89.2255888,32.0150009 89.1478971,32.0960542 89.0422364,32.208757 C88.9412371,32.3160562 88.8666531,32.3940219 88.8184842,32.4457416 C87.8822991,33.4361366 86.96476,33.5102426 86.0643131,32.6711472 C85.7636462,32.3901622 85.5538786,32.0366151 85.4365641,31.6089621 C85.2998267,31.1218699 85.3643108,30.7374453 85.6307934,30.4556884 C85.699939,30.3831263 85.7877306,30.3429856 85.8949452,30.3368101 C86.0021597,30.3306346 86.0922821,30.362284 86.1653123,30.4309864 C86.2507732,30.5104959 86.2818499,30.6154793 86.2585424,30.7474805 C86.2344579,30.8794817 86.243004,30.9636229 86.2826268,31.0006758 C86.327688,31.0431323 86.4255796,31.0014478 86.5763015,30.876394 C86.6773007,30.7806738 86.8078228,30.6432691 86.9670908,30.4634078 C87.2056043,30.2102125 87.3042728,30.106001 87.2623193,30.1507733 C87.8683146,29.5092938 88.7136004,29.5671891 89.7981767,30.3252311 L89.814492,30.3090204 C89.0220365,29.2414317 89.0088289,28.3019845 89.7748692,27.4922228 C90.3917414,26.8391642 91.088636,26.6585309 91.8678839,26.951095 C92.3627801,27.1386757 92.9982983,27.5925746 93.7744385,28.3174233 L93.2873114,28.8323052 C92.8934145,28.5057759 92.4637793,28.5868292 92.0015136,29.0770091 L91.2595578,29.8620689 C90.8019536,30.3460734 90.7499002,30.7737264 91.1026205,31.145028 L91.1026205,31.145028 Z" id="Fill-71" fill="#010202"></path>
                    <path d="M50.224894,40.5100117 L50.224894,40.0568848 C50.7920434,40.0568848 51.2473169,40.1711314 51.5907142,40.3980809 C51.9993726,40.6713465 52.2029249,41.0742976 52.2029249,41.6100217 C52.2029249,42.0608329 52.061526,42.4228713 51.7779512,42.694593 C51.5938219,42.8736824 51.2729551,43.0589472 50.814574,43.2527034 C50.3018087,43.4750212 49.9560806,43.6510228 49.7766128,43.7791643 C49.5676221,43.7791643 49.3213394,43.8640774 49.0377646,44.0323596 L49.015234,44.0323596 C49.165179,43.8640774 49.4285539,43.6070224 49.8069126,43.2604228 C50.0803874,43.0064555 50.2699551,42.7864535 50.374062,42.5981009 C50.5185686,42.3263792 50.5908219,41.9813234 50.5908219,41.5652494 C50.5908219,40.8620149 50.4688459,40.5100117 50.224894,40.5100117 M49.9265578,43.9953067 C50.1106871,43.9953067 50.3818312,44.027728 50.73999,44.0917988 C51.0989257,44.1566415 51.3669621,44.1882909 51.54643,44.1882909 C51.7204594,44.1882909 51.8401046,44.1435185 51.9045887,44.0547458 C51.9092502,44.0501142 51.93955,43.9706047 51.9939342,43.8169892 C52.0288955,43.7282165 52.0964873,43.6834442 52.1959327,43.6834442 C52.3303393,43.6834442 52.3971542,43.7753047 52.3971542,43.9582537 C52.3971542,44.3534854 52.2627475,44.712436 51.9939342,45.0335617 C51.7103595,45.3701262 51.3747313,45.5384085 50.9862727,45.5384085 C50.7974819,45.5384085 50.5271147,45.4789693 50.1767251,45.360091 C49.8255586,45.2412128 49.5582991,45.1825456 49.3741697,45.1825456 C49.2692859,45.1825456 49.1597406,45.226546 49.0455338,45.3160906 C48.9305501,45.4048634 48.846643,45.4488638 48.7914819,45.4488638 C48.7417592,45.4488638 48.6982518,45.4280215 48.6609598,45.385565 C48.6236678,45.3446523 48.6050218,45.2983361 48.6050218,45.2489321 C48.6050218,44.8729989 48.7293285,44.5703996 48.9787189,44.3403624 C49.2273324,44.1103253 49.5435377,43.9953067 49.9265578,43.9953067 M50.0011418,40.0568848 L50.0011418,40.5107836 C49.8115741,40.5107836 49.7175671,40.5601876 49.7175671,40.6597675 C49.7968126,40.7238382 49.8791658,40.7886809 49.9638498,40.8527517 C50.0982565,40.9677703 50.1650713,41.1337367 50.1650713,41.3521948 C50.1650713,41.5853198 50.0897104,41.7744443 49.9374346,41.9172526 C49.7859358,42.0616048 49.5932603,42.1341669 49.3586314,42.1341669 C49.1247793,42.1341669 48.94065,42.0531135 48.8062433,41.8917787 C48.6718367,41.7304439 48.6050218,41.5328281 48.6050218,41.2997031 C48.6050218,40.9523315 48.7518591,40.6543639 49.0455338,40.4065722 C49.3236701,40.1734472 49.6422061,40.0568848 50.0011418,40.0568848" id="Fill-73" fill="#010202"></path>
                    <path d="M55.2566753,45.5381769 L55.2566753,45.0781025 C55.4159433,45.0781025 55.5177194,44.9962772 55.5627806,44.8326266 C55.587642,44.7484855 55.6000726,44.5987297 55.6000726,44.3849032 L55.6000726,41.1875407 C55.6000726,40.9837494 55.587642,40.8393972 55.5627806,40.755256 C55.5130579,40.5962371 55.4105049,40.5167276 55.2566753,40.5167276 L55.2566753,40.0566532 C56.5758805,40.0566532 57.2347062,40.9706264 57.2347062,42.7970291 C57.2347062,44.6242036 56.5758805,45.5381769 55.2566753,45.5381769 M55.0321462,45.0781025 L55.0321462,45.5381769 C53.7137179,45.5381769 53.0541153,44.6242036 53.0541153,42.7970291 C53.0541153,40.9706264 53.7137179,40.0566532 55.0321462,40.0566532 L55.0321462,40.5167276 C54.8783166,40.5167276 54.7757636,40.5962371 54.7260409,40.755256 C54.7019565,40.8393972 54.6895258,40.9837494 54.6895258,41.1875407 L54.6895258,44.3849032 C54.6895258,44.5987297 54.7019565,44.7484855 54.7260409,44.8326266 C54.7711021,44.9962772 54.8728782,45.0781025 55.0321462,45.0781025" id="Fill-75" fill="#010202"></path>
                    <path d="M60.6017873,40.056962 L60.6017873,44.6322318 C60.6017873,44.8105492 60.6833636,44.9193923 60.84807,44.959533 C61.0119995,44.9981298 61.0943527,45.0753235 61.0943527,45.1887983 C61.0943527,45.362484 60.9677152,45.448941 60.7144403,45.448941 L58.9065541,45.448941 C58.6284178,45.448941 58.4885727,45.362484 58.4885727,45.1887983 C58.4885727,45.0853587 58.5351878,45.021288 58.626864,44.995814 C58.7193171,44.9711121 58.8125472,44.9464101 58.9065541,44.9217081 C59.001338,44.8723041 59.04873,44.775812 59.04873,44.6322318 L59.04873,40.9771107 C59.04873,40.7841265 58.982692,40.6698798 58.851393,40.6320549 C58.7193171,40.595002 58.6532792,40.5239838 58.6532792,40.4205442 C58.6532792,40.2576655 58.7853551,40.1681209 59.04873,40.1534541 L60.6017873,40.056962 Z" id="Fill-77" fill="#010202"></path>
                    <path d="M64.342177,45.5381769 L64.342177,45.0711551 C64.5962289,45.0711551 64.7228664,44.8310827 64.7228664,44.3517099 L64.7228664,43.3497359 C64.7228664,42.8510646 64.5962289,42.6009571 64.342177,42.6009571 L64.342177,42.0814436 C64.4610453,42.0721803 64.5558292,42.0667768 64.6257517,42.0667768 C65.1431785,42.0667768 65.5627138,42.2327432 65.8835805,42.5631322 C66.2044473,42.895065 66.3652691,43.3180864 66.3652691,43.8321964 C66.3652691,44.4157807 66.1687091,44.8534689 65.775589,45.145261 C65.4267533,45.4069476 64.9489492,45.5381769 64.342177,45.5381769 M62.9165341,41.391332 L63.0354024,40.0566532 C63.8620422,40.1600927 64.4742529,40.2125844 64.8728114,40.2125844 C65.2954543,40.2125844 65.5984519,40.1863386 65.7825813,40.1346188 C65.9674876,40.082899 66.066933,40.0566532 66.0816944,40.0566532 C66.1065557,40.0566532 66.1236479,40.0720919 66.1337478,40.1014255 C66.1337478,40.1708998 66.0917943,40.2851465 66.0071103,40.4441655 C65.6489516,41.1304174 64.9621568,41.4731573 63.9459493,41.4731573 C63.6872359,41.4731573 63.3446154,41.4461395 62.9165341,41.391332 M64.1106557,42.1115491 L64.1106557,42.6009571 C64.0018873,42.6210275 63.8084349,42.6943615 63.5318524,42.8232749 C63.2560469,42.9514164 63.0975558,43.0162591 63.0587099,43.0162591 C62.9887874,43.0162591 62.9289648,42.9900133 62.8784652,42.9382935 C62.8295194,42.8858018 62.804658,42.8255907 62.804658,42.7561164 C62.804658,42.6580804 62.8372886,42.2867788 62.9017727,41.6437554 L63.3415078,41.6815803 L63.2669237,42.4450259 C63.6600438,42.222708 63.9412878,42.1115491 64.1106557,42.1115491 M64.1106557,45.0711551 L64.1106557,45.5381769 C63.7524969,45.5381769 63.413761,45.4247022 63.0960019,45.1969808 C62.7417277,44.9445574 62.5653676,44.6481337 62.5653676,44.3069376 C62.5653676,44.0892514 62.6376209,43.9024427 62.7821274,43.7472833 C62.926634,43.5913521 63.1076557,43.5133865 63.3267463,43.5133865 C63.55516,43.5133865 63.7361816,43.5790011 63.8682576,43.7102304 C64.0003335,43.8414596 64.0663714,44.0197771 64.0663714,44.2474984 C64.0663714,44.4003419 64.0057719,44.5377467 63.8869036,44.6589408 C63.7672583,44.7809068 63.7082126,44.8581005 63.7082126,44.8928377 C63.7082126,45.010944 63.8418424,45.0711551 64.1106557,45.0711551" id="Fill-79" fill="#010202"></path>
                    <path d="M50.2040726,47.6014097 L51.2847643,47.6014097 C51.4020788,47.6014097 51.4603475,47.6430943 51.4603475,47.7241477 C51.4603475,47.7835868 51.4199478,47.8322189 51.3407023,47.8708157 C51.2614568,47.9078687 51.221834,47.9673078 51.221834,48.0460454 L51.221834,50.2121002 C51.221834,50.2908378 51.2614568,50.348733 51.3407023,50.3834702 C51.4199478,50.4182074 51.4603475,50.4645236 51.4603475,50.520875 C51.4603475,50.605788 51.4020788,50.6474726 51.2847643,50.6474726 L50.1450269,50.6474726 C50.0253816,50.6474726 49.965559,50.605788 49.965559,50.520875 C49.965559,50.4676113 50.0051818,50.4197512 50.0852043,50.3796105 C50.1644498,50.3379259 50.2040726,50.2715394 50.2040726,50.178135 L50.2040726,47.6014097 Z M48.5476853,48.4821897 C48.6176078,48.6566474 48.6991841,48.8936321 48.7900834,49.1923716 C48.8017372,49.2680214 48.8063987,49.3907594 48.803291,49.5605855 C48.7947449,49.8369389 48.7908604,49.9643085 48.7908604,49.9411504 C48.7908604,50.0793271 48.821937,50.1850824 48.8840904,50.2584164 C48.9097287,50.2923817 48.9664436,50.3348382 49.0542353,50.3850141 C49.1171655,50.4189793 49.1482422,50.459892 49.1482422,50.508524 C49.1482422,50.6011564 49.0868658,50.6474726 48.9648898,50.6474726 L48.3736559,50.6474726 C48.250903,50.6474726 48.1903034,50.6011564 48.1903034,50.508524 C48.1903034,50.459892 48.2408031,50.4081722 48.3410254,50.3518208 C48.4420246,50.2946975 48.5026241,50.2221354 48.522047,50.1310469 C48.5391392,50.055397 48.5476853,49.9596769 48.5476853,49.8438863 L48.5476853,48.4821897 Z M50.0634506,48.8874566 L49.5398085,50.6474726 L49.4077325,50.6474726 L48.560116,48.1263268 C48.5204932,48.0074485 48.4684398,47.9248513 48.4031787,47.8762193 C48.3860866,47.8654121 48.3363639,47.842254 48.2540106,47.8090608 C48.2112802,47.7951659 48.1903034,47.7627445 48.1903034,47.7117967 C48.1903034,47.6384627 48.2454646,47.6014097 48.3565637,47.6014097 L49.4287093,47.6014097 L49.8381446,48.8033154 L50.0549045,48.0545367 L50.0634506,48.0545367 L50.0634506,48.8874566 Z" id="Fill-81" fill="#010202"></path>
                    <path d="M53.1546484,50.7027433 L53.1546484,50.4402848 C53.2937165,50.4433725 53.3636391,50.3098274 53.3636391,50.0404215 L53.3636391,48.2101592 C53.3636391,47.9399812 53.2937165,47.8064362 53.1546484,47.808752 L53.1546484,47.5462934 C53.5866143,47.5802587 53.9152502,47.746997 54.14211,48.0465085 C54.3526545,48.32209 54.4575383,48.6818126 54.4575383,49.1249043 C54.4575383,49.5672242 54.3526545,49.9269467 54.14211,50.2040721 C53.9152502,50.5020397 53.5866143,50.6687781 53.1546484,50.7027433 M53.027234,50.4402848 L53.027234,50.7027433 C52.595268,50.6687781 52.2658552,50.5020397 52.0389954,50.2040721 C51.8292278,49.9269467 51.724344,49.5672242 51.724344,49.1249043 C51.724344,48.6818126 51.8292278,48.32209 52.0389954,48.0465085 C52.2658552,47.746997 52.595268,47.5802587 53.027234,47.5462934 L53.027234,47.808752 C52.8850581,47.8064362 52.8143587,47.9399812 52.8143587,48.2101592 L52.8143587,50.0404215 C52.8143587,50.3098274 52.8850581,50.4433725 53.027234,50.4402848" id="Fill-83" fill="#010202"></path>
                    <path d="M56.2296863,50.7027433 L56.2296863,50.4016879 C56.4301309,50.3769859 56.5847374,50.3075116 56.6927289,50.1955808 C56.7502207,50.1361416 56.8077126,50.0373337 56.8667583,49.899157 C56.9125964,49.7972614 56.9592114,49.7470855 57.0081572,49.7470855 C57.1021642,49.7470855 57.1495561,49.8003491 57.1495561,49.9076483 C57.1495561,50.1183871 57.0462261,50.3044239 56.8426739,50.4657587 C56.6546599,50.6093389 56.4495538,50.6880765 56.2296863,50.7027433 M56.2296863,47.8481208 L56.2296863,47.5462934 C56.3027165,47.5524689 56.4083772,47.5810306 56.5466684,47.6335223 C56.6834059,47.686014 56.766536,47.7114879 56.7960588,47.7114879 C56.8216971,47.7114879 56.8519969,47.6883298 56.888512,47.6420136 C56.925804,47.5956974 56.9716421,47.5717674 57.0244725,47.5717674 C57.1083795,47.5717674 57.1495561,47.6227152 57.1495561,47.7246109 L57.1495561,48.5490394 C57.1495561,48.7103742 57.103718,48.7898837 57.0128187,48.7898837 C56.9475577,48.7898837 56.8838505,48.7111462 56.8216971,48.5528991 C56.7307978,48.3120548 56.6678675,48.1638429 56.6336832,48.1074915 C56.531907,47.943069 56.3967234,47.8558401 56.2296863,47.8481208 M56.100718,50.4016879 L56.100718,50.7027433 C55.6617599,50.6772694 55.3245778,50.5136188 55.0922796,50.2117914 C54.8762967,49.935438 54.7683052,49.5733997 54.7683052,49.1249043 C54.7683052,48.6733213 54.8762967,48.3089671 55.0922796,48.0333856 C55.3222471,47.7369619 55.6586522,47.5748551 56.100718,47.5462934 L56.100718,47.8473488 C55.9243578,47.8612437 55.8373431,47.9878413 55.8373431,48.2279137 L55.8373431,50.021123 C55.8373431,50.2611954 55.9243578,50.388565 56.100718,50.4016879" id="Fill-85" fill="#010202"></path>
                    <path d="M59.6139372,48.5618536 L60.3683237,50.2168862 C60.3846389,50.2554831 60.4320309,50.3064309 60.5081688,50.3689578 C60.5734298,50.4222214 60.6060603,50.4700815 60.6060603,50.5117661 C60.6060603,50.6028547 60.5439069,50.647627 60.4188233,50.647627 L59.3163779,50.647627 C59.1827482,50.647627 59.1159333,50.598995 59.1159333,50.5001871 C59.1159333,50.4546428 59.1431254,50.4160459 59.1967327,50.3851685 C59.2511169,50.354291 59.2775321,50.3257293 59.2775321,50.3010273 C59.2775321,50.1937281 59.2184864,50.0030597 59.0988411,49.7297941 C58.9799728,49.4557565 58.9201502,49.2697197 58.9201502,49.1709118 C58.9201502,49.0921742 59.0335801,48.9084532 59.2612168,48.6212927 C59.4880766,48.3333603 59.6015065,48.1419199 59.6015065,48.0461998 C59.6015065,47.9751816 59.5525607,47.9172863 59.4546692,47.871742 C59.3567776,47.8277416 59.3070549,47.7821974 59.3070549,47.737425 C59.3070549,47.6463365 59.3769775,47.6015641 59.5160456,47.6015641 L60.2572245,47.6015641 C60.3792005,47.6015641 60.4398001,47.6478803 60.4398001,47.7412847 C60.4398001,47.8038116 60.4157156,47.8439523 60.3683237,47.8640227 C60.112718,47.9736377 59.8609968,48.2067626 59.6139372,48.5618536 M58.7958435,50.647627 L57.6988365,50.647627 C57.581522,50.647627 57.5232532,50.6051705 57.5232532,50.5210294 C57.5232532,50.464678 57.562876,50.4160459 57.6421216,50.3774491 C57.722144,50.3373084 57.7617668,50.2716937 57.7617668,50.1782894 L57.7617668,48.0631824 C57.7617668,47.9751816 57.722144,47.9111108 57.6421216,47.8701982 C57.562876,47.8292855 57.5232532,47.7806535 57.5232532,47.7243021 C57.5232532,47.6432487 57.581522,47.6015641 57.6996134,47.6015641 L58.8463431,47.6015641 C58.9605499,47.6015641 59.0180418,47.6432487 59.0180418,47.7243021 C59.0180418,47.7837412 58.978419,47.8339171 58.8991734,47.8740578 C58.8199279,47.9157424 58.7795282,47.9813571 58.7795282,48.0709017 L58.7795282,50.219974 C58.7795282,50.2963957 58.8074972,50.3589226 58.8626583,50.4090985 C58.9178194,50.4577305 58.9457885,50.5017309 58.9457885,50.538012 C58.9457885,50.610574 58.8960658,50.647627 58.7958435,50.647627" id="Fill-87" fill="#010202"></path>
                    <path d="M62.3232802,50.6477042 L62.1609045,50.6477042 L62.1609045,50.3852457 C62.2890958,50.3852457 62.3776644,50.3505085 62.4273871,50.2802622 C62.4685637,50.2239109 62.4887635,50.1320504 62.4887635,50.0031369 L62.4887635,49.562361 C62.4887635,49.4334475 62.4685637,49.3408151 62.4273871,49.2844637 C62.3776644,49.2173052 62.2890958,49.1841119 62.1609045,49.1841119 L62.1609045,48.9216534 C62.3792182,48.9216534 62.4887635,48.7819328 62.4887635,48.5032636 C62.4887635,48.4747019 62.4872097,48.4307015 62.484102,48.3720343 C62.4809944,48.3125952 62.4802174,48.2701386 62.4802174,48.2446647 C62.4802174,48.1149793 62.4600176,48.0223469 62.4203948,47.9652236 C62.3714491,47.8949773 62.2852113,47.8602402 62.1609045,47.8602402 L62.1609045,47.6016413 L62.34348,47.6016413 C62.6845466,47.6016413 62.9401524,47.6433259 63.1102972,47.7290109 C63.3511415,47.8471172 63.4723406,48.057856 63.4723406,48.3589114 C63.4723406,48.767266 63.2206195,48.998847 62.718731,49.0528826 L62.718731,49.0652336 C62.9619061,49.085304 63.1545815,49.1570941 63.2952035,49.280604 C63.4467023,49.4133771 63.5236171,49.5970981 63.5236171,49.830995 C63.5236171,50.1498049 63.3962027,50.3744385 63.1421508,50.503352 C62.95336,50.5998441 62.6806621,50.6477042 62.3232802,50.6477042 L62.3232802,50.6477042 Z M62.0241671,50.6477042 L60.9434754,50.6477042 C60.8261609,50.6477042 60.7686691,50.6052477 60.7686691,50.5211066 C60.7686691,50.4647552 60.8082918,50.4161231 60.8875374,50.3767544 C60.9667829,50.3373856 61.0071826,50.2717709 61.0071826,50.1783666 L61.0071826,48.0709789 C61.0071826,47.9752588 60.9667829,47.9073283 60.8875374,47.8679595 C60.8082918,47.8285908 60.7686691,47.7807307 60.7686691,47.7243793 C60.7686691,47.642554 60.8261609,47.6016413 60.9434754,47.6016413 L62.0241671,47.6016413 L62.0241671,50.6477042 Z" id="Fill-89" fill="#010202"></path>
                    <path d="M65.1373516,49.8863429 L64.5033873,49.8863429 L64.5834097,49.5775681 L65.0650984,49.5775681 L64.6385709,47.855377 L64.7154857,47.6014097 L65.6268094,47.6014097 L66.2654353,50.1735034 C66.2910735,50.2699955 66.3423501,50.3402417 66.4184879,50.3850141 C66.4868567,50.4243829 66.521041,50.4676113 66.521041,50.5123837 C66.521041,50.6027003 66.4417955,50.6474726 66.2833044,50.6474726 L65.2779736,50.6474726 C65.1210364,50.6474726 65.0441216,50.5996125 65.0441216,50.5038924 C65.0441216,50.4529445 65.0736444,50.410488 65.1326901,50.3749789 C65.1925128,50.3394698 65.2220356,50.2977852 65.2220356,50.2499251 C65.2220356,50.202065 65.2127126,50.1403101 65.1925128,50.0638883 C65.1730898,50.0044492 65.1536669,49.9450101 65.1373516,49.8863429 L65.1373516,49.8863429 Z M64.5748637,48.0969932 L64.703055,48.6165067 L64.3239194,50.0214318 C64.3099349,50.0754674 64.3029427,50.1186959 64.3029427,50.1526611 C64.3029427,50.2283109 64.3511115,50.2946975 64.4474493,50.3518208 C64.543787,50.4081722 64.5927328,50.4614358 64.5927328,50.5123837 C64.5927328,50.6027003 64.5212564,50.6474726 64.3790805,50.6474726 L63.8476692,50.6474726 C63.7109318,50.6474726 63.6425631,50.6042442 63.6425631,50.5162433 C63.6425631,50.4514007 63.6666476,50.4135757 63.7155933,50.4019967 C63.8282463,50.3711192 63.9137072,50.3139959 63.9704221,50.2283109 C64.0077142,50.1750473 64.0450062,50.0777832 64.0815213,49.9365188 L64.5748637,48.0969932 Z" id="Fill-91" fill="#010202"></path>
                    <mask id="mask-6" fill="white">
                        <use xlink:href="#path-5"></use>
                    </mask>
                    <g id="Clip-94"></g>
                    <polygon id="Fill-93" fill="#010202" mask="url(#mask-6)" points="28.7622482 43.6253945 45.8707397 43.6253945 45.8707397 42.543911 28.7622482 42.543911"></polygon>
                    <polygon id="Fill-95" fill="#010202" mask="url(#mask-6)" points="69.2163218 43.6253945 86.3248134 43.6253945 86.3248134 42.543911 69.2163218 42.543911"></polygon>
                    <path d="M46.6787335,32.0797664 C47.780402,32.793036 48.7499945,33.6660966 49.692395,34.5684908 C50.2214755,35.0741095 50.160876,35.2863921 49.4585429,35.483236 C48.6280185,35.715589 48.4524353,35.6468866 48.0313462,34.9166344 C47.8891704,34.6696146 47.7539868,34.3716469 47.4230201,34.4048402 C47.1285685,34.4334019 47.1231301,34.7560715 47.0508768,34.9745296 C46.9444392,35.2987431 46.7766251,35.4786044 46.4037049,35.4894115 C45.9934926,35.5017625 45.8202401,35.2825324 45.7099179,34.9467399 C45.6368877,34.7244221 45.6275647,34.4148754 45.3222363,34.4017525 C45.0239001,34.3886295 44.8879396,34.6618952 44.7550868,34.8888446 C44.3153517,35.6383953 44.0007003,35.7503262 43.1709528,35.4477269 C42.6659567,35.263234 42.6006956,35.0494075 42.9891542,34.6719304 C43.9797235,33.710869 44.9734005,32.7498076 46.1923834,32.0643276 C46.3446592,31.9786426 46.5326731,31.9848181 46.6787335,32.0797664" id="Fill-96" fill="#010202" mask="url(#mask-6)"></path>
                    <path d="M57.914431,31.0628167 C59.3338586,31.9821935 60.5823643,33.1069056 61.7974627,34.2694425 C62.478819,34.9209572 62.4003504,35.1957667 61.4952419,35.448962 C60.426204,35.7477016 60.1993442,35.6589288 59.6570561,34.7179378 C59.4737036,34.4006718 59.2996742,34.0162472 58.8731467,34.0587037 C58.4940112,34.0965286 58.486242,34.5118307 58.3945658,34.7928157 C58.2562745,35.2104335 58.0402916,35.4435585 57.5593799,35.4566814 C57.0318532,35.4721201 56.808101,35.1903632 56.6667021,34.7573066 C56.5719182,34.470918 56.5610414,34.0718266 56.1671444,34.054844 C55.7825705,34.0378614 55.6077641,34.3898646 55.4360654,34.6824287 C54.8696929,35.6481217 54.4641421,35.7924739 53.3958811,35.4026458 C52.7448246,35.1648893 52.6601406,34.8893078 53.1612522,34.4029876 C54.43695,33.1655728 55.7165325,31.9266141 57.2874589,31.0442903 C57.4840189,30.9339033 57.7256401,30.9408507 57.914431,31.0628167" id="Fill-97" fill="#010202" mask="url(#mask-6)"></path>
                    <path d="M68.9847228,32.0797664 C70.0863913,32.793036 71.0552069,33.6660966 71.9983843,34.5684908 C72.5274648,35.0741095 72.4660884,35.2863921 71.7637553,35.483236 C70.9340079,35.715589 70.7576477,35.6468866 70.3365586,34.9166344 C70.1951597,34.6696146 70.0591992,34.3716469 69.7282325,34.4048402 C69.4337809,34.4334019 69.4283425,34.7560715 69.3568661,34.9745296 C69.2504285,35.2987431 69.0818375,35.4786044 68.7096942,35.4894115 C68.299482,35.5017625 68.1262294,35.2825324 68.0159072,34.9467399 C67.9421001,34.7244221 67.933554,34.4148754 67.6282256,34.4017525 C67.3291125,34.3886295 67.1939289,34.6618952 67.0602992,34.8888446 C66.6205641,35.6383953 66.3066896,35.7503262 65.4769421,35.4477269 C64.9711691,35.263234 64.905908,35.0494075 65.2951435,34.6719304 C66.2849359,33.710869 67.2786129,32.7498076 68.4975958,32.0643276 C68.6498716,31.9786426 68.8378855,31.9848181 68.9847228,32.0797664" id="Fill-98" fill="#010202" mask="url(#mask-6)"></path>
                </g>
            </g>
        </g>
    </g>
</svg>