
<svg width="111px" height="49px" viewBox="0 0 111 49" version="1.1" xmlns="http://www.w3.org/2000/svg" xmlns:xlink="http://www.w3.org/1999/xlink">
    <!-- Generator: Sketch 43.1 (39012) - http://www.bohemiancoding.com/sketch -->
    <desc>Created with Sketch.</desc>
    <defs>
        <polygon id="path-1" points="109.926906 0.0226217222 109.926906 11.737155 3.14062972e-05 11.737155 3.14062972e-05 0.0226217222 109.926906 0.0226217222"></polygon>
        <polygon id="path-3" points="0.26964728 5.98359906 3.32292306 5.98359906 3.32292306 0.274381259 0.26964728 0.274381259"></polygon>
    </defs>
    <g id="Page-1" stroke="none" stroke-width="1" fill="none" fill-rule="evenodd" opacity="0.7">
        <g id="FABRIKA-MAIN" transform="translate(-257.000000, -1431.000000)">
            <g id="Bitmap" transform="translate(257.000000, 1431.000000)">
                <g id="Page-1" transform="translate(0.657166, 0.772333)">
                    <path d="M17.8344292,13.9099065 C20.1883978,13.9099065 21.6368915,11.4356883 21.6368915,7.84486403 C21.6368915,4.25437217 20.1883978,1.8107368 17.8344292,1.8107368 C15.4794631,1.8107368 14.0612294,4.25437217 14.0612294,7.84486403 C14.0612294,11.4356883 15.4794631,13.9099065 17.8344292,13.9099065 M17.8344292,3.32422173e-05 C21.9697524,3.32422173e-05 24.2030131,3.01709686 24.2030131,7.84486403 C24.2030131,12.6726312 21.9697524,15.6903597 17.8344292,15.6903597 C13.699106,15.6903597 11.4957728,12.6726312 11.4957728,7.84486403 C11.4957728,3.01709686 13.699106,3.32422173e-05 17.8344292,3.32422173e-05" id="Fill-1" fill="#221E1F"></path>
                    <path d="M29.75381,13.6081669 L36.5759627,13.6081669 L36.5759627,2.11234344 L31.6854675,2.11234344 C31.6854675,7.99621585 31.0214082,11.6771265 29.75381,13.6081669 L29.75381,13.6081669 Z M26.7657098,0.301972299 L38.9299312,0.301972299 L38.9299312,13.6081669 L40.771141,13.6081669 L40.771141,18.2554289 L38.4474325,18.7676914 L38.4474325,15.3886201 L28.4256915,15.3886201 L28.4256915,18.2554289 L26.071723,18.7676914 L26.071723,13.6081669 L27.1580933,13.6081669 C28.6072521,12.0690523 29.2713113,8.53872883 29.3311664,1.87100494 L26.7657098,1.44783152 L26.7657098,0.301972299 Z" id="Fill-3" fill="#221E1F"></path>
                    <path d="M45.1436567,6.6076552 L51.7842488,6.6076552 C51.5727608,3.620842 50.4564629,1.81080329 48.8264087,1.81080329 C46.8043035,1.81080329 45.3854048,3.620842 45.1436567,6.6076552 M53.5044182,14.0914755 C52.3881204,15.0870799 50.9389616,15.6904262 48.9770441,15.6904262 C44.8423859,15.6904262 42.6390527,12.6726977 42.6390527,7.84493052 C42.6390527,3.01716334 44.8423859,9.97266504e-05 48.9770441,9.97266504e-05 C52.2976727,9.97266504e-05 54.2595902,2.98691292 54.2595902,7.8146801 C54.2595902,7.99618261 54.1382174,8.26777152 53.8366141,8.26777152 L45.1436567,8.26777152 C45.2045094,11.6468429 46.6832632,13.909973 48.9770441,13.909973 C50.4262028,13.909973 51.5425007,13.5479653 52.7801714,13.1257891 C53.0219195,13.4276284 53.2633351,13.7896362 53.5044182,14.0914755" id="Fill-5" fill="#221E1F"></path>
                    <path d="M63.5530275,13.9099065 C65.0021862,13.9099065 66.1188166,13.5478988 67.3564873,13.1257226 L68.0804017,14.091409 C66.9641038,15.0870134 65.514945,15.6903597 63.5530275,15.6903597 C59.4187019,15.6903597 57.2150362,12.6726312 57.2150362,7.84486403 C57.2150362,3.01709686 59.4187019,3.32422173e-05 63.5530275,3.32422173e-05 C65.4850175,3.32422173e-05 66.9338437,0.603711903 68.0504741,1.5993163 L67.3262272,2.56500271 C66.0885565,2.14282655 65.0021862,1.8107368 63.5530275,1.8107368 C61.1990589,1.8107368 59.7808253,4.25437217 59.7808253,7.84486403 C59.7808253,11.4356883 61.1990589,13.9099065 63.5530275,13.9099065" id="Fill-7" fill="#221E1F"></path>
                    <path d="M77.3138175,13.9099065 C78.7629763,13.9099065 79.8792741,13.5478988 81.1172774,13.1257226 L81.8411917,14.091409 C80.7248939,15.0870134 79.2757351,15.6903597 77.3138175,15.6903597 C73.1791594,15.6903597 70.9758262,12.6726312 70.9758262,7.84486403 C70.9758262,3.01709686 73.1791594,3.32422173e-05 77.3138175,3.32422173e-05 C79.2458075,3.32422173e-05 80.6946338,0.603711903 81.8112641,1.5993163 L81.0870173,2.56500271 C79.8493466,2.14282655 78.7629763,1.8107368 77.3138175,1.8107368 C74.959849,1.8107368 73.5416153,4.25437217 73.5416153,7.84486403 C73.5416153,11.4356883 74.959849,13.9099065 77.3138175,13.9099065" id="Fill-9" fill="#221E1F"></path>
                    <path d="M90.3202669,13.9099065 C91.3763771,13.9099065 92.3423721,13.5478988 93.2481794,13.034639 L93.2481794,8.38837428 C88.2981617,8.38837428 86.9703758,9.59539918 86.9703758,11.1644318 C86.9703758,12.7028816 88.2682341,13.9099065 90.3202669,13.9099065 L90.3202669,13.9099065 Z M98.4695404,14.9656793 L94.1237267,15.7508605 C94.0023539,15.3888528 93.8819786,14.9357613 93.7616033,14.4833348 C92.8557959,15.2376007 91.6483853,15.6903597 90.3202669,15.6903597 C86.7286276,15.6903597 84.7065224,13.8497381 84.7065224,11.1644318 C84.7065224,8.44854269 86.7888153,6.60758872 93.2481794,6.60758872 L93.2481794,5.09972175 C93.2481794,2.83659162 91.920061,1.8107368 90.0485912,1.8107368 C88.630025,1.8107368 87.482802,2.14282655 86.2454639,2.56500271 L85.5511446,1.5993163 C86.66844,0.573461486 88.1169337,3.32422173e-05 90.0485912,3.32422173e-05 C93.5800428,3.32422173e-05 95.602148,1.74990355 95.602148,5.09972175 L95.602148,10.9832617 C95.602148,11.9489481 95.602148,12.8843841 95.7235209,13.8198201 L98.4695404,13.8198201 L98.4695404,14.9656793 Z" id="Fill-11" fill="#221E1F"></path>
                    <g id="Group-15" transform="translate(0.000000, 24.008859)">
                        <mask id="mask-2" fill="white">
                            <use xlink:href="#path-1"></use>
                        </mask>
                        <g id="Clip-14"></g>
                        <path d="M107.928344,11.6406266 C103.858196,8.98789767 99.8080005,6.57118849 95.8775148,3.72565471 C92.4059183,6.45816495 88.9908516,8.93471012 84.3155023,8.84495613 C79.8529711,8.76185059 77.6250308,5.81659016 75.683065,2.43918092 C74.1999883,3.52287719 72.6404301,4.30074507 70.7350424,4.6730579 C68.4139941,5.12515205 67.0606036,3.3865841 65.930007,1.69787948 C63.4692968,3.00762283 61.0617912,4.41044438 58.6110569,5.74013306 C57.254341,6.47478606 55.6814817,7.43881035 54.1019718,7.54518545 C50.7866636,7.76458408 49.1805514,5.67032441 48.0732319,2.94778684 C45.7089549,4.64978835 43.1285345,5.94623481 40.5215119,7.29586882 C38.380029,8.40615887 35.8528131,9.68266 33.3887777,9.86881642 C28.5970434,10.2245081 25.7506003,7.50529479 24.2375961,3.30347856 C21.3412737,4.88913231 16.5861176,7.91417406 14.0189983,5.7301604 C11.7544799,3.80211181 12.6622825,3.49960764 9.96547714,5.1484216 C7.1456363,6.87036844 4.30916904,8.63885439 2.18098728,11.2084778 C1.73539922,11.7503259 -0.509167487,11.9265096 0.106010054,11.1785598 C1.92494041,8.98457344 4.19943467,7.26927505 6.60028972,5.75010573 C8.18977548,4.749515 10.1117896,3.09072837 11.9573223,2.59541934 C12.4760666,2.45580202 14.0722029,2.11673141 14.3681532,2.87132974 C16.1604812,7.46207991 21.8699939,2.94778684 24.6565819,1.77433657 C24.9990861,1.62807082 26.0399,1.36545731 26.2094895,1.91727811 C27.8521798,7.24268127 31.5498956,10.177969 37.3325645,7.5219159 C40.9970275,5.83985972 44.7978271,3.98161978 47.8836907,1.36545731 C48.2428214,1.05962891 49.6460912,0.527753437 49.8921622,1.23581266 C50.3078227,2.42588403 50.7401096,3.84865092 51.5747559,4.81267521 C53.5200471,7.05984908 56.0638893,5.81659016 58.085662,4.61322191 C60.6295043,3.09737681 63.2564786,1.71450058 65.8901036,0.361542352 C66.2425837,0.18203438 67.3033493,-0.233493332 67.6192513,0.245194593 C68.0914416,0.959902258 68.5503308,2.00703209 69.2120623,2.56882556 C71.4998577,4.50019837 73.8608093,2.22643073 75.3305849,0.953253815 C75.7595465,0.580940984 76.9799257,0.175385937 77.3423817,0.823609169 C78.9950479,3.80876026 80.4382211,6.88366533 84.2755989,7.45875568 C88.8777919,8.1501938 91.9403785,5.08193717 95.1925063,2.51563801 C95.6779977,2.13335252 96.5758244,1.84414523 97.1244963,2.2530245 C101.201294,5.28471469 105.467634,7.81444741 109.710696,10.5801999 C110.595222,11.1552902 108.520245,12.0295605 107.928344,11.6406266" id="Fill-13" fill="#221E1F" mask="url(#mask-2)"></path>
                    </g>
                    <path d="M94.7765797,32.2077525 L94.7765797,32.5265453 C94.7762472,33.0886712 97.0098405,32.7060533 97.010173,31.9281854 C97.010173,31.8218103 97.0105055,31.7157676 97.0105055,31.6093926 C97.0108381,31.0472667 94.7769123,31.430217 94.7765797,32.2077525" id="Fill-16" fill="#221E1F"></path>
                    <path d="M46.9459273,31.5839623 L46.9858307,31.5640169 C46.9858307,31.5640169 46.9825055,31.5706654 46.9791802,31.5706654 C46.9625538,31.5773138 46.9525779,31.5839623 46.9459273,31.5839623 M47.7772483,30.3008127 C47.5145509,30.1645196 47.2152753,30.1578711 46.9259756,30.2210314 C46.6499771,30.1977618 46.3507015,30.2476251 46.2110396,30.2841916 C45.8352825,30.3839182 45.27996,30.6398833 45.2533578,31.0820048 C45.2699842,31.0687079 45.2832853,31.055411 45.2999118,31.0421141 C45.396345,30.9623328 45.2566831,31.1052743 45.2533578,31.1717588 C45.2500325,31.1418408 45.2500325,31.1119228 45.2533578,31.0820048 C45.1901774,31.145165 45.1402981,31.2182979 45.1136958,31.294755 C44.8742754,31.5274505 44.6980353,31.8665211 45.1003947,32.0726228 C45.5526333,32.3053184 46.2875211,32.1690253 46.6865552,31.8764938 C46.9126745,31.7069585 47.1088663,31.5407474 47.328335,31.3911574 C47.3316603,31.3911574 47.3316603,31.3878332 47.3349856,31.3878332 C47.4181177,31.3279972 47.504575,31.2748096 47.597683,31.2249463 C47.8969586,31.0121961 48.2693904,30.5567777 47.7772483,30.3008127" id="Fill-18" fill="#221E1F"></path>
                    <path d="M45.3009049,31.0426524 C45.3994216,30.9611615 45.2567423,31.107166 45.2533452,31.1750751 C45.249948,31.144516 45.249948,31.1139569 45.2533452,31.0833979 C45.2703308,31.069816 45.2839193,31.0562342 45.3009049,31.0426524" id="Fill-20" fill="#221E1F"></path>
                    <path d="M46.9459273,31.5843897 L46.9866929,31.5640169 C46.9866929,31.5640169 46.9832957,31.5708078 46.9798986,31.5708078 C46.962913,31.5775987 46.9527216,31.5843897 46.9459273,31.5843897" id="Fill-22" fill="#221E1F"></path>
                    <polygon id="Fill-24" fill="#221E1F" points="10.9763635 41.6480102 13.5315117 41.6480102 13.388857 42.1227091 11.6011843 42.1227091 11.6011843 45.6021719 10.9763635 45.6021719"></polygon>
                    <path d="M18.1671239,45.2144015 C18.7839641,45.2144015 19.164044,44.5661782 19.164044,43.6250911 C19.164044,42.6840039 18.7839641,42.0434264 18.1671239,42.0434264 C17.542303,42.0434264 17.1705363,42.6840039 17.1705363,43.6250911 C17.1705363,44.5661782 17.542303,45.2144015 18.1671239,45.2144015 M18.1671239,41.5690599 C19.2508339,41.5690599 19.8364165,42.3598923 19.8364165,43.6250911 C19.8364165,44.8902898 19.2508339,45.6811222 18.1671239,45.6811222 C17.0754331,45.6811222 16.4981638,44.8902898 16.4981638,43.6250911 C16.4981638,42.3598923 17.0754331,41.5690599 18.1671239,41.5690599" id="Fill-26" fill="#221E1F"></path>
                    <g id="Group-30" transform="translate(22.944460, 41.294812)">
                        <mask id="mask-4" fill="white">
                            <use xlink:href="#path-3"></use>
                        </mask>
                        <g id="Clip-29"></g>
                        <path d="M0.894468145,3.81700433 C1.12391274,3.88016454 1.3693187,3.91972278 1.65396301,3.91972278 C2.27113572,3.91972278 2.65055063,3.27116712 2.65055063,2.33007996 C2.65055063,1.3889928 2.27113572,0.748747696 1.65396301,0.748747696 C1.3693187,0.748747696 1.12391274,0.843820437 0.894468145,0.978118993 L0.894468145,3.81700433 Z M0.894468145,4.25181252 L0.894468145,5.84910105 L0.26964728,5.98373203 L0.26964728,0.329563339 L0.67300423,0.274381259 C0.704594428,0.369121578 0.728203945,0.47981816 0.760126671,0.590514743 C0.99755195,0.392723552 1.2978251,0.274381259 1.65396301,0.274381259 C2.73767307,0.274381259 3.32292306,1.0652136 3.32292306,2.33007996 C3.32292306,3.59561116 2.73767307,4.3864435 1.65396301,4.3864435 C1.35335734,4.3864435 1.10828391,4.330929 0.894468145,4.25181252 L0.894468145,4.25181252 Z" id="Fill-28" fill="#221E1F" mask="url(#mask-4)"></path>
                    </g>
                    <path d="M31.2274428,45.2144015 C31.844283,45.2144015 32.224363,44.5661782 32.224363,43.6250911 C32.224363,42.6840039 31.844283,42.0434264 31.2274428,42.0434264 C30.602622,42.0434264 30.2308552,42.6840039 30.2308552,43.6250911 C30.2308552,44.5661782 30.602622,45.2144015 31.2274428,45.2144015 M31.2274428,41.5690599 C32.3111529,41.5690599 32.8967354,42.3598923 32.8967354,43.6250911 C32.8967354,44.8902898 32.3111529,45.6811222 31.2274428,45.6811222 C30.1357521,45.6811222 29.5584828,44.8902898 29.5584828,43.6250911 C29.5584828,42.3598923 30.1357521,41.5690599 31.2274428,41.5690599" id="Fill-31" fill="#221E1F"></path>
                    <path d="M36.9233218,45.1355177 L38.7266233,45.1355177 L38.7266233,42.1227756 L37.4453914,42.1227756 C37.4453914,43.6645496 37.2711465,44.6212606 36.9233218,45.1355177 L36.9233218,45.1355177 Z M39.343796,41.6480767 L39.343796,45.1355177 L39.8262948,45.1355177 L39.8262948,46.3531801 L39.2171027,46.4874786 L39.2171027,45.601906 L36.5751646,45.601906 L36.5751646,46.3531801 L35.9583244,46.4874786 L35.9583244,45.1355177 L36.2509494,45.1355177 C36.6386775,44.7003771 36.8282187,43.6961297 36.8282187,41.7667514 C36.8282187,41.6952806 36.8757703,41.6480767 36.954912,41.6480767 L39.343796,41.6480767 Z" id="Fill-33" fill="#221E1F"></path>
                    <path d="M44.8496018,45.2144015 C45.2213685,45.2144015 45.5219742,45.1196611 45.8465219,45.0089646 L46.0360631,45.2622703 C45.7434381,45.5228892 45.3636907,45.6811222 44.8496018,45.6811222 C43.7579111,45.6811222 43.1806417,44.8902898 43.1806417,43.6250911 C43.1806417,42.3598923 43.7579111,41.5690599 44.8496018,41.5690599 C45.35571,41.5690599 45.73579,41.7272929 46.028415,41.9882443 L45.8385413,42.2412176 C45.5143261,42.130521 45.2213685,42.0434264 44.8496018,42.0434264 C44.2247809,42.0434264 43.8530142,42.6840039 43.8530142,43.6250911 C43.8530142,44.5661782 44.2247809,45.2144015 44.8496018,45.2144015" id="Fill-35" fill="#221E1F"></path>
                    <polygon id="Fill-37" fill="#221E1F" points="50.0232782 43.5539195 50.0232782 45.6019725 49.3984573 45.6019725 49.3984573 41.6877014 50.0232782 41.5530704 50.0232782 43.3800627 51.5183259 41.6481432 52.2222885 41.6481432 50.6560797 43.4668249 52.4281236 45.6019725 51.7241609 45.6019725"></polygon>
                    <path d="M57.0479406,45.2144015 C57.6647808,45.2144015 58.0445283,44.5661782 58.0445283,43.6250911 C58.0445283,42.6840039 57.6647808,42.0434264 57.0479406,42.0434264 C56.4231198,42.0434264 56.051353,42.6840039 56.051353,43.6250911 C56.051353,44.5661782 56.4231198,45.2144015 57.0479406,45.2144015 M57.0479406,41.5690599 C58.1316507,41.5690599 58.7172332,42.3598923 58.7172332,43.6250911 C58.7172332,44.8902898 58.1316507,45.6811222 57.0479406,45.6811222 C55.9565824,45.6811222 55.3786481,44.8902898 55.3786481,43.6250911 C55.3786481,42.3598923 55.9565824,41.5690599 57.0479406,41.5690599" id="Fill-39" fill="#221E1F"></path>
                    <path d="M62.7278582,43.3007135 L64.4679794,43.3007135 C64.4127797,42.5181917 64.1201547,42.0434929 63.6928557,42.0434929 C63.1631379,42.0434929 62.7910386,42.5181917 62.7278582,43.3007135 L62.7278582,43.3007135 Z M64.9192204,45.2620043 C64.6262629,45.5229557 64.2465155,45.6811887 63.7324265,45.6811887 C62.649049,45.6811887 62.0634665,44.8903563 62.0634665,43.6251576 C62.0634665,42.3599588 62.649049,41.5691264 63.7324265,41.5691264 C64.6106341,41.5691264 65.124723,42.3519806 65.124723,43.6171794 C65.124723,43.6647158 65.0931328,43.7358541 65.013991,43.7358541 L62.7202101,43.7358541 C62.7438196,44.6214268 63.1312152,45.2144679 63.7324265,45.2144679 C64.112174,45.2144679 64.4127797,45.1197276 64.7293467,45.009031 L64.9192204,45.2620043 Z" id="Fill-41" fill="#221E1F"></path>
                    <polygon id="Fill-43" fill="#221E1F" points="73.7314891 43.5539195 73.7314891 45.6019725 73.1066682 45.6019725 73.1066682 41.6877014 73.7314891 41.5530704 73.7314891 43.3800627 75.2265367 41.6481432 75.9304994 41.6481432 74.3642906 43.4668249 76.1360019 45.6019725 75.4320393 45.6019725"></polygon>
                    <path d="M80.7720796,45.2144015 C81.0567239,45.2144015 81.3097781,45.1196611 81.5472033,44.9853626 L81.5472033,43.7673678 C80.2420294,43.7673678 79.8938721,44.0838337 79.8938721,44.4950399 C79.8938721,44.898268 80.2340487,45.2144015 80.7720796,45.2144015 M80.7720796,45.6811222 C79.8306917,45.6811222 79.3006415,45.1987776 79.3006415,44.4950399 C79.3006415,43.7829916 79.8466531,43.300647 81.5472033,43.300647 L81.5472033,42.9053971 C81.5472033,42.3123559 81.1990461,42.0434264 80.7088992,42.0434264 C80.3291518,42.0434264 80.0285461,42.130521 79.7039984,42.2412176 L79.5221054,41.9882443 C79.8147304,41.7193148 80.1864971,41.5690599 80.7088992,41.5690599 C81.6419739,41.5690599 82.164376,42.0278025 82.164376,42.9053971 L82.164376,44.4475035 C82.164376,44.8347753 82.164376,45.2144015 82.2827562,45.6020057 L81.7686672,45.6811222 C81.737077,45.5860494 81.7134675,45.4753529 81.6815448,45.3646563 C81.4441195,45.5624475 81.127885,45.6811222 80.7720796,45.6811222" id="Fill-45" fill="#221E1F"></path>
                    <path d="M88.2237751,42.0752392 L88.2237751,45.1830541 C89.0624117,45.0723575 89.5688525,44.4789839 89.5688525,43.6249913 C89.5688525,42.7789769 89.0624117,42.1779576 88.2237751,42.0752392 L88.2237751,42.0752392 Z M87.6149156,45.1830541 L87.6149156,42.0752392 C86.7762789,42.1779576 86.2701707,42.7789769 86.2701707,43.6249913 C86.2701707,44.4713382 86.7762789,45.0723575 87.6149156,45.1830541 L87.6149156,45.1830541 Z M87.6149156,45.6653986 C86.2937802,45.5706583 85.5977983,44.8034279 85.5977983,43.6249913 C85.5977983,42.4468872 86.2937802,41.6799892 87.6149156,41.5845841 L87.6149156,40.8968026 L88.2237751,40.762504 L88.2237751,41.5845841 C89.5369297,41.6799892 90.248873,42.4468872 90.248873,43.6249913 C90.248873,44.8034279 89.5369297,45.5706583 88.2237751,45.6653986 L88.2237751,47.1440124 L87.6149156,47.278311 L87.6149156,45.6653986 Z" id="Fill-47" fill="#221E1F"></path>
                    <path d="M94.2122125,43.3007135 L95.9523337,43.3007135 C95.8971339,42.5181917 95.6045089,42.0434929 95.17721,42.0434929 C94.6474922,42.0434929 94.2753929,42.5181917 94.2122125,43.3007135 L94.2122125,43.3007135 Z M96.4035747,45.2620043 C96.1106172,45.5229557 95.7308697,45.6811887 95.2167808,45.6811887 C94.1334033,45.6811887 93.5478208,44.8903563 93.5478208,43.6251576 C93.5478208,42.3599588 94.1334033,41.5691264 95.2167808,41.5691264 C96.0949883,41.5691264 96.6090772,42.3519806 96.6090772,43.6171794 C96.6090772,43.6647158 96.577487,43.7358541 96.4983453,43.7358541 L94.2045644,43.7358541 C94.2281739,44.6214268 94.6155695,45.2144679 95.2167808,45.2144679 C95.5965283,45.2144679 95.8971339,45.1197276 96.213701,45.009031 L96.4035747,45.2620043 Z" id="Fill-49" fill="#221E1F"></path>
                </g>
            </g>
        </g>
    </g>
</svg>