
<svg width="119px" height="61px" viewBox="0 0 119 61" version="1.1" xmlns="http://www.w3.org/2000/svg" xmlns:xlink="http://www.w3.org/1999/xlink">
    <!-- Generator: Sketch 43.1 (39012) - http://www.bohemiancoding.com/sketch -->
    <desc>Created with Sketch.</desc>
    <defs>
        <polygon id="path-1" points="16.0020894 0.204642292 16.0020894 12.2690398 0.249897749 12.2690398 0.249897749 0.204642292 16.0020894 0.204642292"></polygon>
    </defs>
    <g id="Page-1" stroke="none" stroke-width="1" fill="none" fill-rule="evenodd" opacity="0.7">
        <g id="FABRIKA-MAIN" transform="translate(-452.000000, -1424.000000)">
            <g id="Bitmap" transform="translate(451.000000, 1424.000000)">
                <g id="Page-1" transform="translate(0.784152, 0.901818)">
                    <g id="Group-6">
                        <path d="M44.903771,9.76957016 C44.9297897,8.94722552 45.1403046,8.38975372 45.5542385,8.11013295 C45.9250049,7.8859644 46.4028027,7.8859644 47.0154248,8.08299676 C47.5216067,8.26882069 47.9982219,8.54667171 48.4677411,8.93424734 C48.5724072,9.01034666 48.6812127,9.10591326 48.7852874,9.22389671 C50.1128323,9.96719243 51.9495157,11.2142775 54.2894243,12.9769502 C55.4170983,13.8140428 56.4010781,14.5827049 57.2413637,15.2587501 C57.2922184,15.3395688 57.3590391,15.4192076 57.4388692,15.5106448 C57.6688982,15.7784672 57.8125923,16.000866 57.8516204,16.1737118 L57.8693604,16.2568901 C57.8693604,16.442714 57.7729729,16.6521346 57.6121301,16.906389 L57.5453094,17.0096245 L57.0137001,17.54055 C56.0196676,18.5357404 55.0191305,19.4925862 54.0209587,20.3939797 C53.4911234,20.897769 52.9873069,21.3744222 52.5639117,21.8262988 C52.0192931,22.409137 51.5882106,22.8993583 51.2978656,23.3105306 C51.0838027,23.6420641 50.5279487,24.1204869 49.6492264,24.7676262 C49.3299061,25.0625848 48.995211,25.3156593 48.6374539,25.5121017 C48.387911,25.6725592 48.1176714,25.7793342 47.8681284,25.8707714 C47.3767298,26.1775284 46.9208113,26.3338564 46.4855895,26.3338564 C45.726908,26.3338564 45.2485188,25.859563 45.0356385,24.9027172 C44.9830098,24.59773 44.9410251,24.2661965 44.9297897,23.9087067 L44.9297897,23.8833402 L44.8481857,23.5482672 C44.5052119,22.223903 44.4241992,21.0936216 44.5968687,20.1544733 C44.6761075,19.6489142 44.6761075,18.6295372 44.5826767,17.0609473 L44.530048,16.1737118 C44.4241992,14.7154363 44.3851711,13.8677252 44.3851711,13.6034423 C44.3851711,12.3687455 44.556658,11.0827259 44.903771,9.76957016 L44.903771,9.76957016 Z M71.069118,5.88378527 C71.957893,5.88378527 72.558097,6.09615548 72.837798,6.48963028 C72.9572475,6.65067769 73.0879323,6.97041284 73.2393138,7.44706597 C73.2393138,7.6977808 73.2511405,7.89894258 73.2635585,8.0299042 C73.3025865,8.56259948 73.5420768,9.68816158 73.9264439,11.4266477 C74.2871576,13.0318125 74.4592358,14.1992587 74.4592358,14.9425545 L74.3131763,18.431325 C74.3131763,19.3055824 74.4982639,21.0151626 74.8731696,23.5482672 L74.951817,24.1735795 C74.8980056,24.3617631 74.7129181,24.6272259 74.4083811,24.9422417 C74.1937269,24.9693779 73.9678373,24.9953342 73.742539,24.9953342 L73.0630962,24.9286736 C72.1205098,24.5045231 71.6019099,24.2390603 71.4942871,24.1735795 C70.7237789,23.7087247 69.937896,23.2049354 69.1283598,22.6215072 C68.3850529,22.0917615 67.7582389,21.6009504 67.2402303,21.147894 C66.6264256,20.5939617 65.5123524,19.5975914 63.8625305,18.1363664 L63.4911727,17.8054229 C63.4621974,17.7658984 63.4095687,17.7122159 63.3273732,17.6319872 C63.1582517,17.5016155 63.0246102,17.3842219 62.9317708,17.2756772 C62.7969466,17.1423559 62.6934632,16.984848 62.6018064,16.7978442 C62.5840664,16.7046373 62.5704657,16.6126102 62.5704657,16.5182234 C62.5704657,16.4238367 62.5840664,16.307623 62.6018064,16.1737118 C62.6792712,15.7118066 62.8909687,15.1785214 63.2374905,14.5455402 L63.2516825,14.5296124 C64.3279104,13.1126312 65.1634653,12.0891248 65.7228673,11.453194 L67.1184155,9.88814352 C67.7168455,9.19853026 68.155024,8.69415102 68.4376817,8.36202761 L69.8610226,6.62531125 C70.231789,6.34746023 70.5777194,6.09615548 70.9224672,5.8949937 L71.069118,5.88378527 Z M68.726844,25.9262236 C70.0981476,26.9190543 70.7758163,27.6747383 70.7900083,28.1661394 C70.8308104,28.2575766 70.8414544,28.3661213 70.8414544,28.497083 L70.8308104,28.6032681 C70.7356056,28.6958851 70.6161561,28.7761138 70.4836973,28.8563426 C70.3778485,28.9353915 70.2578077,28.9749159 70.1229836,29.0020521 L70.0455188,29.0285984 L62.9861735,29.2391989 C62.86495,29.2533569 62.4634342,29.3064494 61.7745301,29.4256127 C61.0844434,29.5565743 60.6829276,29.6120266 60.5948188,29.6120266 C57.1887349,29.6120266 54.3816724,29.5329777 52.1884146,29.3465638 C52.0039184,29.3713403 51.8182395,29.3849084 51.6290127,29.3849084 C51.0991774,29.3849084 50.7520643,29.2533569 50.5929955,28.9749159 C50.5533761,28.8935074 50.5279487,28.7914517 50.5279487,28.6829069 L50.5279487,28.5360175 C50.5279487,28.3242372 50.7934577,27.9390213 51.3363023,27.3691612 L51.4598911,27.2381996 C51.6290127,26.9037165 51.9891351,26.4288331 52.5438064,25.8182688 C53.3320546,24.918645 54.2078202,24.0544162 55.1645987,23.2049354 C55.6707806,22.7560084 56.1497611,22.3825907 56.5495029,22.0917615 L59.8059792,18.6431053 L60.0892282,18.602991 C60.2731331,18.5640564 60.3943566,18.5357404 60.4180099,18.5357404 C60.485422,18.5357404 60.6580915,18.602991 60.9224178,18.7339526 C61.4155904,19.172851 62.0270298,19.8347382 62.7336739,20.7113552 L62.9554241,20.897769 C63.5834208,21.4286946 64.5810013,22.409137 65.9505309,23.7883635 C66.1657764,24.0261002 66.5341775,24.3458353 67.1059975,24.7676262 L68.726844,25.9262236 Z M66.7606584,2.73952636 C67.3981165,2.83273329 67.838069,3.04451358 68.0367572,3.40023368 C68.0367572,3.83795227 67.9433264,4.26446244 67.7582389,4.67681459 C67.1609916,5.55048203 66.2426499,6.77161072 65.0055791,8.36202761 C62.9317708,11.0402519 61.3487697,12.9769502 60.2731331,14.1851007 C60.140083,14.2505815 60.0442868,14.2924657 59.9957975,14.2924657 C59.7551245,14.2924657 59.4488135,14.1851007 59.039019,13.9497237 C58.0118719,13.0453806 57.1887349,12.3421993 56.5914876,11.8513881 C55.1379886,10.6314392 53.7158304,9.68816158 52.3604928,9.01034666 C51.6845981,8.69415102 51.1110041,8.2281164 50.6326149,7.63524957 L50.461128,7.36801706 C50.2884585,7.2223075 50.1394423,7.07718786 50.0353675,6.94268672 C49.5031669,6.35807874 49.2524413,5.8949937 49.2524413,5.55048203 L49.2524413,5.23251664 C49.2524413,4.28864905 49.7680846,3.77129162 50.8076497,3.69224271 L51.0051553,3.67985445 C51.2848563,3.5754391 51.5639659,3.50877845 51.8560849,3.45332623 L51.9495157,3.45332623 C52.5438064,3.31115617 53.1611591,3.16131719 53.7826511,3.04451358 C54.2894243,2.97844285 54.8092069,2.9117822 55.3526429,2.85691989 C57.0681028,2.76725247 59.1827132,2.64631944 61.7236754,2.55075285 C61.7496941,2.53659483 61.8040968,2.53659483 61.8661869,2.53659483 L62.1742719,2.56727053 C63.0535856,2.63275134 63.9707446,2.65929762 64.927523,2.65929762 L65.8730661,2.64631944 C66.0670237,2.67463547 66.3626907,2.71298009 66.7606584,2.73952636 L66.7606584,2.73952636 Z M75.5774484,3.0863977 C75.3763949,2.67463547 75.2179173,2.36669867 75.0966939,2.1419402 C74.8731696,1.71719978 74.5644933,1.37327803 74.2055535,1.10781527 C73.1683537,0.312016905 71.4014477,-0.059041041 68.9148882,0.0076196075 C62.4131709,0.257154602 57.2922184,0.656528576 53.5189161,1.21341045 C49.9543548,1.72840821 47.2815251,2.42038113 45.5140277,3.29463849 C43.9576366,4.05150231 42.9222108,5.0466927 42.4172116,6.29082817 C42.0842905,7.1025543 41.8962463,8.42868826 41.8448003,10.2592015 C41.8045895,12.237194 41.8045895,14.2128268 41.8962463,16.1737118 C41.9908598,18.4443032 42.1635293,20.7225636 42.4414563,22.9801769 C42.5484877,23.9370227 42.7223399,25.2867533 42.9748395,27.0246495 C43.120899,28.0870905 43.1989551,28.8286165 43.1989551,29.2391989 C43.3065779,29.5329777 43.4017827,29.7972606 43.5348328,29.9954728 C43.7045457,30.3140281 43.9452186,30.5948287 44.2219629,30.8461334 C44.3715704,30.9658866 44.5826767,31.0449356 44.8617863,31.0832802 C45.2763115,31.1517106 45.5938578,31.2154216 45.8575928,31.3103983 L46.6830951,31.5617031 L47.7362609,31.6678882 C48.651646,31.7610951 51.0157993,31.8808483 54.846461,32.0525142 C58.8344175,32.2389281 61.2441035,32.3309551 62.0932592,32.3309551 C63.7010963,32.3309551 64.9659597,32.3044089 65.8837101,32.2389281 C66.7056644,32.1846557 69.7131891,32.1846557 74.8867703,32.1994036 C75.0292818,32.146901 75.2303354,32.0778806 75.4840176,32.039536 C75.6939412,31.9864435 75.9097781,31.9333509 76.1084664,31.8666903 C76.373384,31.6932546 76.6016389,31.5068408 76.7465157,31.3493328 C76.8517732,31.2443276 76.9978327,31.0325473 77.1852856,30.7653148 C77.239097,30.6738776 77.3975745,30.2998701 77.6388388,29.6503712 L77.8239263,29.1866962 L77.8239263,29.1336037 C77.849945,28.6829069 77.860589,28.3785096 77.890747,28.2457782 L77.9552024,27.5833012 L77.9291837,27.5290288 C77.860589,27.1585607 77.835753,26.9438309 77.835753,26.864782 L77.835753,26.8535735 C77.7689322,26.5603847 77.7038855,26.350964 77.6636748,26.2028948 C77.5040146,25.6867172 77.4259585,25.0354486 77.3975745,24.2661965 C77.4117665,23.4049173 77.4117665,22.7560084 77.3975745,22.3171099 L77.3975745,18.431325 C77.4117665,17.833149 77.3975745,17.0768751 77.3975745,16.1737118 C77.3975745,15.5767155 77.3709644,15.0623077 77.3579551,14.6210496 C77.3041437,13.0866748 77.2113043,11.7982956 77.1320655,10.7376244 C77.0120247,9.34423982 76.8381725,8.06883874 76.6412583,6.90198243 C76.373384,5.43131875 76.0162182,4.17125551 75.5774484,3.0863977 L75.5774484,3.0863977 Z" id="Fill-1" fill="#333333"></path>
                        <g id="Group-2" transform="translate(0.000000, 42.517860)">
                            <path d="M15.1397076,2.1258385 C15.1397076,2.80365341 14.9244621,3.34224786 14.4939709,3.74339158 C14.0593404,4.14571514 13.5306878,4.34392734 12.9062391,4.34392734 C12.5313334,4.34392734 12.1629323,4.29732387 11.8010359,4.20470687 C11.4367741,4.11267978 11.1239584,4.01711318 10.8590408,3.92154659 C10.7342693,4.00885434 10.5509558,4.19821778 10.3079175,4.48668731 C10.0654706,4.77397701 9.79523093,5.12438785 9.49010258,5.53732992 C9.7686209,6.72778292 9.99569315,7.57490408 10.1665887,8.07692365 C10.3363015,8.57894323 10.5012837,9.08981156 10.6579872,9.60126981 C10.7880807,10.0124421 10.9861776,10.3315874 11.2410426,10.5628349 C11.4982729,10.7952623 11.9068846,10.9102962 12.4615559,10.9102962 C12.6620182,10.9102962 12.9186571,10.8701818 13.2237855,10.7952623 C13.5247745,10.7150336 13.7749088,10.6371645 13.971823,10.5616551 L13.7128187,11.617607 C12.9405365,11.9461909 12.2664157,12.1851073 11.6874997,12.3355362 C11.1103577,12.4853752 10.5964885,12.557935 10.1429353,12.557935 C9.81711028,12.557935 9.49187658,12.5266694 9.17137355,12.4647281 C8.85323586,12.3998372 8.55756886,12.2895227 8.29501656,12.1255257 C8.00644557,11.9544497 7.76163329,11.73854 7.56294507,11.4831058 C7.36189151,11.2247221 7.19336132,10.8672322 7.05262382,10.4065068 C6.95978439,10.1198071 6.87285829,9.79358283 6.79361953,9.42724422 C6.71556344,9.06208545 6.63750735,8.7388108 6.55708593,8.45683036 C6.33178767,8.79308319 6.16976216,9.04084843 6.06687004,9.20484542 C5.96634326,9.36530291 5.81673576,9.59714039 5.62277821,9.89445868 C5.00483417,10.8365565 4.46908557,11.5067025 4.01730639,11.9078462 C3.56375321,12.3113496 3.0226826,12.5101517 2.38995522,12.5101517 C1.91274868,12.5101517 1.50709355,12.3508741 1.1706245,12.0334986 C0.837112125,11.7114038 0.669173268,11.2978718 0.669173268,10.7822841 C0.669173268,10.0867717 0.885010179,9.54050834 1.31727533,9.13995453 C1.75249716,8.74117047 2.28351509,8.53941877 2.9079638,8.53941877 C3.28582623,8.53941877 3.6453573,8.5813029 3.98655702,8.67332999 C4.33071341,8.76240749 4.65653845,8.86387326 4.96284946,8.97182811 C5.07697692,8.87685144 5.25910779,8.69456701 5.50746808,8.42084541 C5.75109768,8.14771372 6.01897199,7.81028106 6.30872565,7.40854742 C6.05031269,6.36380398 5.83861512,5.57744429 5.67245026,5.04651877 C5.50865074,4.51618317 5.33775522,3.99174674 5.16331169,3.46908006 C5.02375686,3.05200857 4.82211197,2.73050367 4.55542033,2.50397545 C4.29109403,2.27390773 3.89371758,2.16064362 3.36033431,2.16064362 C3.12734872,2.16064362 2.86479642,2.20016807 2.57740809,2.28511616 C2.28588043,2.36475498 2.04579883,2.44203414 1.85184127,2.51223429 L2.10670623,1.45274292 C2.81039369,1.1406767 3.47564444,0.906479556 4.10541516,0.750151487 C4.73459453,0.592053666 5.25733379,0.510645086 5.6783636,0.510645086 C6.06154804,0.510645086 6.38678174,0.538961114 6.65938671,0.596773004 C6.93494836,0.649865555 7.22292802,0.765489335 7.52628236,0.948953598 C7.80716601,1.11884976 8.05079562,1.33180989 8.25776252,1.59255331 C8.46650342,1.85624632 8.63621628,2.2113765 8.76926643,2.66443294 C8.86387987,2.97531933 8.9496233,3.2991839 9.02886206,3.63189722 C9.10691815,3.96815005 9.17373889,4.25367 9.23109829,4.49730582 C9.39430647,4.24954058 9.563428,3.99174674 9.7408282,3.72510415 C9.91349773,3.45964139 10.0654706,3.22898375 10.1908334,3.0254623 C10.7910374,2.08454429 11.3279687,1.40613946 11.8057665,1.00145623 C12.2817904,0.592053666 12.821087,0.384992713 13.4218824,0.384992713 C13.9138723,0.384992713 14.3230754,0.547219955 14.6506744,0.869904687 C14.9776821,1.19376925 15.1397076,1.61084075 15.1397076,2.1258385" id="Fill-3" fill="#333333"></path>
                            <path d="M24.2109486,3.37103582 C24.2109486,3.20231949 24.1867039,2.99938795 24.1423539,2.76578073 C24.0920905,2.53335333 24.0128517,2.33573105 23.8969503,2.16996431 C23.7550301,1.96880253 23.5711252,1.81601396 23.3434617,1.70982886 C23.1157981,1.60659334 22.8355057,1.5505512 22.5002194,1.5505512 C21.9857588,1.5505512 21.5121002,1.73696505 21.0768784,2.10507341 C20.6434306,2.47731119 20.2555155,2.96930217 19.9214118,3.58399594 C19.5914474,4.18866112 19.3353998,4.89479206 19.1479469,5.69943918 C18.9599027,6.50644597 18.8670633,7.32761077 18.8670633,8.1700126 C18.8670633,8.55050922 18.8972213,8.90327973 18.9539894,9.23009388 C19.0125314,9.55749795 19.1077362,9.83180947 19.241969,10.0577478 C19.3827065,10.2990239 19.5737074,10.4883874 19.8114237,10.6181692 C20.0479573,10.7503106 20.3483549,10.8157914 20.7090687,10.8157914 C21.0768784,10.8157914 21.4304962,10.7090164 21.7681479,10.4948765 C22.1093476,10.2813264 22.4251199,10.0194032 22.7160563,9.70910668 L24.2109486,3.37103582 Z M22.8171744,10.7821662 L22.7255176,10.7821662 C22.45173,11.0140036 22.1927257,11.2246041 21.9420001,11.4210465 C21.6977791,11.6121797 21.3867374,11.8074423 21.0136057,12.0003453 C20.684824,12.1714213 20.3394849,12.3112316 19.9746318,12.4239058 C19.6121441,12.53658 19.2112196,12.593802 18.7754065,12.593802 C17.418295,12.593802 16.3929218,12.194428 15.704609,11.3986297 C15.0186616,10.6004716 14.6762792,9.50676507 14.6762792,8.1222293 C14.6762792,7.05624884 14.8672801,6.05751895 15.2469165,5.12426987 C15.6312836,4.18866112 16.1445615,3.36749631 16.7832022,2.66254521 C17.4336696,1.96172352 18.1893945,1.40602148 19.0568815,0.998388663 C19.9225945,0.591935682 20.8379795,0.38487473 21.7971232,0.38487473 C22.501402,0.38487473 23.1157981,0.468053061 23.6444507,0.63087022 C24.1719206,0.794867214 24.6035944,1.01844585 24.9406548,1.29452712 L28.5341915,0.559490234 L28.6956257,0.747673834 L26.9701131,7.92991628 C26.9074317,8.17237226 26.8423849,8.47558973 26.7708335,8.83661908 C26.7016475,9.19764843 26.6649847,9.47254987 26.6649847,9.66073347 C26.6649847,10.106121 26.7643289,10.4093385 26.9701131,10.5774649 C27.173532,10.7432316 27.5247844,10.8287696 28.0232789,10.8287696 C28.2444379,10.8287696 28.5063988,10.7857057 28.8133012,10.6995777 C29.1231602,10.6152196 29.3389971,10.5444295 29.4631772,10.4895672 L29.207721,11.5419796 C28.4360301,11.8440172 27.8157207,12.0740849 27.3515235,12.2386718 C26.8873263,12.3973596 26.3515777,12.4769984 25.7436864,12.4769984 C24.9406548,12.4769984 24.2966921,12.3171308 23.8183029,12.0027049 C23.338731,11.6876891 23.0069926,11.2782866 22.8171744,10.7821662 L22.8171744,10.7821662 Z" id="Fill-5" fill="#333333"></path>
                            <path d="M31.3615368,3.32637908 C31.3615368,2.87686214 31.2740194,2.57128501 31.0924798,2.41318719 C30.9127143,2.25567928 30.6158646,2.17132112 30.2013395,2.17132112 C29.9376045,2.17132112 29.6632255,2.21792458 29.3782025,2.30523233 C29.0919969,2.39430984 28.8838473,2.46392007 28.7496145,2.51229329 L29.0068448,1.45929101 C29.5632901,1.2333527 30.1788688,1.01980266 30.8577202,0.8227703 C31.537163,0.624558106 32.0959736,0.523682257 32.5341521,0.523682257 C33.4625465,0.523682257 34.1597293,0.736642382 34.6292485,1.1613828 C35.099359,1.58317363 35.332936,2.13120675 35.332936,2.79781323 C35.332936,3.17005101 35.2625672,3.62605704 35.1271517,4.15580273 C34.9899622,4.69144758 34.9219588,5.07666354 34.9219588,5.31675986 C34.9219588,5.79813233 35.0094763,6.12730616 35.1785978,6.30133174 C35.350676,6.477717 35.6096803,6.56502475 35.954428,6.56502475 C36.2530517,6.56502475 36.58479,6.5154717 36.9478691,6.41931519 C37.3085829,6.32315868 37.753266,6.12435657 38.2677266,5.81995927 L39.4362026,0.720714616 L43.1651548,0.559667209 L43.307075,0.721894451 L41.6442438,7.90059739 C41.588067,8.12535586 41.5265683,8.42562374 41.4556082,8.79845143 C41.3864221,9.17068922 41.3491681,9.44795032 41.3491681,9.62787508 C41.3491681,10.0797517 41.4467382,10.3835591 41.6442438,10.5493258 C41.8370186,10.712143 42.1859057,10.7959112 42.6844003,10.7959112 C42.9209339,10.7959112 43.1834862,10.7510775 43.4838838,10.6726185 C43.7801422,10.5882604 43.9924311,10.5180602 44.1272552,10.4561189 L43.8688423,11.5061716 C43.0983341,11.809979 42.4815727,12.0424064 42.0209235,12.2022739 C41.563231,12.3627314 41.0262997,12.4394207 40.419591,12.4394207 C39.5686614,12.4394207 38.8714786,12.2217412 38.3209467,11.7793033 C37.7704147,11.339225 37.4948531,10.7510775 37.4948531,10.0095515 C37.4948531,9.60663806 37.5060884,9.30224076 37.5309244,9.09871931 C37.5539865,8.89755753 37.6113459,8.59316023 37.7065506,8.188477 L37.9897996,6.96085922 C37.3499762,7.36613237 36.6598895,7.72598189 35.9189479,8.03627836 C35.1774151,8.34834458 34.3465908,8.50113314 33.4359365,8.50113314 C32.5749542,8.50113314 31.9369048,8.28640327 31.5146923,7.85222418 C31.0924798,7.41804508 30.8813736,6.80689082 30.8813736,6.01876138 C30.8813736,5.59992014 30.9606123,5.10674932 31.1208639,4.53924894 C31.2811154,3.97056871 31.3615368,3.5700149 31.3615368,3.32637908" id="Fill-7" fill="#333333"></path>
                            <path d="M53.3821054,3.37103582 C53.3821054,3.20231949 53.3602261,2.99938795 53.3111454,2.76578073 C53.2656126,2.53335333 53.1834172,2.33573105 53.0651504,2.16996431 C52.9244129,1.96880253 52.742282,1.81601396 52.5158011,1.70982886 C52.2910942,1.60659334 52.0084366,1.5505512 51.6725588,1.5505512 C51.1557329,1.5505512 50.6803004,1.73696505 50.2486266,2.10507341 C49.8128134,2.47731119 49.4284463,2.96930217 49.0931599,3.58399594 C48.7661522,4.18866112 48.5083306,4.89479206 48.319695,5.69943918 C48.1328335,6.50644597 48.0376287,7.32761077 48.0376287,8.1700126 C48.0376287,8.55050922 48.0666041,8.90327973 48.1257375,9.23009388 C48.1836882,9.55749795 48.2812583,9.83180947 48.4137172,10.0577478 C48.551498,10.2990239 48.7413162,10.4883874 48.9825805,10.6181692 C49.2191141,10.7503106 49.5206944,10.8157914 49.8831821,10.8157914 C50.2486266,10.8157914 50.6028356,10.7090164 50.9428527,10.4948765 C51.2810957,10.2813264 51.5968681,10.0194032 51.8872131,9.70910668 L53.3821054,3.37103582 Z M51.9889225,10.7821662 L51.8943091,10.7821662 C51.6222954,11.0140036 51.3632912,11.2246041 51.1172962,11.4210465 C50.8689359,11.6121797 50.5596682,11.8074423 50.1841712,12.0003453 C49.8559808,12.1714213 49.5135984,12.3112316 49.1487453,12.4239058 C48.7880316,12.53658 48.3853331,12.593802 47.947746,12.593802 C46.5847211,12.593802 45.5658526,12.194428 44.8769485,11.3986297 C44.189227,10.6004716 43.8468447,9.50676507 43.8468447,8.1222293 C43.8468447,7.05624884 44.0390282,6.05751895 44.4216213,5.12426987 C44.8000751,4.18866112 45.3145356,3.36749631 45.9555417,2.66254521 C46.6024611,1.96172352 47.3629166,1.40602148 48.2268556,0.998388663 C49.0978906,0.591935682 50.008545,0.38487473 50.9706454,0.38487473 C51.6749242,0.38487473 52.2910942,0.468053061 52.8156075,0.63087022 C53.3407121,0.794867214 53.7729772,1.01844585 54.1118116,1.29452712 L57.7023917,0.559490234 L57.8673738,0.747673834 L56.1424526,7.92991628 C56.0803625,8.17237226 56.0105851,8.47558973 55.9443557,8.83661908 C55.8710303,9.19764843 55.8373242,9.47254987 55.8373242,9.66073347 C55.8373242,10.106121 55.939625,10.4093385 56.1424526,10.5774649 C56.3417321,10.7432316 56.6971239,10.8287696 57.1962098,10.8287696 C57.4132293,10.8287696 57.6757816,10.7857057 57.988006,10.6995777 C58.2919517,10.6152196 58.5095626,10.5444295 58.6372907,10.4895672 L58.3771038,11.5419796 C57.6054129,11.8440172 56.9898342,12.0740849 56.523863,12.2386718 C56.0573005,12.3973596 55.5245085,12.4769984 54.9154345,12.4769984 C54.1118116,12.4769984 53.4708055,12.3171308 52.9876857,12.0027049 C52.5104791,11.6876891 52.1769667,11.2782866 51.9889225,10.7821662 L51.9889225,10.7821662 Z" id="Fill-9" fill="#333333"></path>
                            <path d="M74.0855367,10.1460375 L73.8283064,11.1996297 C73.0566156,11.5016673 72.4374889,11.7323249 71.9762483,11.8939622 C71.5114598,12.0550097 70.9798506,12.1316989 70.3672285,12.1316989 C69.4358775,12.1316989 68.71445,11.9016312 68.1982154,11.4391361 C67.6802068,10.9754611 67.4223852,10.399112 67.4223852,9.71598778 C67.4223852,9.53075377 67.4348032,9.28829778 67.4513606,8.99628875 C67.4714659,8.70427971 67.538878,8.34089069 67.6488661,7.90317209 L68.4962477,4.79902756 C68.5819912,4.46159489 68.6458552,4.1607371 68.689614,3.8940945 C68.7345553,3.62391241 68.757026,3.40151361 68.757026,3.23220736 C68.757026,2.85878974 68.6677346,2.56737062 68.4861951,2.3544105 C68.3093862,2.14616971 68.0042579,2.04234428 67.576132,2.04234428 C67.3123971,2.04234428 66.931578,2.14439996 66.4395881,2.34969116 C65.9499635,2.55793195 65.4006142,2.93901849 64.7927229,3.5006197 L62.8501907,11.9358464 L58.980501,11.9358464 L60.6456975,4.75183418 C60.6918216,4.53120513 60.750955,4.2498146 60.8260544,3.89940376 C60.8999711,3.54722317 60.9395905,3.25226454 60.9395905,3.02101698 C60.9395905,2.57503955 60.8461598,2.272412 60.6634375,2.10664526 C60.4789413,1.93674909 60.1477943,1.85475059 59.6611264,1.85475059 C59.4109921,1.85475059 59.1549445,1.89427505 58.8935749,1.97096429 C58.6322052,2.04824345 58.406907,2.12316294 58.2188628,2.19454293 L58.4772757,1.14272048 C59.1082291,0.883156893 59.7161205,0.664297595 60.2938538,0.48142325 C60.8727698,0.299138822 61.4179797,0.207111732 61.9330316,0.207111732 C62.8555127,0.207111732 63.5432341,0.386446574 64.0021093,0.75101543 C64.4574365,1.1126347 64.7625648,1.62114336 64.9086243,2.27359184 L64.9896371,2.27359184 C65.75778,1.58279874 66.5460282,1.04243455 67.3620691,0.656038754 C68.17811,0.270232877 69.0467797,0.0761501034 69.9645301,0.0761501034 C70.8337911,0.0761501034 71.5102772,0.316246422 71.9975364,0.791129803 C72.4830216,1.26719302 72.7272425,1.8411825 72.7272425,2.51899741 C72.7272425,2.69892217 72.7142332,2.94904708 72.6876231,3.2711419 C72.6604218,3.59677621 72.5947837,3.9418778 72.4924829,4.30703658 L71.6037079,7.5887462 C71.5250605,7.86010813 71.4552831,8.17512394 71.393193,8.52376503 C71.3311029,8.87594563 71.2979882,9.13963864 71.2979882,9.31779364 C71.2979882,9.77085009 71.3991064,10.0776071 71.5983859,10.2410141 C71.7976655,10.4050111 72.1477352,10.4864197 72.6480038,10.4864197 C72.880398,10.4864197 73.1453157,10.4474852 73.4421653,10.3637169 C73.7401977,10.2823083 73.9536692,10.2079788 74.0855367,10.1460375" id="Fill-11" fill="#333333"></path>
                            <path d="M82.3766308,10.0662217 L82.293844,10.0662217 C81.413939,10.869099 80.6032201,11.4242111 79.8634613,11.7374572 C79.1242938,12.045394 78.3029308,12.2034918 77.4082425,12.2034918 C76.5431208,12.2034918 75.8713654,11.9592661 75.3929762,11.4802533 C74.9122217,10.9959312 74.6756881,10.4172224 74.6756881,9.73999741 C74.6756881,9.49931118 74.6857407,9.25331569 74.7141248,9.00260086 C74.7419175,8.75542554 74.8152429,8.40383486 74.932327,7.95195825 L75.8145974,4.76345555 C75.8690001,4.54223658 75.9328642,4.24668804 76.0073722,3.86619142 C76.0818803,3.49100405 76.1191344,3.21138328 76.1191344,3.03499802 C76.1191344,2.58843067 76.0304343,2.28639304 75.8553994,2.11531704 C75.6791819,1.95073013 75.3373908,1.8675518 74.8282522,1.8675518 C74.578118,1.8675518 74.3220703,1.90412667 74.0624747,1.98199574 C73.7993311,2.05986482 73.5746242,2.13360447 73.3859886,2.20557438 L73.6426276,1.1525721 C74.2759463,0.894188345 74.8820636,0.674739131 75.459797,0.492454702 C76.0381216,0.309580357 76.5862882,0.220502853 77.1025228,0.220502853 C78.0315085,0.220502853 78.7487967,0.452930247 79.2520219,0.914245532 C79.7570211,1.3785104 80.0071554,1.9530898 80.0071554,2.64034339 C80.0071554,2.78074369 79.9935547,3.03853753 79.9610314,3.41254506 C79.9290993,3.78596267 79.8676006,4.13283401 79.7765352,4.45197924 L78.9155529,7.49418247 C78.8398621,7.76672423 78.7783634,8.06050302 78.729874,8.37020957 C78.6819759,8.68109596 78.6600966,8.90998385 78.6600966,9.04861441 C78.6600966,9.43913962 78.756484,9.73409824 78.9439369,9.93643986 C79.1361204,10.1370117 79.4371095,10.2414271 79.8510433,10.2414271 C80.1946083,10.2414271 80.6239168,10.1104654 81.1484301,9.84500268 C81.6729433,9.58366935 82.1596112,9.23207867 82.5989724,8.79377016 L84.3930797,0.418715047 L88.1048833,0.252358384 L88.2686828,0.442311737 L86.2072924,9.93643986 C85.8968421,11.354011 85.4580723,12.5255866 84.8957136,13.4511668 C84.3363117,14.3708478 83.6846616,15.1047048 82.9425374,15.6503783 C82.2358933,16.1742248 81.4665677,16.5470525 80.6398828,16.7771202 C79.8120152,17.0077779 78.9764603,17.1234016 78.1237566,17.1234016 C77.1953622,17.1234016 76.4254454,17.0532015 75.8145974,16.92106 C75.2019753,16.7812496 74.7235861,16.5924761 74.3794297,16.3512 C74.0672054,16.1311608 73.8555078,15.8910645 73.7413803,15.6226522 C73.6296182,15.35306 73.5722588,15.089367 73.5722588,14.832753 C73.5722588,14.3802865 73.7331017,13.9785528 74.0518307,13.6287319 C74.3717424,13.2777311 74.8069642,13.1019358 75.3616355,13.1019358 C75.783848,13.1019358 76.1599364,13.2151999 76.4899008,13.4405483 C76.8216392,13.6682563 77.1108015,13.9419779 77.3603444,14.2605333 C77.6022,14.5631608 77.8192196,14.9000035 78.0090378,15.2728312 C78.1994474,15.6403497 78.3472809,15.9406176 78.4478077,16.1754046 C78.5885452,16.1529878 78.7612147,16.1040246 78.9669989,16.0308749 C79.1775138,15.9547756 79.349592,15.8727771 79.4891468,15.7795702 C79.6913831,15.6444791 79.8705573,15.5176469 80.0248955,15.3831458 C80.179825,15.2480547 80.3607732,15.0457131 80.5641921,14.7725814 C80.9526985,14.2505047 81.2992202,13.606315 81.6025746,12.8358831 C81.9088856,12.0654512 82.1655245,11.139871 82.3766308,10.0662217" id="Fill-13" fill="#333333"></path>
                            <path d="M98.0034005,9.15367867 C98.3375042,8.47586375 98.5941432,7.76383364 98.7638561,7.01522866 C98.9347516,6.2707531 99.0199037,5.43248069 99.0199037,4.50336103 C99.0199037,4.12227449 98.992111,3.77304349 98.9371169,3.44917892 C98.8844882,3.12531435 98.7886921,2.84864317 98.6473633,2.61503594 C98.5066258,2.3708102 98.3185815,2.1861661 98.0808653,2.05166497 C97.8419663,1.91893359 97.5433427,1.85463261 97.1873596,1.85463261 C96.7716518,1.85463261 96.3677707,1.98205473 95.9703942,2.23807882 C95.5730178,2.49705249 95.2826728,2.73655889 95.0940372,2.96367703 L93.6417209,9.37430772 C93.6417209,9.91408199 93.7978331,10.3600594 94.1100575,10.71224 C94.4222818,11.06855 94.8711043,11.2461151 95.4553423,11.2461151 C95.9420102,11.2461151 96.4032507,11.0608811 96.8526646,10.6862837 C97.3008957,10.3122761 97.6840802,9.80022797 98.0034005,9.15367867 M103.212462,4.55232417 C103.212462,5.59588777 103.024418,6.59107816 102.658382,7.53730542 C102.285841,8.48530243 101.779068,9.30410756 101.138653,9.99490066 C100.479316,10.71224 99.7318698,11.2667622 98.9016369,11.6537479 C98.0767259,12.0425034 97.1619322,12.2383559 96.1643518,12.2383559 C95.4157229,12.2383559 94.8125622,12.1669759 94.3542784,12.0248059 C93.8983599,11.8790963 93.5027574,11.6732152 93.1651057,11.4118819 L92.4578703,14.5236953 C92.4300776,14.6174922 92.4076069,14.7301664 92.3851362,14.8575885 C92.3626655,14.9885501 92.3484735,15.0782175 92.3484735,15.1324899 C92.3484735,15.3141844 92.3886842,15.4758218 92.4667403,15.6233011 C92.5465704,15.77373 92.6636545,15.8828647 92.818584,15.9542447 C92.9888882,16.030344 93.2685892,16.1082131 93.6505909,16.1813628 C94.0325927,16.2539226 94.3519131,16.3017059 94.601456,16.3146841 L94.4110465,17.1228707 L85.9514222,17.1228707 L86.1394664,16.3146841 C86.3417027,16.3017059 86.5959763,16.27221 86.899922,16.2279663 C87.204459,16.1849023 87.4362619,16.1418383 87.5917827,16.094055 C87.8572917,16.0061574 88.0589366,15.8740159 88.2002654,15.6893718 C88.3386376,15.5082672 88.4433037,15.260502 88.5053938,14.9448962 L90.8305191,4.7552557 C90.8784171,4.52813756 90.9387332,4.23848819 91.0138326,3.88807735 C91.0842014,3.53707659 91.1238207,3.24742722 91.1238207,3.02384859 C91.1238207,2.61090652 91.0345293,2.31063864 90.8677731,2.12776429 C90.6927383,1.9466597 90.3509472,1.85463261 89.8435826,1.85463261 C89.608823,1.85463261 89.3551407,1.89356715 89.0801704,1.97143622 C88.8069741,2.04871538 88.5810845,2.12304496 88.401319,2.19442494 L88.657958,1.14319241 C89.2924593,0.883038909 89.9015334,0.664179612 90.4786753,0.481305266 C91.0575913,0.298430921 91.6033926,0.206993748 92.1249492,0.206993748 C92.5524837,0.206993748 92.9350768,0.246518203 93.2614932,0.330286452 C93.5926402,0.412874866 93.8818025,0.539117156 94.1337108,0.722581419 C94.3418604,0.868880896 94.5157126,1.04880565 94.6546761,1.25881619 C94.7912742,1.47000657 94.9065844,1.68178686 95.0006065,1.90005624 L95.0940372,1.90005624 C95.8113254,1.27710363 96.5073255,0.815788344 97.1873596,0.520829722 C97.8620717,0.224691265 98.5113564,0.0766220372 99.1375791,0.0766220372 C100.488777,0.0766220372 101.507646,0.475996011 102.190045,1.27415404 C102.871853,2.07349191 103.212462,3.16601864 103.212462,4.55232417" id="Fill-15" fill="#333333"></path>
                            <g id="Group-19" transform="translate(103.160188, 0.015802)">
                                <mask id="mask-2" fill="white">
                                    <use xlink:href="#path-1"></use>
                                </mask>
                                <g id="Clip-18"></g>
                                <path d="M9.25177527,10.0527208 L9.17194518,10.0527208 C8.35176492,10.8072249 7.57297803,11.3652866 6.83026253,11.7280857 C6.08813835,12.0891151 5.22952138,12.2690398 4.25559428,12.2690398 C3.39283797,12.2690398 2.72108255,12.0295334 2.24683268,11.5558299 C1.77553948,11.0803566 1.53959721,10.5028276 1.53959721,9.82383287 C1.53959721,9.58432647 1.55260656,9.33774106 1.57921659,9.09056573 C1.60760062,8.83985091 1.6785607,8.48767031 1.79741883,8.03520379 L2.6767325,4.75113449 C2.73468323,4.53345503 2.7949993,4.23554682 2.86950738,3.85446028 C2.94401546,3.47514349 2.98422618,3.19906222 2.98422618,3.01913746 C2.98422618,2.59144746 2.89493474,2.28764008 2.72108255,2.11243466 C2.54249968,1.93722924 2.20129996,1.85169124 1.69393538,1.85169124 C1.4438011,1.85169124 1.18716214,1.88826611 0.92815785,1.96613518 C0.663240217,2.04459418 0.438533296,2.11774391 0.249897749,2.19030373 L0.51008471,1.13612162 C1.14281209,0.878327784 1.74597278,0.659468487 2.3254801,0.476594141 C2.90262208,0.294309713 3.44842337,0.204642292 3.96406662,0.204642292 C4.892461,0.204642292 5.61093181,0.437069686 6.11297438,0.89838497 C6.61679095,1.36323976 6.86869924,1.93722924 6.86869924,2.62448283 C6.86869924,2.76488313 6.85155055,3.02267697 6.82198385,3.3966845 C6.78886915,3.77069203 6.72618774,4.11697345 6.63275697,4.43611868 L5.77946201,7.54734222 C5.70081458,7.81752432 5.63872451,8.1142527 5.59319179,8.43044834 C5.54470241,8.74605406 5.52223171,8.9731722 5.52223171,9.11416242 C5.52223171,9.48050103 5.60915781,9.77192015 5.77946201,9.98841978 C5.95213153,10.2002001 6.24602453,10.3069751 6.66882835,10.3069751 C6.97573069,10.3069751 7.37665515,10.1801429 7.88047172,9.9205793 C8.38606229,9.66691488 8.88041751,9.30234602 9.37418141,8.82746264 L11.3048869,0.402854486 L15.0409352,0.236497823 L15.184038,0.402854486 L13.5217981,7.57447842 C13.4656214,7.80277639 13.40294,8.10186443 13.3284319,8.47528205 C13.2533325,8.84810975 13.2178524,9.12655069 13.2178524,9.30352586 C13.2178524,9.75540247 13.3171965,10.0621594 13.5176588,10.2255665 C13.7133903,10.3895635 14.0646427,10.4703822 14.5637286,10.4703822 C14.7949402,10.4703822 15.0628145,10.4314476 15.3596642,10.3476794 C15.6559225,10.2668607 15.8699854,10.1919412 16.0024442,10.1305898 L15.7440313,11.1835921 C14.9699751,11.4862197 14.353805,11.7168773 13.8919732,11.8785146 C13.433098,12.039562 12.8973494,12.1162513 12.2888667,12.1162513 C11.4284757,12.1162513 10.7431196,11.9245282 10.225111,11.540492 C9.71183312,11.155866 9.38600809,10.6573859 9.25177527,10.0527208" id="Fill-17" fill="#333333" mask="url(#mask-2)"></path>
                            </g>
                        </g>
                    </g>
                </g>
            </g>
        </g>
    </g>
</svg>