
<svg width="160px" height="160px" viewBox="35 873 160 160" version="1.1" xmlns="http://www.w3.org/2000/svg" xmlns:xlink="http://www.w3.org/1999/xlink">
    <!-- Generator: Sketch 42 (36781) - http://www.bohemiancoding.com/sketch -->
    <desc>Created with Sketch.</desc>
    <defs>
        <rect id="path-1" x="0" y="0" width="160" height="160" rx="80"></rect>
    </defs>
    <g id="Bitmap-Copy-6" stroke="none" stroke-width="1" fill="none" fill-rule="evenodd" transform="translate(35.000000, 873.000000)">
        <mask id="mask-2" fill="white">
            <use xlink:href="#path-1"></use>
        </mask>
        <use id="Mask" fill="#29A71F" xlink:href="#path-1"></use>
        <g id="Group" opacity="1" mask="url(#mask-2)">
            <g transform="translate(43.000000, 39.000000)">
                <path d="M75.1666667,37.5833333 L6.83333333,37.5833333 C3.06475,37.5833333 0,40.6480833 0,44.4166667 C0,48.18525 3.06475,51.25 6.83333333,51.25 L75.1666667,51.25 C78.93525,51.25 82,48.18525 82,44.4166667 C82,40.6480833 78.93525,37.5833333 75.1666667,37.5833333 Z" id="Shape" fill="#fff" fill-rule="nonzero"></path>
                <path d="M59.7916667,30.75 C55.0835,30.75 51.25,34.5835 51.25,39.2916667 C51.25,40.2346667 52.0153333,41 52.9583333,41 C53.9013333,41 54.6666667,40.2346667 54.6666667,39.2916667 L64.9166667,39.2916667 C64.9166667,40.2346667 65.682,41 66.625,41 C67.568,41 68.3333333,40.2346667 68.3333333,39.2916667 C68.3333333,34.5835 64.4998333,30.75 59.7916667,30.75 Z" id="Shape" fill="#fff" fill-rule="nonzero"></path>
                <path d="M41.7345833,27.9825 C41.2015833,23.7150833 37.5594167,20.5 33.2578333,20.5 L24.8255,20.5 C20.5273333,20.5 16.88175,23.7150833 16.34875,27.9825 L14.9615833,39.0798333 C14.8454167,40.016 15.50825,40.8701667 16.4444167,40.9863333 C17.39425,41.0956667 18.2313333,40.4396667 18.3509167,39.5035 L18.37825,39.2916667 L39.7050833,39.2916667 L39.7324167,39.5035 C39.84175,40.3679167 40.5763333,41 41.4270833,41 C41.4988333,41 41.5705833,40.9965833 41.6423333,40.9863333 C42.5785,40.8701667 43.2413333,40.016 43.1251667,39.0798333 L41.7345833,27.9825 Z" id="Shape" fill="#fff" fill-rule="nonzero"></path>
                <g id="Group" stroke-width="1" fill="none" fill-rule="evenodd" transform="translate(6.833333, 0.000000)">
                    <ellipse id="Oval" fill="#fff" fill-rule="nonzero" cx="22.2083333" cy="8.54166667" rx="8.54166667" ry="8.54166667"></ellipse>
                    <path d="M66.8129167,47.8435833 C65.8938333,47.7445 65.0328333,48.4141667 64.9269167,49.35375 L64.9064167,49.5416667 L3.42691667,49.5416667 L3.40641667,49.35375 C3.30391667,48.4175833 2.47708333,47.7410833 1.52041667,47.8435833 C0.58425,47.9495 -0.09225,48.7934167 0.01025,49.7295833 L3.42691667,80.4795833 C3.52258333,81.3474167 4.25375,82 5.125,82 L63.2083333,82 C64.0795833,82 64.81075,81.3474167 64.9064167,80.4795833 L68.3230833,49.7295833 C68.4255833,48.7934167 67.7525,47.9495 66.8129167,47.8435833 Z" id="Shape" fill="#fff" fill-rule="nonzero"></path>
                </g>
                <path d="M59.7916667,34.1666667 C58.8486667,34.1666667 58.0833333,33.4013333 58.0833333,32.4583333 L58.0833333,29.0416667 C58.0833333,28.0986667 58.8486667,27.3333333 59.7916667,27.3333333 C60.7346667,27.3333333 61.5,28.0986667 61.5,29.0416667 L61.5,32.4583333 C61.5,33.4013333 60.7346667,34.1666667 59.7916667,34.1666667 Z" id="Shape" fill="#fff" fill-rule="nonzero"></path>
            </g>
        </g>
    </g>
</svg>