<svg width="160px" height="160px" viewBox="35 624 160 160" version="1.1" xmlns="http://www.w3.org/2000/svg" xmlns:xlink="http://www.w3.org/1999/xlink">
    <!-- Generator: Sketch 42 (36781) - http://www.bohemiancoding.com/sketch -->
    <desc>Created with Sketch.</desc>
    <defs>
        <rect id="path-1" x="0" y="0" width="160" height="160" rx="80"></rect>
    </defs>
    <g id="Bitmap-Copy-4" stroke="none" stroke-width="1" fill="none" fill-rule="evenodd" transform="translate(35.000000, 624.000000)">
        <mask id="mask-2" fill="white">
            <use xlink:href="#path-1"></use>
        </mask>
        <use id="Mask" fill="#29A71F" xlink:href="#path-1"></use>
        <g id="Group" opacity="1" mask="url(#mask-2)" fill-rule="nonzero" fill="#fff">
            <g transform="translate(52.000000, 35.000000)" id="Shape">
                <path d="M23.942,34.781 C23.936,34.637 23.927,34.495 23.918,34.355 C23.909,34.216 23.898,34.079 23.885,33.943 L23.885,33.939 C23.873,33.804 23.859,33.67 23.843,33.539 C23.828,33.407 23.811,33.277 23.793,33.149 C23.775,33.021 23.755,32.895 23.735,32.771 L23.735,32.771 C23.714,32.648 23.693,32.526 23.669,32.407 C23.669,32.405 23.668,32.403 23.668,32.4 C23.645,32.28 23.621,32.163 23.595,32.047 C23.569,31.93 23.542,31.815 23.514,31.702 C23.486,31.589 23.457,31.477 23.426,31.367 C23.396,31.258 23.365,31.152 23.333,31.047 C23.332,31.044 23.331,31.042 23.331,31.039 C23.299,30.934 23.266,30.83 23.232,30.728 C23.198,30.625 23.162,30.523 23.125,30.423 C23.088,30.323 23.051,30.224 23.013,30.127 C22.974,30.03 22.936,29.935 22.895,29.841 C22.855,29.747 22.814,29.655 22.772,29.564 C22.73,29.473 22.688,29.383 22.645,29.295 C22.602,29.207 22.558,29.12 22.513,29.034 C22.469,28.95 22.424,28.866 22.378,28.784 C22.377,28.783 22.377,28.781 22.376,28.78 C22.33,28.698 22.284,28.617 22.237,28.537 C22.19,28.457 22.142,28.378 22.094,28.3 C22.046,28.222 21.997,28.146 21.947,28.07 C21.898,27.995 21.848,27.921 21.798,27.848 C21.798,27.847 21.797,27.847 21.797,27.846 C21.747,27.773 21.696,27.702 21.646,27.631 C21.595,27.56 21.543,27.49 21.492,27.422 L21.492,27.422 C21.44,27.353 21.388,27.286 21.336,27.219 C21.284,27.152 21.231,27.087 21.178,27.022 L21.178,27.022 C21.125,26.957 21.072,26.894 21.019,26.831 L21.019,26.831 C20.966,26.768 20.912,26.706 20.859,26.645 C20.805,26.584 20.752,26.524 20.698,26.464 C20.645,26.405 20.591,26.347 20.538,26.29 C20.537,26.289 20.536,26.288 20.535,26.287 C20.482,26.23 20.428,26.173 20.375,26.118 C20.321,26.062 20.267,26.006 20.213,25.951 C20.159,25.896 20.105,25.842 20.052,25.789 L20.052,25.789 L19.895,25.634 C19.891,25.63 19.888,25.627 19.884,25.623 L19.732,25.475 L19.574,25.323 L19.418,25.174 L19.268,25.032 C19.267,25.031 19.265,25.029 19.264,25.028 L19.264,25.028 L19.251,25.016 C18.237,24.056 17.377,23.261 17.077,22.279 L17.077,22.278 C17.077,22.278 17.077,22.278 17.077,22.277 C17.017,22.08 16.979,21.876 16.968,21.661 L16.001,3.956 L16.618,3.956 C17.071,3.956 17.441,3.586 17.442,3.133 L17.442,3.132 L17.442,3.132 L17.442,0.824 L17.442,0.824 C17.441,0.371 17.071,0 16.617,0 L16.531,0 L16.278,0 L15.415,0 L13.767,0 L11.644,0 L11.476,0 L9.37,0 L8.514,0 L7.882,0 C7.429,0 7.058,0.371 7.058,0.824 L7.058,3.132 C7.058,3.585 7.429,3.956 7.882,3.956 L8.499,3.956 L7.534,21.66 C7.346,25.102 0.538,25.889 0.538,35.672 L0.538,85.55 C0.538,87.998 2.751,90.001 5.456,90.001 L10.529,90.001 L19.043,90.001 C21.748,90.001 23.961,87.998 23.961,85.55 L23.961,35.672 C23.961,35.519 23.959,35.369 23.956,35.22 C23.954,35.071 23.949,34.925 23.942,34.781 Z"></path>
                <path d="M51.457,35.219 C51.454,35.071 51.449,34.924 51.442,34.78 C51.436,34.636 51.427,34.494 51.418,34.354 C51.409,34.215 51.398,34.078 51.385,33.942 L51.385,33.938 C51.373,33.803 51.359,33.669 51.343,33.538 C51.328,33.406 51.311,33.276 51.293,33.148 C51.275,33.02 51.255,32.894 51.235,32.77 L51.235,32.77 C51.214,32.647 51.193,32.525 51.169,32.406 C51.169,32.404 51.168,32.402 51.168,32.399 C51.145,32.279 51.121,32.162 51.095,32.046 C51.069,31.929 51.042,31.814 51.014,31.701 C50.986,31.588 50.957,31.476 50.926,31.366 C50.896,31.257 50.865,31.151 50.833,31.046 C50.832,31.043 50.831,31.041 50.831,31.038 C50.799,30.933 50.766,30.829 50.732,30.727 C50.698,30.624 50.662,30.522 50.625,30.422 C50.588,30.322 50.551,30.223 50.513,30.126 C50.474,30.029 50.436,29.934 50.395,29.84 C50.355,29.746 50.314,29.654 50.272,29.563 C50.23,29.472 50.188,29.382 50.145,29.294 C50.102,29.206 50.058,29.119 50.013,29.033 C49.969,28.949 49.924,28.865 49.878,28.783 C49.877,28.782 49.877,28.78 49.876,28.779 C49.83,28.697 49.784,28.616 49.737,28.536 C49.69,28.456 49.642,28.377 49.594,28.299 C49.546,28.221 49.497,28.145 49.447,28.069 C49.398,27.994 49.348,27.92 49.298,27.847 C49.298,27.846 49.297,27.846 49.297,27.845 C49.247,27.772 49.196,27.701 49.146,27.63 C49.095,27.559 49.043,27.489 48.992,27.421 L48.992,27.421 C48.94,27.352 48.888,27.285 48.836,27.218 C48.784,27.151 48.731,27.086 48.678,27.021 L48.678,27.021 C48.625,26.956 48.572,26.893 48.519,26.83 L48.519,26.83 C48.466,26.767 48.412,26.705 48.359,26.644 C48.305,26.583 48.252,26.523 48.198,26.463 C48.145,26.404 48.091,26.346 48.038,26.289 C48.037,26.288 48.036,26.287 48.035,26.286 C47.982,26.229 47.928,26.172 47.875,26.117 C47.821,26.061 47.767,26.005 47.713,25.95 C47.659,25.895 47.605,25.841 47.552,25.788 L47.552,25.788 L47.395,25.633 C47.391,25.629 47.388,25.626 47.384,25.622 L47.232,25.474 L47.074,25.322 L46.918,25.173 L46.768,25.031 C46.767,25.03 46.765,25.028 46.764,25.027 L46.764,25.027 L46.751,25.015 C45.737,24.055 44.877,23.26 44.577,22.278 L44.577,22.277 C44.577,22.277 44.577,22.277 44.577,22.276 C44.517,22.079 44.479,21.875 44.468,21.66 L43.501,3.956 L44.118,3.956 C44.571,3.956 44.941,3.586 44.942,3.133 L44.942,3.132 L44.942,3.132 L44.942,0.824 L44.942,0.824 C44.941,0.371 44.571,0 44.117,0 L44.031,0 L43.778,0 L42.915,0 L41.267,0 L39.144,0 L38.976,0 L36.87,0 L36.014,0 L35.382,0 C34.929,0 34.558,0.371 34.558,0.824 L34.558,3.132 C34.558,3.585 34.929,3.956 35.382,3.956 L35.999,3.956 L35.034,21.66 C34.846,25.102 28.038,25.889 28.038,35.672 L28.038,85.55 C28.038,87.998 30.251,90.001 32.956,90.001 L38.029,90.001 L46.543,90.001 C49.248,90.001 51.461,87.998 51.461,85.55 L51.461,35.672 C51.462,35.519 51.46,35.368 51.457,35.219 Z"></path>
            </g>
        </g>
    </g>
</svg>