
<svg width="160px" height="160px" viewBox="500 624 160 160" version="1.1" xmlns="http://www.w3.org/2000/svg" xmlns:xlink="http://www.w3.org/1999/xlink">
    <!-- Generator: Sketch 42 (36781) - http://www.bohemiancoding.com/sketch -->
    <desc>Created with Sketch.</desc>
    <defs>
        <rect id="path-1" x="0" y="0" width="160" height="160" rx="80"></rect>
    </defs>
    <g id="Bitmap-Copy-8" stroke="none" stroke-width="1" fill="none" fill-rule="evenodd" transform="translate(500.000000, 624.000000)">
        <mask id="mask-2" fill="white">
            <use xlink:href="#path-1"></use>
        </mask>
        <use id="Mask" fill="#29A71F" xlink:href="#path-1"></use>
        <path d="M104.295811,39.0588446 L100.66858,38.7650502 L98.6459192,39.5899344 L98.4312233,39.6803327 L98.4312233,40.3583197 C97.301245,39.2283413 93.8322115,36.3355968 86.8263457,35.5785113 C82.1039869,35.190561 77.375211,36.2466543 73.2666055,38.6068533 L73.2666055,36.4033955 L72.9502116,36.4033955 L69.37948,36.1773998 L67.5602149,36.9231855 L67.345519,37.0135838 L67.345519,73.2293898 L47.9211912,81.0714396 L47.7290949,81.0714396 L47.7290949,83.6138908 L49.3223644,83.7946874 L49.3223644,126.134976 L53.6614812,126.688665 L53.8761771,126.541768 L55.605044,125.41179 L55.605044,117.501941 L67.4020179,111.490457 L67.4020179,116.405862 L71.0631478,116.891753 L71.3004432,116.778755 L73.4926012,115.716576 L73.4926012,93.1170087 L81.4024496,93.9644925 L81.4024496,130.575791 L85.5720697,131.12948 L85.7980654,130.993883 L87.8998251,129.739607 L87.8998251,121.72806 L98.4764225,115.422781 L98.4764225,120.428585 L102.544345,121.038774 L102.78164,120.903176 L104.600905,119.886196 L104.600905,39.0814442 L104.295811,39.0588446 Z M67.3794183,106.258657 L55.5711446,112.37184 L55.5033459,91.1621462 L67.3794183,92.4503215 L67.3794183,106.258657 Z M73.7863956,72.8903963 L73.6507982,61.5906128 L98.5103218,64.0765652 L98.5103218,75.5345457 L73.7863956,72.8903963 Z M87.8998251,93.0040109 L98.4199236,88.043406 L98.5216216,110.439577 L87.8998251,116.213766 L87.8998251,93.0040109 Z" id="Shape" fill="#fff" fill-rule="nonzero" opacity="1" mask="url(#mask-2)"></path>
    </g>
</svg>