
<svg width="160px" height="160px" viewBox="0 0 160 160" version="1.1" xmlns="http://www.w3.org/2000/svg" xmlns:xlink="http://www.w3.org/1999/xlink">
    <!-- Generator: Sketch 43.1 (39012) - http://www.bohemiancoding.com/sketch -->
    <desc>Created with Sketch.</desc>
    <defs></defs>
    <g id="Page-1" stroke="none" stroke-width="1" fill="none" fill-rule="evenodd">
        <g id="FABRIKA-04-EXTRAS" transform="translate(-267.000000, -542.000000)">
            <g id="Bitmap-Copy-5" transform="translate(267.000000, 542.000000)">
                <rect id="Mask" fill="#D8D8D8" x="0" y="0" width="160" height="160" rx="80"></rect>
                <g id="Group" opacity="0.3" transform="translate(36.973451, 30.250000)" fill-rule="nonzero" fill="#000000">
                    <rect id="Rectangle-path" x="18.6373186" y="17.0409159" width="8.5200177" height="19.8806283"></rect>
                    <path d="M27.1573363,8.87575221 C27.1573363,11.8158451 25.2492257,14.200323 22.8973274,14.200323 C20.5454292,14.200323 18.6373186,11.8158451 18.6373186,8.87575221 C18.6373186,5.93565929 22.8973274,0 22.8973274,0 C22.8973274,0 27.1573363,5.93565929 27.1573363,8.87575221 Z" id="Shape"></path>
                    <rect id="Rectangle-path" x="61.2374071" y="17.0409159" width="8.5200177" height="19.8806283"></rect>
                    <path d="M69.7574248,8.87575221 C69.7574248,11.8158451 67.8493142,14.200323 65.4974159,14.200323 C63.1455177,14.200323 61.2374071,11.8158451 61.2374071,8.87575221 C61.2374071,5.93565929 65.4974159,0 65.4974159,0 C65.4974159,0 69.7574248,5.93565929 69.7574248,8.87575221 Z" id="Shape"></path>
                    <rect id="Rectangle-path" x="39.7656593" y="17.0409159" width="8.51913717" height="19.8806283"></rect>
                    <path d="M48.2847965,8.87575221 C48.2847965,11.8158451 46.3766858,14.200323 44.0256681,14.200323 C41.6737699,14.200323 39.7656593,11.8158451 39.7656593,8.87575221 C39.7656593,5.93565929 44.0256681,0 44.0256681,0 C44.0256681,0 48.2847965,5.93565929 48.2847965,8.87575221 Z" id="Shape"></path>
                    <path d="M77.8283717,71.839 C75.4958451,69.509115 73.0796681,67.0902965 70.785885,67.0902965 C68.4929823,67.0902965 66.0794469,69.509115 63.7442788,71.839 C61.3175354,74.2631018 58.8133053,76.770854 56.2703319,76.770854 C53.7273584,76.770854 51.2204867,74.2631018 48.7955044,71.839 C46.4612168,69.509115 44.0485619,67.0902965 41.7538982,67.0902965 C39.458354,67.0902965 37.0448186,69.509115 34.7096504,71.839 C32.2829071,74.2631018 29.7777965,76.770854 27.234823,76.770854 C24.6918496,76.770854 22.1876195,74.2631018 19.7608761,71.839 C17.4292301,69.509115 15.0121726,67.0902965 12.7192699,67.0902965 C10.9221062,67.0902965 9.05009735,68.5792743 7.19922124,70.3429779 L10.2995708,89.7217035 C10.2995708,95.0471549 14.6537965,99.4005 19.9766062,99.4005 L68.3679469,99.4005 C73.6898761,99.4005 78.0441018,95.0471549 78.0441018,89.7217035 L80.6786504,74.5343053 C79.7171106,73.7250973 78.7687788,72.7785265 77.8283717,71.839 Z" id="Shape"></path>
                    <path d="M5.24444248,66.8736858 C7.67118584,64.4557478 10.1754159,61.9479956 12.7183894,61.9479956 C15.264885,61.9479956 17.7682345,64.4557478 20.1896947,66.8736858 C22.5248628,69.2114956 24.9428009,71.6276726 27.2339425,71.6276726 C29.5303673,71.6276726 31.9439027,69.2114956 34.2790708,66.8736858 C36.7031726,64.4557478 39.2074027,61.9479956 41.7530177,61.9479956 C44.2968717,61.9479956 46.8011018,64.4557478 49.224323,66.8736858 C51.5594912,69.2114956 53.9730265,71.6276726 56.2694513,71.6276726 C58.562354,71.6276726 60.9794115,69.2114956 63.3136991,66.8736858 C65.7351593,64.4557478 68.2402699,61.9479956 70.7850044,61.9479956 C73.3315,61.9479956 75.8357301,64.4557478 78.2598319,66.8736858 C80.5914779,69.2114956 83.0085354,71.6276726 85.3014381,71.6276726 C85.3155265,71.6276726 85.3260929,71.6276726 85.3348982,71.6215088 C89.3589248,68.0245398 87.7228982,50.1550442 87.7228982,50.1550442 C87.7228982,44.8295929 83.3686726,40.4753673 78.0432212,40.4753673 L10.2995708,40.4753673 C4.975,40.4753673 0.620774336,44.8295929 0.620774336,50.1550442 C0.620774336,50.1550442 -1.7399292,67.5393673 2.74549558,69.2696106 C3.78540265,69.6728938 4.41762389,67.7040265 5.24444248,66.8736858 Z" id="Shape"></path>
                </g>
            </g>
        </g>
    </g>
</svg>