
<svg width="32px" height="32px" viewBox="39 0 32 32" version="1.1" xmlns="http://www.w3.org/2000/svg" xmlns:xlink="http://www.w3.org/1999/xlink">
    <!-- Generator: Sketch 42 (36781) - http://www.bohemiancoding.com/sketch -->
    <desc>Created with Sketch.</desc>
    <defs></defs>
    <g id="Group-15" stroke="none" stroke-width="1" fill="none" fill-rule="evenodd" transform="translate(39.651818, 0.067653)">
        <path d="M23.1061956,16.9566222 C24.3552279,18.0926222 25.2275678,19.0152889 25.7196109,19.7299556 C25.9503123,20.0872889 26.0242089,20.4019556 25.9413006,20.6792889 C25.8601946,20.9548444 25.6709473,21.0917333 25.375361,21.0917333 L22.1203072,21.2375111 C21.6589042,21.2712889 21.1001741,20.9939556 20.4423144,20.4108444 C19.7844547,19.8277333 19.3410753,19.3406222 19.1103738,18.9512889 C18.9788018,18.7237333 18.7408909,18.5957333 18.3966411,18.5619556 C18.0505888,18.5299556 17.8288991,18.6935111 17.7297696,19.0490667 L17.63064,20.3148444 C17.5981976,20.5726222 17.4990681,20.7681778 17.3350538,20.8979556 C17.1710394,21.0277333 17.0322581,21.1006222 16.9169073,21.1166222 C16.8015566,21.1326222 16.6123093,21.1575111 16.3491654,21.1895111 C15.494849,21.2215111 14.7468715,21.1806222 14.105233,21.0686222 C13.4635945,20.9548444 12.8796313,20.7184 12.3551459,20.3628444 C11.8288582,20.0055111 11.4089094,19.6819556 11.0952995,19.3886222 C10.7852944,19.0970667 10.3329032,18.6259556 9.73992832,17.9788444 C8.12862263,15.7086222 6.92825397,13.7459556 6.13882232,12.0926222 C5.84323605,11.4437333 5.67922171,10.8926222 5.64677931,10.4375111 C5.77835125,10.3095111 6.02527394,10.2277333 6.38754736,10.1939556 C6.74801843,10.1637333 7.2743062,10.1548444 7.96460829,10.1708444 C8.65491039,10.1868444 9.06584741,10.1939556 9.19741935,10.1939556 C9.52725038,10.1637333 9.78859191,10.3397333 9.986851,10.7308444 C10.808725,12.5477333 11.6143779,13.9575111 12.4038095,14.9619556 C12.9300973,15.4490667 13.2743472,15.3672889 13.4401639,14.7184 C13.5050486,14.7184 13.537491,13.9255111 13.537491,12.3344 C13.5699334,11.3299556 13.1589964,10.6970667 12.30468,10.4375111 C12.5029391,9.92017778 13.1932412,9.66062222 14.3773886,9.66062222 C14.6729749,9.66062222 15.033446,9.67484444 15.4624066,9.70862222 C15.8895648,9.74062222 16.1202663,9.75662222 16.1527087,9.75662222 C17.138597,9.75662222 17.63064,10.1459556 17.63064,10.9246222 C17.63064,11.0224 17.6162212,11.2570667 17.5819764,11.6304 C17.5495341,12.0037333 17.5243011,12.3592889 17.5080799,12.6988444 C17.4918587,13.0419556 17.4828469,13.3975111 17.4828469,13.7708444 C17.4828469,14.1441778 17.5333129,14.4606222 17.63064,14.7184 C17.7297696,14.9797333 17.8613415,15.1415111 18.0271582,15.2072889 C18.2073938,15.0757333 18.3786175,14.9548444 18.5444342,14.8410667 C18.7084485,14.7272889 18.8814747,14.5424 19.0617102,14.2810667 C19.2419457,14.0232889 19.3825294,13.8259556 19.481659,13.6979556 C19.5789862,13.5681778 19.7267793,13.3246222 19.9250384,12.9690667 C20.1232975,12.6117333 20.2368459,12.3841778 20.2710906,12.2864 C20.303533,12.1886222 20.4188838,11.9379556 20.6153405,11.5326222 C20.8135996,11.1272889 20.9109268,10.9246222 20.9109268,10.9246222 L20.9848233,10.7770667 C21.1163953,10.4855111 21.2245366,10.3166222 21.3056426,10.2668444 C21.3885509,10.2188444 21.5940195,10.1939556 21.9220481,10.1939556 L24.9806452,10.1939556 C25.3411162,10.1939556 25.5555965,10.2028444 25.6222837,10.2188444 C25.6871685,10.2366222 25.786298,10.3095111 25.9178699,10.4375111 C26.1467691,10.7308444 25.9413006,11.3637333 25.3014644,12.3344 C24.6598259,13.3086222 24.0434204,14.1192889 23.4504455,14.7699556 C22.6285714,15.6748444 22.5132207,16.4055111 23.1061956,16.9566222 M15.8282847,0.677511111 C7.62216078,0.677511111 0.969667179,7.29084444 0.969667179,15.4490667 C0.969667179,23.6090667 7.62216078,30.2224 15.8282847,30.2224 C24.0326062,30.2224 30.6850998,23.6090667 30.6850998,15.4490667 C30.6850998,7.29084444 24.0326062,0.677511111 15.8282847,0.677511111" id="Fill-13" fill="#81807F"></path>
    </g>
</svg>